<?xml version="1.0" encoding="UTF-8" standalone="no"?><!DOCTYPE svg PUBLIC "-//W3C//DTD SVG 1.1//EN" "http://www.w3.org/Graphics/SVG/1.1/DTD/svg11.dtd"><svg width="100%" height="100%" viewBox="0 0 196 190" version="1.1" xmlns="http://www.w3.org/2000/svg" xmlns:xlink="http://www.w3.org/1999/xlink" xml:space="preserve" xmlns:serif="http://www.serif.com/" style="fill-rule:evenodd;clip-rule:evenodd;stroke-linejoin:round;stroke-miterlimit:2;"><path d="M63.417,72.211l-14.734,-14.734c-12.691,-12.691 -12.691,-33.268 0,-45.958c12.691,-12.692 33.268,-12.692 45.959,0l14.733,14.733l-45.958,45.959Z" style="fill:url(#_Linear1);"/><path d="M64.832,70.797l-14.735,-14.735c-5.959,-5.96 -8.93,-13.753 -8.933,-21.564c0.003,-7.812 2.974,-15.605 8.933,-21.565c5.961,-5.959 13.754,-8.931 21.565,-8.933c7.812,0.002 15.605,2.974 21.566,8.933l14.733,14.733l2.829,-2.828l-14.734,-14.734c-6.731,-6.732 -15.572,-10.106 -24.394,-10.104c-8.822,-0.002 -17.662,3.372 -24.393,10.104c-6.733,6.731 -10.107,15.572 -10.105,24.394c-0.002,8.822 3.372,17.662 10.105,24.393l14.734,14.734l2.829,-2.828Z" style="fill:#03405e;fill-rule:nonzero;"/><path d="M99.373,62.208c-12.691,12.692 -28.669,17.291 -35.686,10.274c-7.017,-7.018 -2.418,-22.996 10.273,-35.686c12.692,-12.691 28.668,-17.291 35.686,-10.273c7.017,7.017 2.418,22.994 -10.273,35.685Z" style="fill:url(#_Linear2);"/><path d="M99.373,62.208l-1.414,-1.414c-4.187,4.188 -8.74,7.454 -13.138,9.653c-4.397,2.204 -8.64,3.324 -12.139,3.318c-1.627,0 -3.09,-0.237 -4.353,-0.69c-1.266,-0.454 -2.334,-1.115 -3.228,-2.008c-0.892,-0.894 -1.553,-1.962 -2.008,-3.227c-0.453,-1.264 -0.69,-2.727 -0.69,-4.354c-0.005,-3.499 1.115,-7.742 3.318,-12.138c2.199,-4.399 5.465,-8.951 9.653,-13.138c4.188,-4.188 8.74,-7.454 13.139,-9.653c4.396,-2.204 8.639,-3.324 12.138,-3.318c1.627,-0.001 3.089,0.237 4.353,0.689c1.265,0.455 2.334,1.116 3.228,2.009c0.892,0.894 1.553,1.962 2.008,3.228c0.453,1.263 0.69,2.726 0.69,4.353c0.005,3.499 -1.115,7.741 -3.318,12.138c-2.199,4.398 -5.465,8.951 -9.653,13.138l1.414,1.414l1.415,1.414c4.475,-4.477 7.988,-9.354 10.401,-14.177c2.409,-4.825 3.735,-9.595 3.741,-13.927c-0.001,-2.013 -0.292,-3.934 -0.924,-5.702c-0.631,-1.766 -1.611,-3.375 -2.946,-4.708c-1.333,-1.334 -2.942,-2.315 -4.708,-2.945c-1.767,-0.633 -3.689,-0.924 -5.701,-0.924c-4.332,0.005 -9.103,1.331 -13.928,3.741c-4.823,2.413 -9.7,5.926 -14.177,10.402c-4.476,4.477 -7.989,9.354 -10.402,14.177c-2.409,4.825 -3.735,9.595 -3.741,13.927c0.001,2.013 0.292,3.934 0.924,5.702c0.631,1.765 1.611,3.375 2.946,4.708c1.332,1.334 2.942,2.315 4.707,2.945c1.768,0.633 3.69,0.924 5.702,0.924c4.332,-0.005 9.103,-1.331 13.928,-3.74c4.823,-2.414 9.7,-5.927 14.178,-10.403l-1.415,-1.414Z" style="fill:#03405e;fill-rule:nonzero;"/><path d="M122.893,133.038c-7.018,-7.016 -2.418,-22.994 10.273,-35.685c12.692,-12.691 28.668,-17.29 35.686,-10.273l0.27,0.27l14.734,14.734c12.691,12.692 12.691,33.268 0,45.959c-12.692,12.691 -33.268,12.691 -45.959,0l-14.734,-14.734l-0.27,-0.271Z" style="fill:url(#_Linear3);"/><path d="M122.893,133.038l1.414,-1.414c-0.892,-0.894 -1.554,-1.962 -2.008,-3.228c-0.453,-1.263 -0.69,-2.726 -0.69,-4.353c-0.005,-3.499 1.115,-7.741 3.318,-12.138c2.199,-4.398 5.465,-8.951 9.654,-13.138c4.186,-4.188 8.739,-7.454 13.138,-9.653c4.396,-2.203 8.639,-3.323 12.137,-3.318c1.628,0 3.09,0.237 4.354,0.69c1.265,0.455 2.334,1.116 3.228,2.008l0.002,0.003l0.271,0.269l-0.003,-0.002l14.734,14.734c5.959,5.961 8.93,13.754 8.932,21.566c-0.002,7.811 -2.973,15.604 -8.932,21.565c-5.961,5.958 -13.754,8.93 -21.566,8.932c-7.811,-0.002 -15.605,-2.974 -21.565,-8.932l-14.733,-14.734l-0.271,-0.271l-1.414,1.414l-1.414,1.414l0.27,0.271l14.734,14.734c6.731,6.732 15.571,10.106 24.393,10.104c8.822,0.002 17.663,-3.372 24.394,-10.104c6.732,-6.731 10.107,-15.571 10.104,-24.393c0.003,-8.822 -3.372,-17.663 -10.104,-24.394l-14.733,-14.734l-0.003,-0.003l-0.27,-0.27l0.002,0.003c-1.333,-1.335 -2.942,-2.315 -4.708,-2.946c-1.767,-0.632 -3.689,-0.924 -5.702,-0.924c-4.331,0.006 -9.102,1.332 -13.927,3.741c-4.823,2.413 -9.7,5.926 -14.177,10.401c-4.476,4.478 -7.989,9.355 -10.402,14.178c-2.409,4.825 -3.736,9.595 -3.741,13.927c0,2.013 0.292,3.935 0.924,5.702c0.631,1.766 1.611,3.375 2.946,4.708l1.414,-1.415Z" style="fill:#03405e;fill-rule:nonzero;"/><path d="M113.904,65.249l-20.951,-20.951l5.406,-5.407l20.952,20.952c1.493,1.493 1.493,3.913 0,5.406c-1.493,1.493 -3.914,1.493 -5.407,0Z" style="fill:url(#_Linear4);"/><path d="M113.904,65.249l1.414,-1.414l-19.537,-19.537l2.578,-2.579l19.538,19.538c0.36,0.362 0.531,0.816 0.534,1.289c-0.003,0.473 -0.174,0.928 -0.534,1.289c-0.362,0.36 -0.817,0.532 -1.29,0.534c-0.473,-0.002 -0.928,-0.174 -1.289,-0.534l-1.414,1.414l-1.415,1.414c1.132,1.134 2.634,1.708 4.118,1.706c1.484,0.002 2.986,-0.572 4.118,-1.706c1.133,-1.131 1.708,-2.633 1.706,-4.117c0.002,-1.484 -0.573,-2.986 -1.706,-4.117l-22.366,-22.367l-8.235,8.236l22.365,22.365l1.415,-1.414Z" style="fill:#03405e;fill-rule:nonzero;"/><path d="M99.036,80.118l-20.953,-20.951l5.408,-5.407l20.951,20.952c1.493,1.492 1.493,3.913 0,5.406c-1.493,1.493 -3.914,1.493 -5.406,0Z" style="fill:url(#_Linear5);"/><path d="M99.036,80.118l1.414,-1.414l-19.538,-19.537l2.579,-2.579l19.536,19.538c0.36,0.361 0.532,0.816 0.535,1.289c-0.003,0.473 -0.175,0.928 -0.535,1.289c-0.361,0.36 -0.816,0.532 -1.289,0.534c-0.473,-0.002 -0.927,-0.174 -1.288,-0.533l-1.414,1.413l-1.415,1.414c1.131,1.134 2.634,1.708 4.117,1.706c1.484,0.002 2.986,-0.572 4.118,-1.705c1.133,-1.132 1.708,-2.634 1.706,-4.118c0.002,-1.484 -0.573,-2.986 -1.707,-4.118l-22.364,-22.366l-8.236,8.236l22.366,22.366l1.415,-1.415Z" style="fill:#03405e;fill-rule:nonzero;"/><path d="M180.048,134.449l-1.414,1.415c0.18,0.181 0.312,0.386 0.409,0.639c0.096,0.253 0.153,0.556 0.153,0.903c0.009,0.961 -0.477,2.243 -1.518,3.276c-1.031,1.04 -2.314,1.526 -3.276,1.518c-0.347,0 -0.649,-0.058 -0.902,-0.154c-0.253,-0.097 -0.458,-0.229 -0.639,-0.408c-0.18,-0.181 -0.312,-0.387 -0.409,-0.64c-0.096,-0.253 -0.154,-0.556 -0.154,-0.903c-0.008,-0.962 0.478,-2.244 1.518,-3.275c1.032,-1.042 2.314,-1.527 3.276,-1.519c0.347,0 0.65,0.057 0.902,0.154c0.254,0.097 0.459,0.228 0.64,0.408l1.414,-1.414l1.414,-1.414c-0.592,-0.593 -1.298,-1.036 -2.046,-1.319c-0.749,-0.285 -1.538,-0.415 -2.324,-0.415c-2.186,0.009 -4.374,0.968 -6.105,2.69c-1.721,1.73 -2.68,3.919 -2.689,6.104c0,0.787 0.13,1.575 0.415,2.324c0.283,0.748 0.726,1.455 1.319,2.047c0.593,0.593 1.299,1.036 2.047,1.319c0.748,0.285 1.537,0.415 2.323,0.415c2.186,-0.009 4.374,-0.969 6.105,-2.69c1.721,-1.731 2.681,-3.919 2.689,-6.104c0,-0.787 -0.13,-1.575 -0.414,-2.324c-0.284,-0.748 -0.726,-1.454 -1.32,-2.047l-1.414,1.414Z" style="fill:#03405e;fill-rule:nonzero;"/><path d="M49.376,10.275c-0.174,-0.091 -7.264,-4.202 -17.306,-4.215c-5.016,-0.003 -10.773,1.051 -16.637,4.181c-5.548,2.953 -9.456,7.762 -11.906,13.566c-2.458,5.811 -3.525,12.637 -3.527,19.922c0.008,14.179 4.047,30.15 10.439,43.865c3.199,6.857 6.991,13.146 11.207,18.356c4.218,5.207 8.856,9.351 13.834,11.845c6.984,3.489 12.984,4.993 17.922,4.997c4.231,0.001 7.718,-1.122 10.197,-3.169c1.235,-1.021 2.203,-2.27 2.848,-3.664c0.647,-1.393 0.971,-2.926 0.97,-4.501c-0.001,-2.599 -0.867,-5.302 -2.529,-7.881c-1.665,-2.581 -4.129,-5.051 -7.404,-7.235c-2.081,-1.381 -4.769,-2.434 -7.851,-3.18c-3.081,-0.74 -6.555,-1.157 -10.165,-1.158c-7.076,0.008 -14.709,1.588 -20.757,5.771c-3.016,2.092 -5.62,4.855 -7.445,8.354c-1.827,3.497 -2.863,7.705 -2.861,12.621c0.003,6.643 1.863,14.577 6.146,24.078c4.707,10.442 12.4,18.598 21.701,24.913c13.962,9.475 31.549,14.898 48.726,18.004c17.179,3.101 33.962,3.864 46.312,3.865c8.86,-0.001 15.432,-0.394 18.238,-0.61c2.738,-0.212 6.114,-0.862 9.696,-2.044c5.365,-1.777 11.195,-4.746 15.78,-9.364c2.289,-2.309 4.259,-5.038 5.652,-8.216c1.393,-3.177 2.2,-6.798 2.199,-10.835c-0.001,-5.917 -1.717,-12.7 -5.702,-20.45c-0.505,-0.982 -1.711,-1.369 -2.693,-0.864c-0.983,0.506 -1.369,1.711 -0.864,2.694c3.768,7.327 5.26,13.487 5.259,18.62c-0.004,4.677 -1.221,8.529 -3.194,11.789c-2.956,4.882 -7.712,8.44 -12.707,10.827c-4.98,2.388 -10.185,3.587 -13.733,3.855c-2.706,0.208 -9.192,0.598 -17.931,0.598c-16.243,0.003 -40.297,-1.356 -62.38,-7.654c-11.041,-3.146 -21.581,-7.524 -30.41,-13.524c-8.834,-6.004 -15.947,-13.595 -20.302,-23.248c-4.123,-9.138 -5.796,-16.549 -5.793,-22.434c0.002,-4.363 0.904,-7.887 2.407,-10.77c2.256,-4.313 5.908,-7.273 10.305,-9.208c4.387,-1.927 9.493,-2.77 14.351,-2.768c3.299,0 6.483,0.386 9.229,1.048c2.745,0.656 5.056,1.604 6.568,2.618c2.887,1.924 4.945,4.031 6.261,6.074c1.318,2.046 1.892,4.016 1.891,5.714c-0.001,1.034 -0.207,1.973 -0.599,2.818c-0.59,1.264 -1.595,2.349 -3.136,3.171c-1.538,0.817 -3.628,1.345 -6.28,1.345c-4.114,0.004 -9.561,-1.286 -16.133,-4.575c-4.271,-2.13 -8.553,-5.883 -12.514,-10.783c-5.949,-7.345 -11.17,-17.234 -14.868,-27.807c-3.704,-10.572 -5.89,-21.835 -5.887,-31.898c-0.002,-6.894 1.027,-13.215 3.21,-18.362c2.192,-5.155 5.472,-9.119 10.106,-11.596c5.234,-2.79 10.288,-3.709 14.754,-3.711c4.462,-0.001 8.328,0.932 11.062,1.866c1.366,0.466 2.448,0.931 3.178,1.274c0.365,0.171 0.641,0.312 0.821,0.406l0.197,0.106l0.042,0.023l0.006,0.004l0.391,-0.683l-0.394,0.681l0.003,0.002l0.391,-0.683l-0.394,0.681c0.956,0.553 2.18,0.226 2.733,-0.73c0.553,-0.956 0.226,-2.179 -0.73,-2.732Z" style="fill:#03405e;fill-rule:nonzero;"/><defs><linearGradient id="_Linear1" x1="0" y1="0" x2="1" y2="0" gradientUnits="userSpaceOnUse" gradientTransform="matrix(37.7132,37.7132,-37.7132,37.7132,48.683,11.518)"><stop offset="0" style="stop-color:#e5f2f8;stop-opacity:1"/><stop offset="1" style="stop-color:#fff;stop-opacity:1"/></linearGradient><linearGradient id="_Linear2" x1="0" y1="0" x2="1" y2="0" gradientUnits="userSpaceOnUse" gradientTransform="matrix(25.4125,25.4125,-25.4125,25.4125,73.961,36.796)"><stop offset="0" style="stop-color:#e5f2f8;stop-opacity:1"/><stop offset="1" style="stop-color:#fff;stop-opacity:1"/></linearGradient><linearGradient id="_Linear3" x1="0" y1="0" x2="1" y2="0" gradientUnits="userSpaceOnUse" gradientTransform="matrix(-50.6898,-50.6898,50.6898,-50.6898,183.856,148.043)"><stop offset="0" style="stop-color:#e5f2f8;stop-opacity:1"/><stop offset="1" style="stop-color:#fff;stop-opacity:1"/></linearGradient><linearGradient id="_Linear4" x1="0" y1="0" x2="1" y2="0" gradientUnits="userSpaceOnUse" gradientTransform="matrix(23.6552,23.6552,-23.6552,23.6552,95.656,41.594)"><stop offset="0" style="stop-color:#e5f2f8;stop-opacity:1"/><stop offset="1" style="stop-color:#fff;stop-opacity:1"/></linearGradient><linearGradient id="_Linear5" x1="0" y1="0" x2="1" y2="0" gradientUnits="userSpaceOnUse" gradientTransform="matrix(23.6552,23.6552,-23.6552,23.6552,80.787,56.463)"><stop offset="0" style="stop-color:#e5f2f8;stop-opacity:1"/><stop offset="1" style="stop-color:#fff;stop-opacity:1"/></linearGradient></defs></svg>