<?xml version="1.0" encoding="UTF-8" standalone="no"?><!DOCTYPE svg PUBLIC "-//W3C//DTD SVG 1.1//EN" "http://www.w3.org/Graphics/SVG/1.1/DTD/svg11.dtd"><svg width="100%" height="100%" viewBox="0 0 192 183" version="1.1" xmlns="http://www.w3.org/2000/svg" xmlns:xlink="http://www.w3.org/1999/xlink" xml:space="preserve" xmlns:serif="http://www.serif.com/" style="fill-rule:evenodd;clip-rule:evenodd;stroke-linejoin:round;stroke-miterlimit:2;"><path d="M182.732,114l-173.464,0c-4.014,0 -7.268,-3.254 -7.268,-7.268l0,-97.464c0,-4.014 3.254,-7.268 7.268,-7.268l173.464,0c4.015,0 7.268,3.254 7.268,7.268l0,97.464c0,4.014 -3.253,7.268 -7.268,7.268Z" style="fill:url(#_Linear1);"/><path d="M182.732,116l0,-4l-173.464,0c-1.461,-0.001 -2.766,-0.586 -3.725,-1.543c-0.957,-0.959 -1.542,-2.264 -1.543,-3.725l0,-97.464c0.001,-1.461 0.586,-2.765 1.543,-3.725c0.959,-0.956 2.264,-1.542 3.725,-1.543l173.464,0c1.462,0.001 2.766,0.587 3.726,1.543c0.956,0.96 1.541,2.264 1.542,3.725l0,97.464c-0.001,1.461 -0.586,2.766 -1.542,3.725c-0.96,0.956 -2.264,1.542 -3.726,1.543l0,4c5.12,-0.001 9.267,-4.148 9.268,-9.268l0,-97.464c-0.001,-5.119 -4.148,-9.266 -9.268,-9.268l-173.464,0c-5.12,0.002 -9.267,4.149 -9.268,9.268l0,97.464c0.001,5.119 4.148,9.267 9.268,9.268l173.464,0Z" style="fill:#03405e;fill-rule:nonzero;"/><path d="M77.076,125.957c0,14.646 -8.069,27.401 -20,34.082c0,3.844 3.117,6.961 6.961,6.961l63.926,0c3.845,0 6.961,-3.117 6.961,-6.961c-11.93,-6.681 -20,-19.436 -20,-34.082l-37.848,0Z" style="fill:url(#_Linear2);"/><path d="M75.076,125.957c0.001,13.897 -7.654,25.993 -18.977,32.337l-1.023,0.572l0,1.173c0.002,4.95 4.011,8.96 8.961,8.961l63.926,0c4.95,-0.001 8.96,-4.011 8.961,-8.961l0,-1.173l-1.023,-0.572c-11.323,-6.344 -18.978,-18.44 -18.977,-32.337l-4,0c0.001,15.394 8.485,28.809 21.023,35.827l0.977,-1.745l-2,0c-0.001,1.376 -0.552,2.604 -1.453,3.508c-0.904,0.901 -2.132,1.452 -3.508,1.453l-63.926,0c-1.376,-0.001 -2.604,-0.552 -3.508,-1.453c-0.901,-0.904 -1.452,-2.132 -1.453,-3.508l-2,0l0.977,1.745c12.538,-7.018 21.022,-20.433 21.023,-35.827l-4,0Z" style="fill:#03405e;fill-rule:nonzero;"/><path d="M117.5,85.769l0,-2l-41,0l0,-27.852l39,0l0,29.852l2,0l0,-2l0,2l2,0l0,-33.852l-47,0l0,35.852l47,0l0,-2l-2,0Z" style="fill:#03405e;fill-rule:nonzero;"/><path d="M84.861,55.51l0,-13.139c0.001,-3.083 1.244,-5.855 3.262,-7.877c2.023,-2.018 4.795,-3.261 7.877,-3.262c3.083,0.001 5.855,1.243 7.877,3.262c2.019,2.022 3.261,4.794 3.262,7.877l0,13.139l4,0l0,-13.139c-0.001,-8.362 -6.777,-15.138 -15.139,-15.139c-8.362,0.001 -15.138,6.777 -15.139,15.139l0,13.139l4,0Z" style="fill:#03405e;fill-rule:nonzero;"/><path d="M94,65l0,10c0,1.105 0.895,2 2,2c1.105,0 2,-0.895 2,-2l0,-10c0,-1.104 -0.895,-2 -2,-2c-1.105,0 -2,0.896 -2,2Z" style="fill:#03405e;fill-rule:nonzero;"/><path d="M22.5,182.5l147,0c1.105,0 2,-0.895 2,-2c0,-1.105 -0.895,-2 -2,-2l-147,0c-1.105,0 -2,0.895 -2,2c0,1.105 0.895,2 2,2Z" style="fill:#03405e;fill-rule:nonzero;"/><defs><linearGradient id="_Linear1" x1="0" y1="0" x2="1" y2="0" gradientUnits="userSpaceOnUse" gradientTransform="matrix(188,0,0,188,2.00042,58)"><stop offset="0" style="stop-color:#e5f2f8;stop-opacity:1"/><stop offset="1" style="stop-color:#fff;stop-opacity:1"/></linearGradient><linearGradient id="_Linear2" x1="0" y1="0" x2="1" y2="0" gradientUnits="userSpaceOnUse" gradientTransform="matrix(77.8478,0,0,77.8478,57.0765,146.478)"><stop offset="0" style="stop-color:#e7f4f9;stop-opacity:1"/><stop offset="1" style="stop-color:#fff;stop-opacity:1"/></linearGradient></defs></svg>