<?xml version="1.0" encoding="UTF-8" standalone="no"?><!DOCTYPE svg PUBLIC "-//W3C//DTD SVG 1.1//EN" "http://www.w3.org/Graphics/SVG/1.1/DTD/svg11.dtd"><svg width="100%" height="100%" viewBox="0 0 202 186" version="1.1" xmlns="http://www.w3.org/2000/svg" xmlns:xlink="http://www.w3.org/1999/xlink" xml:space="preserve" xmlns:serif="http://www.serif.com/" style="fill-rule:evenodd;clip-rule:evenodd;stroke-linejoin:round;stroke-miterlimit:2;"><path d="M46.169,121.204l121.333,0c17.928,0 32.462,-14.534 32.462,-32.461c0,-17.929 -14.534,-32.462 -32.462,-32.462c-2.071,0 -4.095,0.202 -6.059,0.573c-2.422,-30.695 -28.079,-54.854 -59.397,-54.854c-22.56,0 -42.189,12.537 -52.31,31.021c-1.177,-0.094 -2.364,-0.155 -3.567,-0.155c-24.394,0 -44.169,19.775 -44.169,44.169c0,24.394 19.775,44.169 44.169,44.169Z" style="fill:url(#_Linear1);"/><path d="M138.53,123.204l28.972,0c19.034,-0.001 34.461,-15.428 34.462,-34.461c-0.001,-19.034 -15.428,-34.461 -34.462,-34.462c-2.201,0 -4.35,0.215 -6.43,0.608l0.371,1.965l1.994,-0.157c-2.505,-31.731 -29.021,-56.693 -61.391,-56.697c-23.314,0.001 -43.608,12.959 -54.064,32.061l1.754,0.96l0.16,-1.993c-1.215,-0.097 -2.456,-0.162 -3.727,-0.162c-25.499,0.001 -46.168,20.67 -46.169,46.169c0.001,25.499 20.67,46.168 46.169,46.169l17.622,0l0,-4l-17.622,0c-11.651,-0.001 -22.18,-4.717 -29.818,-12.351c-7.634,-7.638 -12.35,-18.167 -12.351,-29.818c0.001,-11.651 4.717,-22.181 12.351,-29.818c7.638,-7.635 18.167,-12.35 29.818,-12.351c1.134,0 2.268,0.058 3.408,0.149l1.291,0.103l0.623,-1.136c9.786,-17.867 28.75,-29.983 50.555,-29.982c30.265,-0.003 55.064,23.352 57.403,53.011l0.175,2.222l2.19,-0.414c1.848,-0.349 3.747,-0.538 5.688,-0.538c8.418,0.001 16.021,3.406 21.54,8.922c5.516,5.519 8.921,13.121 8.922,21.54c-0.001,8.417 -3.406,16.02 -8.922,21.539c-5.519,5.516 -13.122,8.921 -21.54,8.922l-28.972,0l0,4Z" style="fill:#03405e;fill-rule:nonzero;"/><path d="M102.964,163.204l0,-72l-4,0l0,72" style="fill:#03405e;fill-rule:nonzero;"/><path d="M82.58,107.618l18.384,-18.384l18.385,18.384l2.828,-2.828l-21.213,-21.213l-21.213,21.213l2.829,2.828Z" style="fill:#03405e;fill-rule:nonzero;"/><path d="M101.964,2.204c-32.032,0 -58,25.968 -58,58l58,-58Z" style="fill:url(#_Linear2);"/><path d="M101.964,0.204c-33.138,0.002 -59.998,26.862 -60,60l4,0c0.001,-15.47 6.265,-29.457 16.402,-39.598c10.141,-10.137 24.128,-16.401 39.598,-16.402l0,-4Z" style="fill:#03405e;fill-rule:nonzero;"/><path d="M69.964,185.204l62,0l0,-4l-62,0" style="fill:#03405e;fill-rule:nonzero;"/><defs><linearGradient id="_Linear1" x1="0" y1="0" x2="1" y2="0" gradientUnits="userSpaceOnUse" gradientTransform="matrix(197.964,0,0,197.964,2,61.6019)"><stop offset="0" style="stop-color:#e5f2f8;stop-opacity:1"/><stop offset="1" style="stop-color:#fff;stop-opacity:1"/></linearGradient><linearGradient id="_Linear2" x1="0" y1="0" x2="1" y2="0" gradientUnits="userSpaceOnUse" gradientTransform="matrix(58,0,0,58,43.964,31.204)"><stop offset="0" style="stop-color:#e5f2f8;stop-opacity:1"/><stop offset="1" style="stop-color:#fff;stop-opacity:1"/></linearGradient></defs></svg>