<?xml version="1.0" encoding="UTF-8" standalone="no"?><!DOCTYPE svg PUBLIC "-//W3C//DTD SVG 1.1//EN" "http://www.w3.org/Graphics/SVG/1.1/DTD/svg11.dtd"><svg width="100%" height="100%" viewBox="0 0 199 164" version="1.1" xmlns="http://www.w3.org/2000/svg" xmlns:xlink="http://www.w3.org/1999/xlink" xml:space="preserve" xmlns:serif="http://www.serif.com/" style="fill-rule:evenodd;clip-rule:evenodd;stroke-linejoin:round;stroke-miterlimit:2;"><path d="M162.654,102.039l-153.386,0c-4.014,0 -7.268,-3.254 -7.268,-7.268l0,-85.503c0,-4.014 3.254,-7.268 7.268,-7.268l153.386,0c4.013,0 7.267,3.254 7.267,7.268l0,85.503c0,4.014 -3.254,7.268 -7.267,7.268Z" style="fill:url(#_Linear1);"/><path d="M162.654,104.038l0,-3.999l-153.386,0c-1.461,-0.001 -2.765,-0.587 -3.725,-1.543c-0.956,-0.96 -1.542,-2.264 -1.543,-3.725l0,-85.503c0.001,-1.461 0.587,-2.765 1.543,-3.725c0.96,-0.956 2.264,-1.542 3.725,-1.543l153.386,0c1.461,0.001 2.765,0.587 3.725,1.543c0.956,0.96 1.541,2.264 1.542,3.725l0,85.503c-0.001,1.461 -0.586,2.765 -1.542,3.725c-0.96,0.956 -2.264,1.542 -3.725,1.543l0,3.999c5.119,-0.001 9.266,-4.148 9.267,-9.267l0,-85.503c-0.001,-5.119 -4.148,-9.266 -9.267,-9.268l-153.386,0c-5.119,0.002 -9.266,4.149 -9.268,9.268l0,85.503c0.002,5.119 4.149,9.266 9.268,9.267l153.386,0Z" style="fill:#03405e;fill-rule:nonzero;"/><path d="M69.058,112.718c0,13.082 -7.207,24.475 -17.864,30.442c0,3.434 2.784,6.217 6.218,6.217l57.098,0c3.434,0 6.218,-2.783 6.218,-6.217c-10.657,-5.967 -17.864,-17.36 -17.864,-30.442l-33.806,0Z" style="fill:url(#_Linear2);"/><path d="M67.058,112.718c0.001,12.334 -6.792,23.066 -16.841,28.697l-1.023,0.572l0,1.173c0.001,4.539 3.679,8.216 8.218,8.217l57.098,0c4.539,-0.001 8.217,-3.677 8.218,-8.217l0,-1.173l-1.023,-0.572c-10.05,-5.631 -16.842,-16.363 -16.841,-28.697l-4,0c0.001,13.83 7.622,25.883 18.887,32.187l0.977,-1.745l-2,0c-0.001,1.171 -0.469,2.213 -1.235,2.982c-0.77,0.766 -1.812,1.234 -2.983,1.235l-57.098,0c-1.171,-0.001 -2.213,-0.469 -2.982,-1.235c-0.767,-0.769 -1.235,-1.811 -1.236,-2.982l-2,0l0.977,1.745c11.264,-6.304 18.886,-18.357 18.887,-32.187l-4,0Z" style="fill:#03405e;fill-rule:nonzero;"/><path d="M20.311,163.436l131.3,0c1.104,0 2,-0.895 2,-2c0,-1.105 -0.896,-2 -2,-2l-131.3,0c-1.105,0 -2,0.895 -2,2c0,1.105 0.895,2 2,2Z" style="fill:#03405e;fill-rule:nonzero;"/><path d="M136.544,66.078l0,-4l-100.415,0c-2.732,-0.001 -5.186,-1.102 -6.979,-2.891c-1.789,-1.793 -2.889,-4.247 -2.89,-6.979l0,-3.057c0.001,-2.732 1.101,-5.186 2.89,-6.979c1.793,-1.789 4.247,-2.889 6.979,-2.89l100.415,0c2.732,0.001 5.187,1.101 6.98,2.891c1.789,1.792 2.89,4.247 2.891,6.978l0,3.057c-0.001,2.732 -1.102,5.186 -2.891,6.979c-1.793,1.789 -4.248,2.89 -6.98,2.891l0,4c7.661,-0.002 13.869,-6.209 13.871,-13.87l0,-3.057c-0.002,-7.66 -6.21,-13.868 -13.871,-13.869l-100.415,0c-7.661,0.001 -13.868,6.209 -13.869,13.869l0,3.057c0.001,7.66 6.208,13.868 13.869,13.87l100.415,0Z" style="fill:#03405e;fill-rule:nonzero;"/><path d="M156.297,64.523c0,24.831 -20.13,44.961 -44.962,44.961c-24.831,0 -44.961,-20.13 -44.961,-44.961c0,-24.832 20.13,-44.962 44.961,-44.962c24.832,0 44.962,20.13 44.962,44.962Z" style="fill:url(#_Linear3);"/><path d="M158.297,64.523l-4,0c-0.001,11.869 -4.805,22.597 -12.583,30.378c-7.781,7.777 -18.508,12.582 -30.379,12.583c-11.869,-0.001 -22.597,-4.806 -30.378,-12.583c-7.778,-7.781 -12.582,-18.509 -12.583,-30.378c0.001,-11.87 4.806,-22.598 12.583,-30.379c7.781,-7.778 18.509,-12.582 30.378,-12.583c11.871,0.001 22.598,4.805 30.379,12.583c7.778,7.781 12.582,18.509 12.583,30.379l4,0c-0.001,-25.937 -21.024,-46.961 -46.962,-46.962c-25.936,0.001 -46.96,21.025 -46.961,46.962c0.001,25.936 21.025,46.96 46.961,46.961c25.938,-0.001 46.961,-21.025 46.962,-46.961Z" style="fill:#03405e;fill-rule:nonzero;"/><path d="M144.73,102.921l44.236,44.237l2.829,-2.829l-44.237,-44.236" style="fill:#03405e;fill-rule:nonzero;"/><path d="M195.299,146.626l-4.036,4.036c-1.858,1.859 -4.873,1.859 -6.732,0l-31.989,-31.989c-1.859,-1.859 -1.859,-4.874 0,-6.732l4.036,-4.036c1.859,-1.86 4.874,-1.86 6.733,0l31.988,31.988c1.86,1.859 1.86,4.874 0,6.733Z" style="fill:url(#_Linear4);"/><path d="M195.299,146.626l-1.414,-1.414l-4.036,4.035c-0.544,0.543 -1.239,0.807 -1.952,0.809c-0.713,-0.002 -1.408,-0.266 -1.952,-0.809l-31.988,-31.988c-0.543,-0.544 -0.807,-1.239 -0.809,-1.952c0.002,-0.714 0.266,-1.408 0.808,-1.951l4.036,-4.037c0.544,-0.543 1.239,-0.807 1.952,-0.809c0.714,0.002 1.408,0.266 1.953,0.809l31.988,31.988c0.543,0.545 0.807,1.239 0.809,1.953c-0.002,0.713 -0.266,1.408 -0.809,1.952l1.414,1.414l1.415,1.415c1.316,-1.315 1.982,-3.058 1.98,-4.781c0.002,-1.724 -0.664,-3.466 -1.98,-4.781l-31.989,-31.988c-1.315,-1.317 -3.057,-1.983 -4.781,-1.981c-1.723,-0.002 -3.466,0.664 -4.781,1.981l-4.035,4.036c-1.316,1.314 -1.982,3.056 -1.98,4.78c-0.002,1.723 0.664,3.465 1.98,4.78l31.989,31.989c1.315,1.316 3.057,1.982 4.78,1.98c1.724,0.002 3.466,-0.664 4.781,-1.981l4.035,-4.034l-1.414,-1.415Z" style="fill:#03405e;fill-rule:nonzero;"/><path d="M139.872,43.736l-8.651,0l-5.283,22.643c-0.349,1.336 -0.697,3.135 -1.103,5.342c-0.407,2.206 -0.755,4.006 -0.929,5.515c-0.232,-1.567 -0.523,-3.367 -0.929,-5.515c-0.349,-2.149 -0.697,-3.716 -0.987,-4.761l-6.038,-23.224l-8.303,0l-6.038,23.224c-0.348,1.219 -0.755,3.019 -1.161,5.283c-0.407,2.206 -0.639,3.89 -0.755,4.993c-0.407,-3.077 -1.103,-6.677 -2.032,-10.857l-5.284,-22.643l-8.65,0l10.566,41.454l9.987,0l5.573,-21.714c0.291,-0.987 0.639,-2.554 1.045,-4.819c0.465,-2.264 0.755,-3.948 0.871,-4.935c0.058,0.813 0.349,2.439 0.871,4.877c0.523,2.439 0.871,4.064 1.045,4.819l5.632,21.772l9.986,0l10.567,-41.454Z" style="fill:#03405e;fill-rule:nonzero;"/><path d="M54.513,57.319l3.593,-12.494l-3.341,0l-1.488,5.538c-0.068,0.32 -0.206,0.961 -0.366,1.899c-0.183,0.916 -0.297,1.671 -0.366,2.197l-0.069,0c0,-0.206 -0.023,-0.48 -0.091,-0.824c-0.046,-0.366 -0.092,-0.709 -0.16,-1.075c-0.046,-0.366 -0.115,-0.687 -0.183,-1.007c-0.046,-0.32 -0.092,-0.572 -0.138,-0.732l-1.464,-5.996l-3.753,0l-1.533,5.996l-0.183,0.938c-0.229,1.236 -0.366,2.128 -0.389,2.7l-0.069,0c-0.229,-1.739 -0.48,-3.112 -0.709,-4.096l-1.442,-5.538l-3.387,0l3.547,12.494l3.662,0l2.288,-9.885l0.068,0l1.305,5.515l0.961,4.37l3.707,0Z" style="fill:#03405e;fill-rule:nonzero;"/><defs><linearGradient id="_Linear1" x1="0" y1="0" x2="1" y2="0" gradientUnits="userSpaceOnUse" gradientTransform="matrix(167.921,0,0,167.921,2,52.019)"><stop offset="0" style="stop-color:#e5f2f8;stop-opacity:1"/><stop offset="1" style="stop-color:#fff;stop-opacity:1"/></linearGradient><linearGradient id="_Linear2" x1="0" y1="0" x2="1" y2="0" gradientUnits="userSpaceOnUse" gradientTransform="matrix(69.5334,0,0,69.5334,51.194,131.048)"><stop offset="0" style="stop-color:#e7f4f9;stop-opacity:1"/><stop offset="1" style="stop-color:#fff;stop-opacity:1"/></linearGradient><linearGradient id="_Linear3" x1="0" y1="0" x2="1" y2="0" gradientUnits="userSpaceOnUse" gradientTransform="matrix(89.923,0,0,89.923,66.374,64.523)"><stop offset="0" style="stop-color:#e7f4f9;stop-opacity:1"/><stop offset="1" style="stop-color:#fff;stop-opacity:1"/></linearGradient><linearGradient id="_Linear4" x1="0" y1="0" x2="1" y2="0" gradientUnits="userSpaceOnUse" gradientTransform="matrix(45.5458,0,0,45.5458,151.148,129.283)"><stop offset="0" style="stop-color:#e7f4f9;stop-opacity:1"/><stop offset="1" style="stop-color:#fff;stop-opacity:1"/></linearGradient></defs></svg>