<?xml version="1.0" encoding="UTF-8" standalone="no"?><!DOCTYPE svg PUBLIC "-//W3C//DTD SVG 1.1//EN" "http://www.w3.org/Graphics/SVG/1.1/DTD/svg11.dtd"><svg width="100%" height="100%" viewBox="0 0 204 188" version="1.1" xmlns="http://www.w3.org/2000/svg" xmlns:xlink="http://www.w3.org/1999/xlink" xml:space="preserve" xmlns:serif="http://www.serif.com/" style="fill-rule:evenodd;clip-rule:evenodd;stroke-linejoin:round;stroke-miterlimit:2;"><path d="M126,64c0,34.242 -27.758,62 -62,62c-34.241,0 -62,-27.758 -62,-62c0,-34.241 27.759,-62 62,-62c34.242,0 62,27.759 62,62Z" style="fill:url(#_Linear1);"/><path d="M128,64l-4,0c-0.001,16.575 -6.712,31.563 -17.573,42.426c-10.865,10.861 -25.852,17.573 -42.427,17.574c-16.574,-0.001 -31.562,-6.713 -42.426,-17.574c-10.861,-10.863 -17.573,-25.851 -17.574,-42.426c0.001,-16.574 6.713,-31.562 17.574,-42.426c10.864,-10.861 25.852,-17.573 42.426,-17.574c16.575,0.001 31.562,6.713 42.427,17.574c10.861,10.864 17.572,25.851 17.573,42.426l4,0c-0.001,-35.347 -28.653,-63.998 -64,-64c-35.346,0.002 -63.998,28.653 -64,64c0.002,35.348 28.654,63.999 64,64c35.347,-0.001 63.999,-28.652 64,-64Z" style="fill:#03405e;fill-rule:nonzero;"/><path d="M110.586,116.414l61,61l2.829,-2.828l-61,-61" style="fill:#03405e;fill-rule:nonzero;"/><path d="M30.275,51.822c0.147,-0.716 0.537,-1.402 1.339,-2.127c1.191,-1.08 3.317,-2.103 6.14,-2.788c2.82,-0.692 6.316,-1.073 10.23,-1.072c4.479,0 9.508,0.495 14.74,1.545c8.296,1.661 15.588,4.427 20.675,7.502c2.543,1.532 4.529,3.145 5.805,4.649c0.64,0.75 1.102,1.469 1.392,2.119c0.291,0.652 0.413,1.225 0.413,1.739c0,0.207 -0.02,0.407 -0.06,0.606l3.923,0.785c0.092,-0.46 0.137,-0.926 0.137,-1.391c0,-1.161 -0.281,-2.299 -0.762,-3.373c-0.848,-1.882 -2.281,-3.599 -4.139,-5.227c-2.794,-2.434 -6.586,-4.67 -11.112,-6.613c-4.525,-1.94 -9.783,-3.574 -15.485,-4.718c-5.479,-1.099 -10.755,-1.623 -15.527,-1.623c-5.564,0.005 -10.434,0.7 -14.218,2.114c-1.892,0.713 -3.523,1.608 -4.821,2.767c-1.293,1.151 -2.255,2.622 -2.592,4.319l3.922,0.787Z" style="fill:#03405e;fill-rule:nonzero;"/><path d="M27.38,66.248c0.147,-0.716 0.538,-1.401 1.34,-2.126c1.19,-1.081 3.316,-2.104 6.139,-2.788c2.82,-0.692 6.316,-1.073 10.23,-1.072c4.479,-0.001 9.508,0.495 14.741,1.545c8.295,1.66 15.587,4.426 20.675,7.501c2.543,1.533 4.528,3.145 5.805,4.649c0.64,0.751 1.101,1.47 1.391,2.119c0.291,0.652 0.413,1.225 0.414,1.739c-0.001,0.207 -0.02,0.407 -0.06,0.606l3.922,0.785c0.092,-0.459 0.138,-0.926 0.137,-1.391c0.001,-1.161 -0.281,-2.299 -0.762,-3.373c-0.847,-1.881 -2.28,-3.599 -4.139,-5.226c-2.793,-2.434 -6.585,-4.67 -11.111,-6.614c-4.526,-1.939 -9.784,-3.573 -15.486,-4.717c-5.479,-1.099 -10.755,-1.623 -15.527,-1.623c-5.564,0.004 -10.434,0.699 -14.218,2.114c-1.891,0.712 -3.522,1.607 -4.82,2.766c-1.293,1.151 -2.256,2.622 -2.593,4.319l3.922,0.787Z" style="fill:#03405e;fill-rule:nonzero;"/><path d="M24.659,79.813c0.147,-0.716 0.537,-1.401 1.339,-2.126c1.19,-1.081 3.316,-2.103 6.139,-2.788c2.82,-0.692 6.316,-1.073 10.23,-1.072c4.479,0 9.508,0.495 14.741,1.545c8.296,1.661 15.588,4.427 20.675,7.502c2.543,1.532 4.528,3.145 5.805,4.649c0.64,0.75 1.102,1.469 1.392,2.119c0.291,0.652 0.413,1.224 0.413,1.738c0,0.207 -0.02,0.408 -0.06,0.607l3.922,0.785c0.093,-0.46 0.138,-0.926 0.138,-1.392c0,-1.16 -0.281,-2.298 -0.762,-3.372c-0.848,-1.882 -2.281,-3.599 -4.14,-5.227c-2.793,-2.434 -6.585,-4.67 -11.111,-6.613c-4.525,-1.94 -9.784,-3.574 -15.485,-4.718c-5.48,-1.099 -10.756,-1.622 -15.528,-1.623c-5.564,0.005 -10.434,0.7 -14.218,2.114c-1.891,0.713 -3.522,1.608 -4.82,2.767c-1.293,1.151 -2.255,2.621 -2.592,4.318l3.922,0.787Z" style="fill:#03405e;fill-rule:nonzero;"/><path d="M57.74,83.762l-4.451,-0.893c-6.62,-1.328 -10.909,-7.77 -9.582,-14.39l4.177,-20.815c1.328,-6.62 7.771,-10.91 14.39,-9.582l4.451,0.894c6.62,1.327 10.909,7.77 9.581,14.39l-4.176,20.815c-1.328,6.62 -7.77,10.909 -14.39,9.581Z" style="fill:url(#_Linear2);"/><path d="M57.74,83.762l0.393,-1.961l-4.45,-0.893c-2.436,-0.489 -4.479,-1.794 -5.93,-3.582c-1.448,-1.789 -2.287,-4.049 -2.287,-6.43c0,-0.666 0.066,-1.343 0.202,-2.024l4.177,-20.815c0.49,-2.436 1.795,-4.478 3.582,-5.929c1.788,-1.449 4.048,-2.287 6.429,-2.287c0.666,0 1.343,0.066 2.024,0.202l4.452,0.893c2.435,0.49 4.478,1.795 5.928,3.582c1.449,1.789 2.287,4.049 2.287,6.43c0,0.666 -0.065,1.343 -0.202,2.025l-4.176,20.815c-0.489,2.435 -1.794,4.478 -3.582,5.928c-1.788,1.449 -4.048,2.288 -6.43,2.287c-0.666,0 -1.342,-0.065 -2.024,-0.202l-0.393,1.961l-0.394,1.961c0.942,0.189 1.883,0.28 2.811,0.28c3.324,0 6.468,-1.169 8.948,-3.179c2.481,-2.008 4.31,-4.877 4.986,-8.249l4.176,-20.816c0.189,-0.942 0.28,-1.883 0.28,-2.811c0,-3.324 -1.169,-6.468 -3.179,-8.948c-2.008,-2.481 -4.877,-4.31 -8.25,-4.985l-4.451,-0.893c-0.941,-0.189 -1.883,-0.281 -2.811,-0.281c-3.324,0.001 -6.467,1.169 -8.947,3.18c-2.481,2.008 -4.31,4.877 -4.986,8.249l-4.177,20.815c-0.188,0.942 -0.28,1.883 -0.28,2.811c0.001,3.324 1.169,6.467 3.18,8.948c2.008,2.481 4.877,4.311 8.25,4.986l4.45,0.893l0.394,-1.961Z" style="fill:#03405e;fill-rule:nonzero;"/><path d="M149.311,91.433c-0.223,-0.34 -0.357,-0.752 -0.361,-1.384c-0.006,-0.843 0.294,-2.049 0.977,-3.445c1.016,-2.099 2.855,-4.603 5.343,-7.147c2.487,-2.548 5.619,-5.149 9.209,-7.539c3.795,-2.528 7.612,-4.491 11.075,-5.809c3.458,-1.321 6.576,-1.98 8.86,-1.974c1.128,-0.002 2.04,0.159 2.679,0.408c0.645,0.254 1.001,0.553 1.241,0.908l3.329,-2.217c-0.756,-1.142 -1.885,-1.947 -3.129,-2.422c-1.25,-0.481 -2.632,-0.676 -4.12,-0.677c-3.008,0.005 -6.499,0.8 -10.283,2.236c-3.78,1.439 -7.839,3.535 -11.869,6.218c-5.08,3.384 -9.318,7.166 -12.346,10.844c-1.514,1.841 -2.728,3.657 -3.587,5.422c-0.854,1.767 -1.373,3.489 -1.379,5.194c-0.004,1.257 0.312,2.526 1.031,3.6l3.33,-2.216Z" style="fill:#03405e;fill-rule:nonzero;"/><path d="M155.608,100.891c-0.222,-0.34 -0.356,-0.752 -0.36,-1.383c-0.006,-0.844 0.294,-2.049 0.977,-3.446c1.016,-2.099 2.855,-4.602 5.343,-7.146c2.487,-2.548 5.619,-5.15 9.209,-7.539c3.795,-2.528 7.612,-4.492 11.074,-5.809c3.458,-1.321 6.577,-1.981 8.86,-1.975c1.128,-0.002 2.041,0.159 2.679,0.409c0.646,0.254 1.002,0.553 1.241,0.908l3.33,-2.217c-0.757,-1.142 -1.885,-1.947 -3.129,-2.423c-1.251,-0.48 -2.633,-0.675 -4.121,-0.677c-3.008,0.006 -6.498,0.801 -10.283,2.237c-3.779,1.439 -7.838,3.535 -11.868,6.217c-5.081,3.385 -9.318,7.167 -12.346,10.845c-1.514,1.841 -2.728,3.657 -3.587,5.422c-0.854,1.766 -1.373,3.489 -1.379,5.194c-0.004,1.256 0.312,2.525 1.031,3.599l3.33,-2.216l-0.001,0Z" style="fill:#03405e;fill-rule:nonzero;"/><path d="M161.53,109.785c-0.222,-0.34 -0.356,-0.752 -0.36,-1.384c-0.006,-0.843 0.294,-2.048 0.977,-3.445c1.016,-2.099 2.854,-4.603 5.343,-7.146c2.487,-2.548 5.619,-5.15 9.209,-7.539c3.795,-2.528 7.612,-4.492 11.074,-5.809c3.458,-1.321 6.576,-1.981 8.86,-1.975c1.128,-0.002 2.041,0.159 2.679,0.409c0.646,0.254 1.001,0.553 1.241,0.908l3.33,-2.217c-0.757,-1.142 -1.885,-1.947 -3.129,-2.423c-1.251,-0.48 -2.633,-0.675 -4.121,-0.677c-3.008,0.006 -6.498,0.801 -10.283,2.237c-3.779,1.439 -7.839,3.535 -11.868,6.217c-5.081,3.385 -9.318,7.167 -12.347,10.845c-1.513,1.841 -2.727,3.656 -3.586,5.422c-0.854,1.766 -1.374,3.488 -1.379,5.193c-0.004,1.257 0.312,2.526 1.031,3.6l3.329,-2.216Z" style="fill:#03405e;fill-rule:nonzero;"/><path d="M184.128,92.294l-8.428,5.612c-2.819,1.877 -6.624,1.113 -8.501,-1.705l-12.756,-19.159c-1.876,-2.818 -1.113,-6.624 1.706,-8.5l8.429,-5.612c2.818,-1.877 6.624,-1.113 8.501,1.705l12.754,19.158c1.877,2.819 1.114,6.625 -1.705,8.501Z" style="fill:url(#_Linear3);"/><path d="M184.128,92.294l-1.108,-1.664l-8.429,5.611c-0.71,0.472 -1.495,0.692 -2.283,0.693c-1.343,-0.003 -2.647,-0.643 -3.445,-1.842l-12.755,-19.158c-0.472,-0.71 -0.692,-1.495 -0.693,-2.283c0.003,-1.343 0.643,-2.646 1.842,-3.444l8.429,-5.613c0.71,-0.471 1.495,-0.691 2.283,-0.693c1.343,0.003 2.647,0.644 3.445,1.843l12.755,19.158c0.471,0.71 0.692,1.495 0.693,2.284c-0.003,1.342 -0.644,2.646 -1.842,3.444l1.108,1.664l1.109,1.665c2.349,-1.564 3.628,-4.151 3.625,-6.773c0.001,-1.546 -0.445,-3.122 -1.364,-4.501l-12.755,-19.158c-1.565,-2.349 -4.151,-3.629 -6.774,-3.626c-1.546,-0.001 -3.121,0.445 -4.5,1.364l-8.429,5.612c-2.349,1.564 -3.628,4.152 -3.625,6.774c-0.001,1.546 0.444,3.121 1.363,4.5l12.756,19.158c1.564,2.349 4.151,3.628 6.774,3.625c1.546,0.001 3.121,-0.444 4.5,-1.363l8.429,-5.612l-1.109,-1.665Z" style="fill:#03405e;fill-rule:nonzero;"/><path d="M181.059,175.942l-8.117,8.116c-1.859,1.859 -4.873,1.859 -6.733,0l-46.662,-46.662c-1.859,-1.859 -1.859,-4.874 0,-6.733l8.116,-8.117c1.86,-1.858 4.874,-1.858 6.733,0l46.663,46.663c1.858,1.859 1.858,4.874 0,6.733Z" style="fill:url(#_Linear4);"/><path d="M182.473,177.356l-2.828,-2.828l-8.117,8.116c-0.545,0.543 -1.239,0.806 -1.952,0.809c-0.713,-0.003 -1.408,-0.266 -1.952,-0.809l-46.663,-46.662c-0.543,-0.545 -0.806,-1.239 -0.808,-1.952c0.002,-0.714 0.265,-1.408 0.808,-1.953l8.117,-8.116c0.544,-0.543 1.239,-0.807 1.952,-0.809c0.713,0.002 1.408,0.266 1.951,0.808l46.664,46.663c0.542,0.544 0.806,1.239 0.808,1.952c-0.002,0.714 -0.266,1.409 -0.809,1.953l1.415,1.414l1.415,1.414c1.315,-1.315 1.981,-3.057 1.979,-4.781c0.002,-1.723 -0.664,-3.465 -1.979,-4.78l-46.664,-46.663c-1.314,-1.316 -3.057,-1.982 -4.78,-1.98c-1.723,-0.002 -3.465,0.664 -4.781,1.98l-8.116,8.117c-1.316,1.315 -1.983,3.057 -1.98,4.781c-0.003,1.723 0.664,3.465 1.98,4.78l46.662,46.662c1.315,1.317 3.057,1.983 4.781,1.981c1.723,0.002 3.466,-0.664 4.78,-1.981l8.117,-8.116Z" style="fill:#03405e;fill-rule:nonzero;"/><defs><linearGradient id="_Linear1" x1="0" y1="0" x2="1" y2="0" gradientUnits="userSpaceOnUse" gradientTransform="matrix(124,0,0,124,1.99998,64)"><stop offset="0" style="stop-color:#e7f4f9;stop-opacity:1"/><stop offset="1" style="stop-color:#fff;stop-opacity:1"/></linearGradient><linearGradient id="_Linear2" x1="0" y1="0" x2="1" y2="0" gradientUnits="userSpaceOnUse" gradientTransform="matrix(28.4225,5.70219,-5.70219,28.4225,45.796,58.0708)"><stop offset="0" style="stop-color:#e7f4f9;stop-opacity:1"/><stop offset="1" style="stop-color:#fff;stop-opacity:1"/></linearGradient><linearGradient id="_Linear3" x1="0" y1="0" x2="1" y2="0" gradientUnits="userSpaceOnUse" gradientTransform="matrix(18.6352,-12.4073,12.4073,18.6352,160.821,86.6212)"><stop offset="0" style="stop-color:#e7f4f9;stop-opacity:1"/><stop offset="1" style="stop-color:#fff;stop-opacity:1"/></linearGradient><linearGradient id="_Linear4" x1="0" y1="0" x2="1" y2="0" gradientUnits="userSpaceOnUse" gradientTransform="matrix(64.3004,0,0,64.3004,118.153,153.302)"><stop offset="0" style="stop-color:#e7f4f9;stop-opacity:1"/><stop offset="1" style="stop-color:#fff;stop-opacity:1"/></linearGradient></defs></svg>