<?xml version="1.0" encoding="UTF-8" standalone="no"?>
<!DOCTYPE svg PUBLIC "-//W3C//DTD SVG 1.1//EN" "http://www.w3.org/Graphics/SVG/1.1/DTD/svg11.dtd">
<svg width="100%" height="100%" viewBox="0 0 1685 346" version="1.1" xmlns="http://www.w3.org/2000/svg" xmlns:xlink="http://www.w3.org/1999/xlink" xml:space="preserve" xmlns:serif="http://www.serif.com/" style="fill-rule:evenodd;clip-rule:evenodd;stroke-linecap:round;stroke-linejoin:round;stroke-miterlimit:10;">
    <g id="Artboard1" transform="matrix(0.961479,0,0,0.863125,0,0)">
        <rect x="0" y="0" width="1752" height="400" style="fill:none;"/>
        <g transform="matrix(1.04006,0,0,1.15858,-1250.33,-370.228)">
            <g transform="matrix(1,0,0,1,111.051,-1047.86)">
                <path d="M1534.56,1528.38L1540.61,1528.38C1552.06,1528.38 1560.39,1526.01 1565.58,1521.27C1570.77,1516.52 1573.36,1508.92 1573.36,1498.44C1573.36,1488.78 1570.77,1481.73 1565.58,1477.3C1560.39,1472.87 1552.06,1470.65 1540.61,1470.65L1534.56,1470.65L1534.56,1528.38ZM1492.27,1636.19L1492.27,1439.64L1540.61,1439.64C1566.38,1439.64 1585.42,1444.56 1597.73,1454.41C1610.04,1464.25 1616.19,1479.47 1616.19,1500.05C1616.19,1519.12 1609.99,1534.07 1597.6,1544.9C1585.2,1555.73 1568.04,1561.14 1546.11,1561.14L1534.56,1561.14L1534.56,1636.19L1492.27,1636.19Z" style="fill:white;fill-rule:nonzero;"/>
            </g>
            <g transform="matrix(1,0,0,1,111.051,-987.447)">
                <path d="M1673.92,1477.91C1677.77,1465.11 1683.29,1455.53 1690.5,1449.18C1697.7,1442.82 1706.63,1439.64 1717.28,1439.64C1719.7,1439.64 1723.68,1440.09 1729.23,1440.99C1730.31,1441.17 1731.11,1441.3 1731.65,1441.39L1725.88,1482.47C1723.01,1481.31 1720.12,1480.44 1717.22,1479.85C1714.31,1479.27 1711.24,1478.98 1708.02,1478.98C1696.38,1478.98 1688.02,1481.96 1682.91,1487.91C1677.81,1493.86 1675.26,1503.82 1675.26,1517.78L1675.26,1575.78L1637,1575.78L1637,1444.08L1674.72,1444.08L1673.92,1477.91Z" style="fill:white;fill-rule:nonzero;"/>
            </g>
            <g transform="matrix(1,0,0,1,111.051,-982.217)">
                <path d="M1848.58,1504.9C1848.58,1494.16 1845.45,1485.59 1839.19,1479.19C1832.92,1472.79 1824.51,1469.59 1813.95,1469.59C1803.38,1469.59 1795.02,1472.77 1788.84,1479.12C1782.66,1485.48 1779.58,1494.07 1779.58,1504.9C1779.58,1515.64 1782.66,1524.23 1788.84,1530.67C1795.02,1537.12 1803.38,1540.34 1813.95,1540.34C1824.42,1540.34 1832.81,1537.12 1839.12,1530.67C1845.43,1524.23 1848.58,1515.64 1848.58,1504.9ZM1887.52,1505.17C1887.52,1525.39 1880.6,1542.22 1866.77,1555.65C1852.95,1569.07 1835.43,1575.78 1814.21,1575.78C1792.82,1575.78 1775.19,1569.07 1761.32,1555.65C1747.45,1542.22 1740.51,1525.39 1740.51,1505.17C1740.51,1485.03 1747.49,1468.2 1761.45,1454.69C1775.41,1441.17 1793,1434.41 1814.21,1434.41C1835.52,1434.41 1853.06,1441.08 1866.84,1454.42C1880.62,1467.75 1887.52,1484.67 1887.52,1505.17Z" style="fill:white;fill-rule:nonzero;"/>
            </g>
            <g transform="matrix(1,0,0,1,111.051,-1026.78)">
                <path d="M1921.08,1615.11L1921.08,1513.34L1902.69,1513.34L1902.69,1483.41L1921.08,1483.41L1921.08,1439.64L1959.34,1439.64L1959.34,1483.41L1977.73,1483.41L1977.73,1513.34L1959.34,1513.34L1959.34,1615.11L1921.08,1615.11Z" style="fill:white;fill-rule:nonzero;"/>
            </g>
            <g transform="matrix(1,0,0,1,111.051,-982.217)">
                <path d="M2092.12,1491.07C2091.04,1482.75 2088.02,1476.46 2083.06,1472.21C2078.09,1467.96 2071.31,1465.83 2062.72,1465.83C2054.12,1465.83 2047.26,1467.96 2042.11,1472.21C2036.96,1476.46 2033.67,1482.75 2032.24,1491.07L2092.12,1491.07ZM2129.98,1514.16L2031.03,1514.16C2032.55,1523.65 2036,1530.74 2041.37,1535.44C2046.74,1540.14 2054.04,1542.49 2063.25,1542.49C2070.24,1542.49 2076.25,1541.15 2081.31,1538.46C2086.37,1535.78 2090.6,1531.7 2094,1526.24L2124.88,1541.68C2117.72,1553.23 2109.03,1561.8 2098.83,1567.39C2088.63,1572.99 2076.5,1575.78 2062.45,1575.78C2041.15,1575.78 2024.28,1569.43 2011.84,1556.72C1999.39,1544.01 1993.17,1526.92 1993.17,1505.43C1993.17,1484.76 1999.69,1467.75 2012.71,1454.42C2025.73,1441.08 2042.4,1434.41 2062.72,1434.41C2083.66,1434.41 2100.22,1440.66 2112.39,1453.14C2124.56,1465.63 2130.65,1482.66 2130.65,1504.23C2130.65,1505.39 2130.6,1506.67 2130.51,1508.05C2130.43,1509.44 2130.25,1511.48 2129.98,1514.16Z" style="fill:white;fill-rule:nonzero;"/>
            </g>
            <g transform="matrix(1,0,0,1,111.051,-982.217)">
                <path d="M2256.04,1566.65C2250.85,1569.79 2245.39,1572.09 2239.66,1573.57C2233.93,1575.04 2227.67,1575.78 2220.87,1575.78C2200.1,1575.78 2183.19,1569.18 2170.12,1555.98C2157.05,1542.78 2150.52,1525.62 2150.52,1504.49C2150.52,1483.82 2157.1,1466.97 2170.25,1453.95C2183.41,1440.93 2200.46,1434.41 2221.4,1434.41C2228.39,1434.41 2234.65,1435.09 2240.2,1436.43C2245.75,1437.77 2251.03,1439.87 2256.04,1442.74L2255.77,1481.13C2251.75,1477.02 2247.09,1473.84 2241.81,1471.6C2236.53,1469.37 2230.94,1468.25 2225.03,1468.25C2214.29,1468.25 2205.7,1471.54 2199.25,1478.11C2192.81,1484.69 2189.59,1493.4 2189.59,1504.23C2189.59,1515.32 2192.88,1524.16 2199.45,1530.74C2206.03,1537.32 2214.92,1540.61 2226.1,1540.61C2232.28,1540.61 2237.76,1539.49 2242.55,1537.25C2247.34,1535.02 2251.75,1531.52 2255.77,1526.78L2256.04,1566.65Z" style="fill:white;fill-rule:nonzero;"/>
            </g>
            <g transform="matrix(1,0,0,1,111.051,-1026.78)">
                <path d="M2289.61,1615.11L2289.61,1513.34L2271.21,1513.34L2271.21,1483.41L2289.61,1483.41L2289.61,1439.64L2327.87,1439.64L2327.87,1483.41L2346.26,1483.41L2346.26,1513.34L2327.87,1513.34L2327.87,1615.11L2289.61,1615.11Z" style="fill:white;fill-rule:nonzero;"/>
            </g>
            <g transform="matrix(1,0,0,1,111.051,-1047.86)">
                <path d="M2509.91,1439.64L2539.05,1546.24C2540.93,1553.04 2542.67,1560.33 2544.28,1568.12C2545.89,1575.91 2547.42,1584.63 2548.85,1594.3C2549.03,1586.16 2549.63,1578.12 2550.66,1570.2C2551.69,1562.28 2553.23,1554.29 2555.29,1546.24L2580.8,1439.64L2622.28,1439.64L2570.87,1636.19L2530.46,1636.19L2495.28,1510.79C2493.58,1505.07 2492.24,1499.29 2491.25,1493.48C2490.27,1487.66 2489.6,1481.62 2489.24,1475.35C2488.79,1481.98 2488.1,1488.24 2487.16,1494.15C2486.22,1500.05 2484.99,1505.6 2483.47,1510.79L2448.02,1636.19L2407.61,1636.19L2356.19,1439.64L2398.22,1439.64L2424.13,1548.79C2425.56,1555.05 2426.72,1561.83 2427.62,1569.13C2428.51,1576.42 2429.18,1584.37 2429.63,1592.96C2431.33,1581.59 2434.46,1567.18 2439.03,1549.73L2439.7,1546.91L2468.56,1439.64L2509.91,1439.64Z" style="fill:white;fill-rule:nonzero;"/>
            </g>
            <g transform="matrix(1,0,0,1,111.051,-1047.86)">
                <path d="M2691.83,1528.38L2697.87,1528.38C2709.33,1528.38 2717.65,1526.01 2722.84,1521.27C2728.03,1516.52 2730.63,1508.92 2730.63,1498.44C2730.63,1488.78 2728.03,1481.73 2722.84,1477.3C2717.65,1472.87 2709.33,1470.65 2697.87,1470.65L2691.83,1470.65L2691.83,1528.38ZM2649.54,1636.19L2649.54,1439.64L2697.87,1439.64C2723.65,1439.64 2742.69,1444.56 2754.99,1454.41C2767.3,1464.25 2773.45,1479.47 2773.45,1500.05C2773.45,1519.12 2767.26,1534.07 2754.86,1544.9C2742.46,1555.73 2725.3,1561.14 2703.37,1561.14L2691.83,1561.14L2691.83,1636.19L2649.54,1636.19Z" style="fill:white;fill-rule:nonzero;"/>
            </g>
            <g transform="matrix(1,0,0,1,111.051,49.973)">
                <g>
                    <clipPath id="_clip1">
                        <path d="M1334.65,319.85C1402.45,359 1425.72,445.83 1386.57,513.63C1347.43,581.43 1260.6,604.69 1192.8,565.55C1125,526.4 1101.73,439.58 1140.88,371.78C1180.02,303.98 1266.85,280.71 1334.65,319.85Z"/>
                    </clipPath>
                    <g clip-path="url(#_clip1)">
                        <g transform="matrix(1,0,0,1,0,-983.83)">
                            <path d="M1261.43,1461.94C1222.21,1529.87 1135.35,1553.14 1067.43,1513.92L1053.76,1506.03L1069.54,1478.7L1083.2,1486.59C1136.03,1517.09 1203.59,1499 1234.1,1446.16L1249.88,1418.83C1254.24,1411.28 1263.88,1408.69 1271.43,1413.05C1278.99,1417.42 1281.57,1427.06 1277.21,1434.61L1261.43,1461.94Z" style="fill:white;fill-rule:nonzero;"/>
                        </g>
                        <g transform="matrix(1,0,0,1,0,-983.82)">
                            <path d="M1195.21,1387.26C1217,1349.52 1265.25,1336.59 1302.99,1358.38C1340.72,1380.16 1353.66,1428.42 1331.87,1466.16L1316.09,1493.49C1259.44,1591.61 1133.98,1625.23 1035.86,1568.58L1022.2,1560.69L1037.98,1533.36L1051.64,1541.25C1134.65,1589.18 1240.82,1560.74 1288.76,1477.71L1304.54,1450.38C1317.61,1427.75 1309.85,1398.78 1287.21,1385.71C1264.58,1372.65 1235.61,1380.41 1222.54,1403.04L1206.77,1430.37C1184.97,1468.12 1136.72,1481.05 1098.98,1459.25L1085.32,1451.37L1101.1,1424.03L1114.77,1431.92C1137.4,1444.99 1166.36,1437.22 1179.43,1414.59L1195.21,1387.26Z" style="fill:white;fill-rule:nonzero;"/>
                        </g>
                        <g transform="matrix(1,0,0,1,0,-1026.22)">
                            <path d="M1370.75,1567.45C1329.59,1638.76 1260.59,1683.9 1185.42,1697.32L1137.84,1669.85C1219.76,1669.98 1299.52,1627.72 1343.42,1551.67L1359.2,1524.34C1389.7,1471.52 1371.59,1403.95 1318.77,1373.45C1265.95,1342.96 1198.38,1361.06 1167.88,1413.88L1152.1,1441.21L1152.1,1441.22C1147.77,1448.72 1138.05,1451.32 1130.56,1447L1130.54,1446.98C1123.04,1442.66 1120.44,1432.93 1124.76,1425.44C1124.77,1425.44 1124.77,1425.44 1124.77,1425.43L1140.55,1398.1C1179.77,1330.17 1266.62,1306.9 1334.55,1346.12C1402.46,1385.33 1425.75,1472.19 1386.53,1540.12L1370.75,1567.45Z" style="fill:white;fill-rule:nonzero;"/>
                        </g>
                    </g>
                </g>
            </g>
            <g transform="matrix(-0.866023,-0.500004,-0.500004,0.866023,3236.84,-205.056)">
                <circle cx="1263.72" cy="1535.29" r="163.231" style="fill:none;stroke:white;stroke-width:15px;"/>
            </g>
        </g>
    </g>
</svg>
