<?xml version="1.0" encoding="utf-8"?>
<!-- Generator: Adobe Illustrator 23.0.3, SVG Export Plug-In . SVG Version: 6.00 Build 0)  -->
<svg version="1.1" id="Warstwa_1" xmlns="http://www.w3.org/2000/svg" xmlns:xlink="http://www.w3.org/1999/xlink" x="0px" y="0px"
	 viewBox="0 0 224 144" style="enable-background:new 0 0 224 144;" xml:space="preserve">
<style type="text/css">
	.st0{fill:#CED5D8;}
	.st1{fill:#FFFFFF;}
	.st2{fill:#DA8D00;}
	.st3{fill:#F8C527;}
	.st4{fill:#D3D0CF;}
	.st5{fill:#F2F2F2;}
	.st6{fill:url(#SVGID_1_);}
	.st7{fill:url(#SVGID_2_);}
	.st8{fill:#DFE3E5;}
	.st9{fill:url(#SVGID_3_);}
	.st10{fill:url(#SVGID_4_);}
	.st11{fill:#212D60;}
</style>
<ellipse class="st0" cx="113.3" cy="86.4" rx="106.9" ry="57.8"/>
<ellipse class="st1" cx="113.3" cy="83.6" rx="106.9" ry="57.8"/>
<polygon class="st2" points="54.2,104.5 42.3,111.2 30.2,104.1 30.3,101.1 30.4,101.1 30.4,100.9 25,100.9 25,97.8 19.8,97.8 
	19.8,94.7 14.5,94.7 14.6,91.7 9.3,91.6 9.3,88.6 3.7,88.6 1.9,87.5 0,79.5 0,76.5 1,79.4 9.5,78.3 "/>
<polygon class="st3" points="42.4,108.1 30.3,101.1 30.4,97.8 25,97.8 25.2,94.7 19.8,94.7 19.9,91.7 14.6,91.6 14.7,88.6 9.3,88.5 
	9.5,85.5 3.7,85.5 2,84.4 0,76.5 9.5,75.2 54.2,101.4 "/>
<path class="st1" d="M34.3,103.4c1.2-1.7,3-3.3,5.5-4.7c1.7-1,3.6-1.8,5.7-2.4l8.7,5.1l-11.9,6.7L34.3,103.4z"/>
<polygon class="st1" points="0.4,77.8 0,76.5 1.6,76.3 39.4,98.4 37.4,99.5 "/>
<polygon class="st4" points="82.8,114.2 83,109.9 81.6,112.8 "/>
<path class="st2" d="M75.7,103.9c-9.6-5.6-25.2-5.7-34.9-0.2c-3.1,1.8-5.3,3.9-6.4,6.2l-0.8-0.9l-0.1,4.6l0,0
	c0,3.7,2.3,7.3,7.2,10.2c9.6,5.6,25.2,5.7,34.9,0.2C85.2,118.6,85.3,109.6,75.7,103.9z M70.6,116c2.5,1.5,2.5,3.8,0,5.2
	c-2.5,1.4-6.6,1.4-9.1-0.1c-2.5-1.5-2.5-3.8,0-5.2C64.1,114.5,68.1,114.5,70.6,116z"/>
<path class="st5" d="M75.8,99.6c-9.6-5.6-25.2-5.7-34.9-0.2c-9.7,5.5-9.7,14.5-0.1,20.2c9.6,5.6,25.2,5.7,34.9,0.2
	C85.3,114.2,85.4,105.2,75.8,99.6z M70.8,111.6c2.5,1.5,2.5,3.8,0,5.2c-2.5,1.4-6.6,1.4-9.1-0.1c-2.5-1.5-2.5-3.8,0-5.2
	C64.2,110.1,68.3,110.1,70.8,111.6z"/>
<path class="st2" d="M64.4,122.1c2.1,0.3,4.5,0,6.2-0.9c1.8-1,2.3-2.5,1.5-3.8l4.4-3.5c0,0,2.3-2.6,4.6-5.2
	c3.5,5.2,1.7,11.2-5.6,15.4c-3.2,1.8-6.8,2.8-10.8,3.4L64.4,122.1z"/>
<path class="st3" d="M75.8,99.6c-9.6-5.6-25.2-5.7-34.9-0.2c-9.7,5.5-9.7,14.5-0.1,20.2c5.9,3.5,14.1,4.8,21.8,4.1
	c2-0.2,3.9-0.5,5.8-1c2.6-0.7,5.1-1.6,7.3-2.9C85.3,114.2,85.4,105.2,75.8,99.6z M70.8,111.6c2.5,1.5,2.5,3.8,0,5.2
	c-2.5,1.4-6.6,1.4-9.1-0.1c-2.5-1.5-2.5-3.8,0-5.2C64.2,110.1,68.3,110.1,70.8,111.6z"/>
<path class="st1" d="M80.2,109.7c-0.5-2.8-2.6-5.6-6.3-7.7c-8.5-5-22.5-5.1-31.1-0.2c-4.3,2.4-6.4,5.6-6.5,8.9
	c-0.6-3.7,1.5-7.4,6.4-10.2c8.6-4.9,22.5-4.8,31.1,0.2C78.2,103.2,80.3,106.5,80.2,109.7z"/>
<path class="st2" d="M178.2,60.7l3.6,2.1c0.3,0.2,0.4,0.4,0.4,0.6l0-6.3c0-0.2-0.1-0.4-0.4-0.6l-3.6-2.1c-0.3-0.2-0.4-0.4-0.4-0.6
	l0,6.3C177.8,60.3,177.9,60.5,178.2,60.7z"/>
<path class="st2" d="M212.6,63c0.1-0.1,0.2-0.2,0.3-0.3l3.6-2.1c0,0,0,0,0,0c0.1,0,0.1-0.1,0.2-0.1c0,0,0.1-0.1,0.1-0.1c0,0,0,0,0,0
	c0,0,0,0,0,0c0,0,0,0,0,0c0,0,0-0.1,0-0.1c0,0,0-0.1,0-0.1c0,0,0-0.1,0-0.1c0,0,0,0,0,0l0-6.3c0,0.1,0,0.2-0.1,0.3c0,0,0,0,0,0
	c-0.1,0.1-0.2,0.2-0.3,0.3l-3.6,2.1c0,0,0,0,0,0c-0.1,0-0.1,0.1-0.2,0.1c0,0-0.1,0.1-0.1,0.1c0,0,0,0,0,0c0,0,0,0,0,0c0,0,0,0,0,0
	c0,0,0,0.1,0,0.1c0,0,0,0.1,0,0.1c0,0,0,0.1,0,0.1c0,0,0,0,0,0l0,6.3C212.5,63.2,212.5,63.1,212.6,63C212.6,63,212.6,63,212.6,63z"
	/>
<path class="st2" d="M186.7,67.2c0.1-0.2,0.1-0.4,0.2-0.6c0-0.1,0.1-0.1,0.1-0.2c0.1-0.2,0.3-0.5,0.4-0.7c0,0,0,0,0-0.1
	c0.2-0.3,0.4-0.5,0.7-0.8c0,0,0.1-0.1,0.1-0.1c0.2-0.2,0.5-0.4,0.7-0.6c0.1-0.1,0.2-0.1,0.3-0.2c0.2-0.1,0.4-0.2,0.6-0.4
	c0.2-0.1,0.4-0.2,0.6-0.3c0.2-0.1,0.4-0.2,0.7-0.3c0.2-0.1,0.5-0.2,0.8-0.3c0.4-0.1,0.8-0.3,1.3-0.4c0.6-0.1,1.2-0.2,1.7-0.3
	c0.1,0,0.2,0,0.3,0c0.6-0.1,1.2-0.1,1.8-0.1c0.1,0,0.2,0,0.2,0c0.6,0,1.2,0,1.8,0.1c0.1,0,0.1,0,0.2,0c0.6,0.1,1.3,0.2,1.9,0.3
	c0.2,0.1,0.5,0.1,0.7,0.2c0.5,0.1,0.9,0.3,1.3,0.4c0.1,0.1,0.3,0.1,0.4,0.2c0.2,0.1,0.3,0.1,0.5,0.2c0.3,0.1,0.5,0.3,0.8,0.4
	c2.1,1.2,3.2,2.8,3.2,4.5l0-6.3c0-1.6-1.1-3.2-3.2-4.5c-0.2-0.1-0.5-0.3-0.8-0.4c-0.1-0.1-0.2-0.1-0.4-0.2c-0.2-0.1-0.3-0.1-0.5-0.2
	c0,0,0,0,0,0c-0.4-0.2-0.9-0.3-1.3-0.4c-0.1,0-0.1,0-0.2-0.1c-0.2,0-0.3-0.1-0.5-0.1c-0.2-0.1-0.4-0.1-0.7-0.2
	c-0.3-0.1-0.6-0.1-1-0.2c-0.1,0-0.2,0-0.2,0c-0.1,0-0.1,0-0.2,0c-0.2,0-0.3,0-0.5-0.1c-0.3,0-0.7,0-1-0.1c-0.1,0-0.2,0-0.3,0
	c-0.1,0-0.2,0-0.3,0c-0.2,0-0.3,0-0.5,0c-0.4,0-0.7,0-1.1,0.1c-0.1,0-0.1,0-0.2,0c-0.1,0-0.2,0-0.3,0c-0.2,0-0.5,0.1-0.7,0.1
	c-0.3,0.1-0.7,0.1-1,0.2c-0.1,0-0.2,0.1-0.3,0.1l0-4.5l0-3l0,6.3l0,1.2c-0.3,0.1-0.5,0.1-0.8,0.2c-0.1,0-0.2,0.1-0.3,0.1
	c-0.3,0.1-0.5,0.2-0.8,0.3c-0.2,0.1-0.5,0.2-0.7,0.3c-0.2,0.1-0.4,0.2-0.6,0.3c-0.1,0.1-0.3,0.1-0.4,0.2c-0.1,0-0.1,0.1-0.2,0.1
	c-0.1,0.1-0.2,0.1-0.3,0.2c-0.3,0.2-0.5,0.4-0.7,0.6c0,0-0.1,0.1-0.1,0.1c0,0,0,0,0,0c-0.2,0.2-0.5,0.5-0.7,0.7c0,0,0,0,0,0
	c0,0,0,0,0,0.1c-0.1,0.2-0.3,0.4-0.4,0.6c0,0,0,0.1-0.1,0.1c0,0.1-0.1,0.1-0.1,0.2c0,0.1-0.1,0.2-0.1,0.3c0,0.1-0.1,0.2-0.1,0.3
	c0,0.1,0,0.1-0.1,0.2c0,0,0,0.1,0,0.1c0,0.2-0.1,0.4-0.1,0.6c0,0,0,0.1,0,0.1l0,0l0,6.3c0-0.3,0-0.5,0.1-0.8
	C186.7,67.4,186.7,67.3,186.7,67.2z"/>
<path class="st2" d="M221.6,63.9C221.6,63.9,221.6,63.9,221.6,63.9c-0.1,0.1-0.2,0.2-0.3,0.3c0,0,0,0-0.1,0
	c-0.1,0.1-0.2,0.1-0.4,0.2c0,0,0,0-0.1,0c-0.2,0-0.3,0.1-0.5,0.1l-5.1,0c0,0-0.1,0-0.1,0c-0.1,0-0.1,0-0.2,0c-0.1,0-0.1,0-0.2,0
	c0,0,0,0,0,0c0,0,0,0,0,0c-0.1,0-0.2,0-0.2,0.1c0,0,0,0-0.1,0c-0.1,0-0.1,0-0.2,0.1c0,0-0.1,0-0.1,0c0,0-0.1,0-0.1,0.1
	c0,0,0,0-0.1,0c0,0,0,0,0,0c0,0-0.1,0.1-0.1,0.1c0,0,0,0.1-0.1,0.1c0,0,0,0,0,0c0,0.1-0.1,0.1-0.1,0.2c-0.2,0.3-0.3,0.5-0.5,0.8
	c-0.1,0.2-0.3,0.3-0.4,0.5c0,0,0,0,0,0c0,0,0,0.1-0.1,0.1c0,0,0,0,0,0.1c0,0,0,0,0,0c0,0,0,0,0,0c0,0,0,0.1,0,0.1c0,0,0,0.1,0,0.1
	c0,0,0,0,0,0l0,6.2c-0.1,0-0.2,0.1-0.3,0.1c0,0,0,0-0.1,0c-0.2,0-0.3,0.1-0.5,0.1c0,0,0,0,0,0c-0.2,0-0.4,0-0.5-0.1c0,0,0,0,0,0
	c-0.2,0-0.3-0.1-0.5-0.2L207,71c-0.1,0-0.1-0.1-0.2-0.1c0,0-0.1,0-0.2-0.1c0,0,0,0,0,0c0,0,0,0,0,0c0,0-0.1,0-0.2,0c0,0-0.1,0-0.1,0
	c0,0-0.1,0-0.1,0c0,0,0,0,0,0c0,0,0,0,0,0c0,0-0.1,0-0.1,0c0,0-0.1,0-0.1,0c0,0-0.1,0-0.1,0c0,0,0,0,0,0c0,0,0,0,0,0
	c-0.1,0-0.1,0-0.2,0c-0.1,0-0.2,0-0.2,0.1c-0.8,0.2-1.7,0.5-2.6,0.6c-0.1,0-0.2,0-0.3,0.1c0,0,0,0-0.1,0c-0.1,0-0.1,0-0.2,0.1
	c0,0-0.1,0-0.1,0c0,0-0.1,0-0.1,0.1c0,0,0,0-0.1,0c0,0,0,0,0,0c0,0-0.1,0.1-0.1,0.1c0,0,0,0.1-0.1,0.1c0,0,0,0,0,0c0,0,0,0,0,0
	c0,0,0,0.1,0,0.1c0,0,0,0.1,0,0.1c0,0,0,0.1,0,0.1c0,0,0,0,0,0l0,3c0,0.1,0,0.2-0.1,0.3c0,0,0,0,0,0c-0.1,0.1-0.2,0.2-0.3,0.3
	c0,0,0,0-0.1,0c-0.1,0.1-0.2,0.1-0.4,0.2c0,0,0,0-0.1,0c-0.2,0-0.3,0.1-0.5,0.1h-5.5c-0.2,0-0.4,0-0.6-0.1c0,0,0,0,0,0
	c-0.2,0-0.3-0.1-0.5-0.2c-0.3-0.2-0.4-0.4-0.4-0.6l0-3c0-0.2-0.2-0.4-0.4-0.6c-0.1,0-0.1-0.1-0.2-0.1c-0.1,0-0.1,0-0.2-0.1
	c0,0-0.1,0-0.2,0c0,0,0,0-0.1,0c-0.9-0.2-1.8-0.4-2.6-0.6c0,0,0,0,0,0c-0.1,0-0.1,0-0.2,0c0,0-0.1,0-0.1,0c0,0-0.1,0-0.1,0
	c0,0,0,0,0,0c0,0,0,0,0,0c0,0-0.1,0-0.1,0c0,0-0.1,0-0.1,0c0,0-0.1,0-0.1,0c0,0,0,0,0,0c0,0,0,0,0,0c-0.1,0-0.1,0-0.2,0
	c-0.1,0-0.1,0-0.2,0c0,0,0,0-0.1,0c0,0,0,0,0,0c-0.1,0-0.2,0.1-0.3,0.1l-3.6,2.1c-0.1,0.1-0.3,0.1-0.4,0.2c0,0,0,0-0.1,0
	c-0.2,0-0.3,0.1-0.5,0.1c0,0,0,0,0,0c-0.2,0-0.4,0-0.5-0.1c0,0,0,0,0,0c-0.1,0-0.3-0.1-0.4-0.2l0-6.2c0-0.1-0.1-0.3-0.2-0.4
	c-0.4-0.5-0.8-1-1.1-1.5c-0.1-0.1-0.2-0.2-0.4-0.3c-0.1,0-0.1-0.1-0.2-0.1c-0.1,0-0.1,0-0.2-0.1c0,0,0,0-0.1,0c0,0,0,0,0,0
	c0,0,0,0-0.1,0c0,0-0.1,0-0.1,0c0,0-0.1,0-0.1,0c0,0-0.1,0-0.1,0c0,0,0,0-0.1,0h-5.1c-0.2,0-0.4,0-0.6-0.1c0,0,0,0,0,0
	c-0.2,0-0.3-0.1-0.5-0.2c-0.3-0.2-0.4-0.4-0.4-0.6l0-3.2l0,6.3l0,3.2c0,0.2,0.2,0.4,0.4,0.6c0.1,0,0.1,0.1,0.2,0.1
	c0.1,0,0.1,0,0.2,0.1c0,0,0,0,0.1,0c0,0,0,0,0,0c0,0,0,0,0.1,0c0,0,0.1,0,0.1,0c0,0,0.1,0,0.1,0c0,0,0.1,0,0.1,0c0,0,0,0,0.1,0h3.3
	l0,5.8c0,0.2,0.1,0.4,0.4,0.6l3.9,2.3c0.1,0,0.1,0.1,0.2,0.1c0.1,0,0.1,0,0.2,0.1c0,0,0.1,0,0.1,0c0,0,0,0,0,0c0,0,0,0,0,0
	c0,0,0.1,0,0.1,0c0,0,0.1,0,0.1,0c0,0,0.1,0,0.1,0c0,0,0,0,0.1,0c0,0,0,0,0,0c0,0,0.1,0,0.1,0c0.1,0,0.1,0,0.2,0c0.1,0,0.1,0,0.2,0
	c0,0,0.1,0,0.1,0c0,0,0,0,0.1,0c0,0,0.1,0,0.1,0c0.1,0,0.2-0.1,0.3-0.1l3.6-2.1c0.1-0.1,0.2-0.1,0.4-0.1c0,0,0,0,0.1,0
	c0.1,0,0.2-0.1,0.4-0.1c0,0,0,0,0,0c0.1,0,0.3,0,0.4,0c0,0,0,0,0,0c0.1,0,0.3,0,0.4,0.1c0.1,0,0.1,0,0.2,0.1
	c0.6,0.2,1.3,0.3,1.9,0.5c0.2,0,0.3,0.1,0.5,0.1c0.2,0,0.4,0.1,0.6,0.2c0.3,0.2,0.4,0.4,0.4,0.6l0,3c0,0.2,0.2,0.4,0.4,0.6
	c0.1,0,0.1,0.1,0.2,0.1c0.1,0,0.1,0,0.2,0.1v0l0,0v0c0,0,0,0,0.1,0c0,0,0,0,0,0c0,0,0,0,0.1,0c0,0,0.1,0,0.1,0c0,0,0.1,0,0.1,0
	c0,0,0.1,0,0.1,0c0,0,0,0,0.1,0h5.5c0,0,0.1,0,0.1,0c0.1,0,0.1,0,0.2,0c0.1,0,0.1,0,0.2,0c0,0,0.1,0,0.1,0c0,0,0,0,0.1,0
	c0,0,0.1,0,0.1,0c0.1,0,0.2-0.1,0.3-0.1c0,0,0,0,0.1,0c0,0,0,0,0,0c0.1,0,0.1-0.1,0.2-0.1c0,0,0.1-0.1,0.1-0.1c0,0,0,0,0,0
	c0,0,0,0,0,0c0,0,0,0,0-0.1c0,0,0-0.1,0-0.1c0,0,0-0.1,0-0.1c0,0,0-0.1,0-0.1c0,0,0,0,0,0l0-3.1c0-0.1,0-0.1,0-0.2c0,0,0,0,0,0
	c0-0.1,0.1-0.1,0.2-0.2c0,0,0,0,0.1,0c0.1,0,0.1-0.1,0.2-0.1c0,0,0.1,0,0.2-0.1c0.1,0,0.2-0.1,0.3-0.1c0.9-0.2,1.7-0.4,2.6-0.6
	c0.1,0,0.3-0.1,0.4-0.1c0,0,0,0,0,0c0.1,0,0.3,0,0.4,0c0,0,0,0,0,0c0.1,0,0.3,0,0.4,0.1c0,0,0,0,0,0c0.1,0,0.3,0.1,0.4,0.2l3.6,2.1
	c0.1,0,0.1,0.1,0.2,0.1c0.1,0,0.1,0,0.2,0.1c0,0,0.1,0,0.1,0c0,0,0,0,0,0c0,0,0,0,0,0c0,0,0.1,0,0.1,0c0,0,0.1,0,0.1,0
	c0,0,0.1,0,0.1,0c0,0,0,0,0.1,0c0,0,0,0,0,0c0,0,0.1,0,0.1,0c0.1,0,0.1,0,0.2,0c0.1,0,0.1,0,0.2,0c0,0,0.1,0,0.1,0c0,0,0,0,0.1,0
	c0,0,0.1,0,0.1,0c0.1,0,0.2-0.1,0.3-0.1l3.9-2.3c0,0,0,0,0,0c0.1,0,0.1-0.1,0.2-0.1c0,0,0.1-0.1,0.1-0.1c0,0,0,0,0,0c0,0,0,0,0,0
	c0,0,0,0,0,0c0,0,0-0.1,0-0.1c0,0,0-0.1,0-0.1c0,0,0-0.1,0-0.1c0,0,0,0,0,0l0-5.8l3.2,0c0,0,0.1,0,0.1,0c0.1,0,0.1,0,0.2,0
	c0.1,0,0.1,0,0.2,0c0,0,0.1,0,0.1,0c0,0,0,0,0.1,0c0,0,0.1,0,0.1,0c0.1,0,0.2-0.1,0.3-0.1c0,0,0,0,0.1,0c0,0,0,0,0,0
	c0.1,0,0.1-0.1,0.2-0.1c0,0,0.1-0.1,0.1-0.1c0,0,0,0,0,0c0,0,0,0,0,0c0,0,0,0,0-0.1c0,0,0-0.1,0-0.1c0,0,0-0.1,0-0.1
	c0,0,0-0.1,0-0.1c0,0,0,0,0,0l0-6.3C221.7,63.7,221.7,63.8,221.6,63.9z M178.3,70.8C178.3,70.8,178.3,70.8,178.3,70.8l1.4-0.1
	c0.2,0,0.4,0,0.6,0.1c0,0,0,0,0,0c0.2,0,0.3,0.1,0.5,0.2c0.2,0.1,0.3,0.2,0.4,0.3c0.3,0.5,0.6,1,1.1,1.5c0.1,0.1,0.1,0.2,0.1,0.3
	c0,0,0,0-0.1,0L178.3,70.8z M212.7,73.1c-0.1,0-0.1,0-0.2,0.1c0-0.1,0-0.1,0-0.2c0,0,0,0,0,0c0-0.1,0.1-0.1,0.1-0.2
	c0.1-0.1,0.2-0.3,0.3-0.4c0,0,0.1-0.1,0.1-0.1c0.2-0.3,0.4-0.5,0.5-0.8c0,0,0.1-0.1,0.1-0.1c0,0,0-0.1,0-0.1c0-0.1,0.1-0.2,0.2-0.2
	c0,0,0,0,0.1,0c0.1,0,0.1-0.1,0.2-0.1c0.1,0,0.1-0.1,0.2-0.1c0.1,0,0.2-0.1,0.3-0.1c0,0,0,0,0,0c0.1,0,0.3,0,0.5,0h1.6
	c0,0-0.1,0.1-0.1,0.1L212.7,73.1z"/>
<path class="st1" d="M216.6,70.4c0.6,0.3,0.6,0.9,0,1.2l-3.9,2.3c-0.6,0.3-1.5,0.3-2.1,0l-3.6-2.1c-0.4-0.3-1.1-0.3-1.7-0.2
	c-0.8,0.2-1.7,0.5-2.6,0.6c-0.6,0.1-1,0.4-1,0.8l0,3c0,0.5-0.7,0.8-1.5,0.8h-5.5c-0.4,0-0.8-0.1-1-0.2c-0.3-0.2-0.4-0.4-0.4-0.6l0-3
	c0-0.2-0.2-0.4-0.4-0.6c-0.2-0.1-0.4-0.2-0.6-0.2c-0.9-0.2-1.8-0.4-2.6-0.6c-0.6-0.2-1.2-0.1-1.7,0.2l-3.6,2.1
	c-0.6,0.3-1.5,0.3-2.1,0l-3.9-2.3c-0.6-0.3-0.6-0.9,0-1.2l3.6-2.1c0.4-0.3,0.5-0.6,0.3-1c-0.4-0.5-0.8-1-1.1-1.5
	c-0.1-0.1-0.2-0.2-0.4-0.3c-0.3-0.2-0.6-0.2-1-0.2h-5.1c-0.4,0-0.8-0.1-1-0.2c-0.3-0.2-0.4-0.4-0.4-0.6l0-3.2c0-0.5,0.7-0.8,1.5-0.8
	l5.1,0c0.6,0,1.2-0.2,1.4-0.6c0.3-0.5,0.6-1,1.1-1.5c0.3-0.3,0.2-0.7-0.3-1l-3.6-2.1c-0.6-0.3-0.6-0.9,0-1.2l3.9-2.3
	c0.6-0.3,1.5-0.3,2.1,0l3.6,2.1c0.4,0.3,1.1,0.3,1.7,0.2c0.8-0.2,1.7-0.5,2.6-0.6c0.6-0.1,1-0.4,1-0.8l0-3c0-0.5,0.7-0.8,1.5-0.8
	l5.5,0c0.4,0,0.8,0.1,1,0.2c0.3,0.2,0.4,0.4,0.4,0.6l0,3c0,0.2,0.2,0.4,0.4,0.6c0.2,0.1,0.4,0.2,0.6,0.2c0.9,0.2,1.7,0.4,2.6,0.6
	c0.6,0.2,1.2,0.1,1.7-0.2l3.6-2.1c0.6-0.3,1.5-0.3,2.1,0l3.9,2.3c0.6,0.3,0.6,0.9,0,1.2l-3.6,2.1c-0.4,0.3-0.5,0.6-0.3,1
	c0.4,0.5,0.8,1,1.1,1.5c0.1,0.1,0.2,0.2,0.4,0.3c0.3,0.2,0.6,0.2,1,0.2l5.1,0c0.4,0,0.8,0.1,1,0.2c0.3,0.2,0.4,0.4,0.4,0.6l0,3.2
	c0,0.5-0.7,0.8-1.5,0.8h-5.1c-0.6,0-1.2,0.2-1.4,0.6c-0.3,0.5-0.6,1-1.1,1.5c-0.3,0.3-0.2,0.7,0.3,1L216.6,70.4z M201.5,68.6
	c7.6-1.9,8.8-7.3,3.6-10.3c-1-0.6-2.2-1.1-3.7-1.4c-2.5-0.6-5.5-0.6-8,0c-7.6,1.9-8.8,7.3-3.6,10.3c1,0.6,2.2,1.1,3.6,1.4
	C196,69.3,198.9,69.3,201.5,68.6"/>
<path class="st3" d="M216.6,69.6c0.6,0.3,0.6,0.9,0,1.2l-3.9,2.3c-0.6,0.3-1.5,0.3-2.1,0L207,71c-0.4-0.3-1.1-0.3-1.7-0.2
	c-0.8,0.2-1.7,0.5-2.6,0.6c-0.6,0.1-1,0.4-1,0.8l0,3c0,0.5-0.7,0.8-1.5,0.8h-5.5c-0.4,0-0.8-0.1-1-0.2c-0.3-0.2-0.4-0.4-0.4-0.6l0-3
	c0-0.2-0.2-0.4-0.4-0.6c-0.2-0.1-0.4-0.2-0.6-0.2c-0.9-0.2-1.8-0.4-2.6-0.6c-0.6-0.2-1.2-0.1-1.7,0.2l-3.6,2.1
	c-0.6,0.3-1.5,0.3-2.1,0l-3.9-2.3c-0.6-0.3-0.6-0.9,0-1.2l3.6-2.1c0.4-0.3,0.5-0.6,0.3-1c-0.4-0.5-0.8-1-1.1-1.5
	c-0.1-0.1-0.2-0.2-0.4-0.3c-0.3-0.2-0.6-0.2-1-0.2h-5.1c-0.4,0-0.8-0.1-1-0.2c-0.3-0.2-0.4-0.4-0.4-0.6l0-3.2c0-0.5,0.7-0.8,1.5-0.8
	l5.1,0c0.6,0,1.2-0.2,1.4-0.6c0.3-0.5,0.6-1,1.1-1.5c0.3-0.3,0.2-0.7-0.3-1l-3.6-2.1c-0.6-0.3-0.6-0.9,0-1.2l3.9-2.3
	c0.6-0.3,1.5-0.3,2.1,0l3.6,2.1c0.4,0.3,1.1,0.3,1.7,0.2c0.8-0.2,1.7-0.5,2.6-0.6c0.6-0.1,1-0.4,1-0.8l0-3c0-0.5,0.7-0.8,1.5-0.8
	l5.5,0c0.4,0,0.8,0.1,1,0.2c0.3,0.2,0.4,0.4,0.4,0.6l0,3c0,0.2,0.2,0.4,0.4,0.6c0.2,0.1,0.4,0.2,0.6,0.2c0.9,0.2,1.7,0.4,2.6,0.6
	c0.6,0.2,1.2,0.1,1.7-0.2l3.6-2.1c0.6-0.3,1.5-0.3,2.1,0l3.9,2.3c0.6,0.3,0.6,0.9,0,1.2l-3.6,2.1c-0.4,0.3-0.5,0.6-0.3,1
	c0.4,0.5,0.8,1,1.1,1.5c0.1,0.1,0.2,0.2,0.4,0.3c0.3,0.2,0.6,0.2,1,0.2l5.1,0c0.4,0,0.8,0.1,1,0.2c0.3,0.2,0.4,0.4,0.4,0.6l0,3.2
	c0,0.5-0.7,0.8-1.5,0.8h-5.1c-0.6,0-1.2,0.2-1.4,0.6c-0.3,0.5-0.6,1-1.1,1.5c-0.3,0.3-0.2,0.7,0.3,1L216.6,69.6z M201.5,67.9
	c7.6-1.9,8.8-7.3,3.6-10.3c-1-0.6-2.2-1.1-3.7-1.4c-2.5-0.6-5.5-0.6-8,0c-7.6,1.9-8.8,7.3-3.6,10.3c1,0.6,2.2,1.1,3.6,1.4
	C196,68.5,198.9,68.5,201.5,67.9"/>
<linearGradient id="SVGID_1_" gradientUnits="userSpaceOnUse" x1="142.8944" y1="36.9004" x2="142.8944" y2="58.3154">
	<stop  offset="6.411980e-02" style="stop-color:#EAEAF9"/>
	<stop  offset="7.992705e-02" style="stop-color:#D2D5E0"/>
	<stop  offset="0.1062" style="stop-color:#AFB6BC"/>
	<stop  offset="0.1202" style="stop-color:#A2AAAE"/>
</linearGradient>
<path class="st6" d="M141.7,41.9l2.4,1.4c0.2,0.1,0.3,0.2,0.3,0.4l0-4.1c0-0.1-0.1-0.3-0.3-0.4l-2.4-1.4c-0.2-0.1-0.3-0.3-0.3-0.4
	l0,4.1C141.4,41.6,141.5,41.8,141.7,41.9z"/>
<path class="st2" d="M164.1,43.4c0-0.1,0.1-0.1,0.2-0.2l2.4-1.4c0,0,0,0,0,0c0,0,0.1-0.1,0.1-0.1c0,0,0,0,0.1-0.1c0,0,0,0,0,0
	c0,0,0,0,0,0c0,0,0,0,0,0c0,0,0,0,0-0.1c0,0,0,0,0-0.1c0,0,0,0,0-0.1c0,0,0,0,0,0l0-4.1c0,0.1,0,0.1-0.1,0.2c0,0,0,0,0,0
	c0,0.1-0.1,0.1-0.2,0.2l-2.4,1.4c0,0,0,0,0,0c0,0-0.1,0.1-0.1,0.1c0,0,0,0-0.1,0.1c0,0,0,0,0,0c0,0,0,0,0,0c0,0,0,0,0,0
	c0,0,0,0,0,0.1c0,0,0,0,0,0.1c0,0,0,0,0,0.1c0,0,0,0,0,0l0,4.1C164,43.6,164,43.5,164.1,43.4C164.1,43.4,164.1,43.4,164.1,43.4z"/>
<path class="st2" d="M147.3,46.2c0-0.1,0.1-0.3,0.1-0.4c0,0,0-0.1,0.1-0.1c0.1-0.2,0.2-0.3,0.3-0.5c0,0,0,0,0,0
	c0.1-0.2,0.3-0.3,0.5-0.5c0,0,0.1,0,0.1-0.1c0.1-0.1,0.3-0.2,0.5-0.4c0.1,0,0.1-0.1,0.2-0.1c0.1-0.1,0.3-0.2,0.4-0.2
	c0.1-0.1,0.3-0.1,0.4-0.2c0.1-0.1,0.3-0.1,0.4-0.2c0.2-0.1,0.3-0.1,0.5-0.2c0.3-0.1,0.5-0.2,0.9-0.3c0.4-0.1,0.8-0.2,1.1-0.2
	c0.1,0,0.1,0,0.2,0c0.4,0,0.8-0.1,1.2-0.1c0.1,0,0.1,0,0.2,0c0.4,0,0.8,0,1.2,0.1c0,0,0.1,0,0.1,0c0.4,0.1,0.8,0.1,1.2,0.2
	c0.2,0,0.3,0.1,0.5,0.1c0.3,0.1,0.6,0.2,0.9,0.3c0.1,0,0.2,0.1,0.3,0.1c0.1,0,0.2,0.1,0.3,0.1c0.2,0.1,0.3,0.2,0.5,0.3
	c1.4,0.8,2.1,1.9,2.1,2.9l0-4.1c0-1.1-0.7-2.1-2.1-2.9c-0.2-0.1-0.3-0.2-0.5-0.3c-0.1,0-0.2-0.1-0.2-0.1c-0.1,0-0.2-0.1-0.3-0.1
	c0,0,0,0,0,0c-0.3-0.1-0.6-0.2-0.9-0.3c0,0-0.1,0-0.1,0c-0.1,0-0.2-0.1-0.3-0.1c-0.1,0-0.3-0.1-0.4-0.1c-0.2,0-0.4-0.1-0.6-0.1
	c-0.1,0-0.1,0-0.2,0c0,0-0.1,0-0.1,0c-0.1,0-0.2,0-0.3,0c-0.2,0-0.4,0-0.6,0c-0.1,0-0.1,0-0.2,0c-0.1,0-0.1,0-0.2,0
	c-0.1,0-0.2,0-0.3,0c-0.2,0-0.5,0-0.7,0c0,0-0.1,0-0.1,0c-0.1,0-0.2,0-0.2,0c-0.2,0-0.3,0-0.5,0.1c-0.2,0-0.4,0.1-0.7,0.1
	c-0.1,0-0.1,0-0.2,0l0-2.9l0-1.9l0,4.1l0,0.8c-0.2,0-0.3,0.1-0.5,0.1c-0.1,0-0.1,0-0.2,0.1c-0.2,0.1-0.3,0.1-0.5,0.2
	c-0.1,0.1-0.3,0.1-0.4,0.2c-0.1,0.1-0.3,0.1-0.4,0.2c-0.1,0-0.2,0.1-0.3,0.1c-0.1,0-0.1,0.1-0.1,0.1c-0.1,0-0.1,0.1-0.2,0.1
	c-0.2,0.1-0.3,0.2-0.5,0.4c0,0-0.1,0-0.1,0.1c0,0,0,0,0,0c-0.2,0.2-0.3,0.3-0.4,0.5c0,0,0,0,0,0c0,0,0,0,0,0
	c-0.1,0.1-0.2,0.2-0.2,0.4c0,0,0,0.1,0,0.1c0,0,0,0.1-0.1,0.1c0,0.1-0.1,0.1-0.1,0.2c0,0.1,0,0.1-0.1,0.2c0,0,0,0.1,0,0.1
	c0,0,0,0,0,0.1c0,0.1,0,0.3,0,0.4c0,0,0,0,0,0.1l0,0l0,4.1c0-0.2,0-0.4,0.1-0.5C147.2,46.3,147.2,46.2,147.3,46.2z"/>
<path class="st2" d="M170,44C170,44,170,44,170,44c-0.1,0.1-0.1,0.1-0.2,0.2c0,0,0,0,0,0c-0.1,0-0.2,0.1-0.2,0.1c0,0,0,0,0,0
	c-0.1,0-0.2,0-0.3,0h-3.3c0,0,0,0-0.1,0c0,0-0.1,0-0.1,0c0,0-0.1,0-0.1,0c0,0,0,0,0,0c0,0,0,0,0,0c-0.1,0-0.1,0-0.1,0c0,0,0,0,0,0
	c0,0-0.1,0-0.1,0c0,0,0,0-0.1,0c0,0,0,0-0.1,0c0,0,0,0,0,0c0,0,0,0,0,0c0,0,0,0-0.1,0.1c0,0,0,0,0,0.1c0,0,0,0,0,0
	c0,0-0.1,0.1-0.1,0.1c-0.1,0.2-0.2,0.3-0.3,0.5c-0.1,0.1-0.2,0.2-0.3,0.3c0,0,0,0,0,0c0,0,0,0,0,0.1c0,0,0,0,0,0c0,0,0,0,0,0
	c0,0,0,0,0,0c0,0,0,0,0,0.1c0,0,0,0,0,0.1c0,0,0,0,0,0l0,4.1c-0.1,0-0.1,0.1-0.2,0.1c0,0,0,0,0,0c-0.1,0-0.2,0-0.3,0c0,0,0,0,0,0
	c-0.1,0-0.2,0-0.3,0c0,0,0,0,0,0c-0.1,0-0.2-0.1-0.3-0.1l-2.4-1.4c0,0-0.1,0-0.1-0.1c0,0-0.1,0-0.1,0c0,0,0,0,0,0c0,0,0,0,0,0
	c0,0-0.1,0-0.1,0c0,0-0.1,0-0.1,0c0,0,0,0-0.1,0c0,0,0,0,0,0c0,0,0,0,0,0c0,0-0.1,0-0.1,0c0,0-0.1,0-0.1,0c0,0-0.1,0-0.1,0
	c0,0,0,0,0,0c0,0,0,0,0,0c0,0-0.1,0-0.1,0c0,0-0.1,0-0.1,0c-0.5,0.2-1.1,0.3-1.7,0.4c-0.1,0-0.1,0-0.2,0c0,0,0,0,0,0
	c0,0-0.1,0-0.1,0c0,0,0,0-0.1,0c0,0,0,0-0.1,0c0,0,0,0,0,0c0,0,0,0,0,0c0,0,0,0-0.1,0.1c0,0,0,0,0,0.1c0,0,0,0,0,0l0,0
	c0,0,0,0,0,0.1c0,0,0,0,0,0.1c0,0,0,0,0,0.1c0,0,0,0,0,0l0,2c0,0.1,0,0.1-0.1,0.2c0,0,0,0,0,0c0,0.1-0.1,0.1-0.2,0.2c0,0,0,0,0,0
	c-0.1,0-0.2,0.1-0.3,0.1c0,0,0,0,0,0c-0.1,0-0.2,0-0.3,0h-3.6c-0.1,0-0.3,0-0.4,0c0,0,0,0,0,0c-0.1,0-0.2-0.1-0.3-0.1
	c-0.2-0.1-0.3-0.2-0.3-0.4l0-1.9c0-0.2-0.1-0.3-0.3-0.4c0,0-0.1,0-0.1-0.1c0,0-0.1,0-0.1,0c0,0-0.1,0-0.1,0c0,0,0,0,0,0
	c-0.6-0.1-1.1-0.2-1.7-0.4c0,0,0,0,0,0c0,0-0.1,0-0.1,0c0,0-0.1,0-0.1,0c0,0-0.1,0-0.1,0c0,0,0,0,0,0c0,0,0,0,0,0c0,0-0.1,0-0.1,0
	c0,0-0.1,0-0.1,0c0,0-0.1,0-0.1,0c0,0,0,0,0,0c0,0,0,0,0,0c0,0-0.1,0-0.1,0c0,0-0.1,0-0.1,0c0,0,0,0,0,0c0,0,0,0,0,0
	c-0.1,0-0.1,0.1-0.2,0.1l-2.4,1.4c-0.1,0-0.2,0.1-0.3,0.1c0,0,0,0,0,0c-0.1,0-0.2,0-0.3,0c0,0,0,0,0,0c-0.1,0-0.2,0-0.3,0
	c0,0,0,0,0,0c-0.1,0-0.2-0.1-0.3-0.1l0-4c0-0.1,0-0.2-0.1-0.2c-0.3-0.3-0.5-0.6-0.7-1c0-0.1-0.1-0.2-0.2-0.2c0,0-0.1,0-0.1-0.1
	c0,0-0.1,0-0.1,0c0,0,0,0,0,0c0,0,0,0,0,0c0,0,0,0,0,0c0,0-0.1,0-0.1,0c0,0-0.1,0-0.1,0c0,0-0.1,0-0.1,0c0,0,0,0,0,0h-3.3
	c-0.1,0-0.3,0-0.4,0c0,0,0,0,0,0c-0.1,0-0.2-0.1-0.3-0.1c-0.2-0.1-0.3-0.2-0.3-0.4l0-2.1l0,4.1l0,2.1c0,0.2,0.1,0.3,0.3,0.4
	c0,0,0.1,0,0.1,0.1c0,0,0.1,0,0.1,0c0,0,0,0,0,0c0,0,0,0,0,0c0,0,0,0,0,0c0,0,0.1,0,0.1,0c0,0,0.1,0,0.1,0c0,0,0.1,0,0.1,0
	c0,0,0,0,0,0h2.2l0,3.7c0,0.1,0.1,0.3,0.3,0.4l2.6,1.5c0,0,0.1,0,0.1,0.1c0,0,0.1,0,0.1,0c0,0,0,0,0.1,0c0,0,0,0,0,0c0,0,0,0,0,0
	c0,0,0.1,0,0.1,0c0,0,0.1,0,0.1,0c0,0,0.1,0,0.1,0c0,0,0,0,0,0c0,0,0,0,0,0c0,0,0,0,0.1,0c0,0,0.1,0,0.1,0c0,0,0.1,0,0.1,0
	c0,0,0,0,0.1,0c0,0,0,0,0,0c0,0,0.1,0,0.1,0c0.1,0,0.1-0.1,0.2-0.1l2.4-1.4c0.1,0,0.1-0.1,0.2-0.1c0,0,0,0,0,0c0.1,0,0.2,0,0.2,0
	c0,0,0,0,0,0c0.1,0,0.2,0,0.3,0c0,0,0,0,0,0c0.1,0,0.2,0,0.3,0.1c0,0,0.1,0,0.1,0c0.4,0.1,0.8,0.2,1.2,0.3c0.1,0,0.2,0,0.3,0.1
	c0.1,0,0.3,0.1,0.4,0.1c0.2,0.1,0.3,0.2,0.3,0.4l0,1.9c0,0.2,0.1,0.3,0.3,0.4c0,0,0.1,0,0.1,0.1c0,0,0.1,0,0.1,0v0l0,0v0
	c0,0,0,0,0,0c0,0,0,0,0,0c0,0,0,0,0,0c0,0,0.1,0,0.1,0c0,0,0.1,0,0.1,0c0,0,0.1,0,0.1,0c0,0,0,0,0,0h3.6c0,0,0,0,0.1,0
	c0,0,0.1,0,0.1,0c0,0,0.1,0,0.1,0c0,0,0,0,0.1,0c0,0,0,0,0,0c0,0,0,0,0.1,0c0.1,0,0.1-0.1,0.2-0.1c0,0,0,0,0,0c0,0,0,0,0,0
	c0,0,0.1-0.1,0.1-0.1c0,0,0,0,0.1-0.1c0,0,0,0,0,0c0,0,0,0,0,0c0,0,0,0,0,0c0,0,0,0,0-0.1c0,0,0,0,0-0.1c0,0,0,0,0-0.1c0,0,0,0,0,0
	l0-2c0,0,0-0.1,0-0.1c0,0,0,0,0,0c0-0.1,0.1-0.1,0.1-0.1c0,0,0,0,0,0c0,0,0.1-0.1,0.1-0.1c0,0,0.1,0,0.1,0c0.1,0,0.1,0,0.2-0.1
	c0.6-0.1,1.1-0.2,1.7-0.4c0.1,0,0.2,0,0.3-0.1c0,0,0,0,0,0c0.1,0,0.2,0,0.3,0c0,0,0,0,0,0c0.1,0,0.2,0,0.3,0.1c0,0,0,0,0,0
	c0.1,0,0.2,0.1,0.2,0.1l2.4,1.4c0,0,0.1,0,0.1,0.1c0,0,0.1,0,0.1,0c0,0,0,0,0.1,0c0,0,0,0,0,0c0,0,0,0,0,0c0,0,0.1,0,0.1,0
	c0,0,0.1,0,0.1,0c0,0,0.1,0,0.1,0c0,0,0,0,0,0c0,0,0,0,0,0c0,0,0,0,0.1,0c0,0,0.1,0,0.1,0c0,0,0.1,0,0.1,0c0,0,0,0,0.1,0
	c0,0,0,0,0,0c0,0,0.1,0,0.1,0c0.1,0,0.1-0.1,0.2-0.1l2.5-1.5c0,0,0,0,0,0c0,0,0.1-0.1,0.1-0.1c0,0,0,0,0.1-0.1c0,0,0,0,0,0
	c0,0,0,0,0,0c0,0,0,0,0,0c0,0,0,0,0-0.1c0,0,0,0,0-0.1c0,0,0,0,0-0.1c0,0,0,0,0,0l0-3.8h2.1c0,0,0,0,0.1,0c0,0,0.1,0,0.1,0
	c0,0,0.1,0,0.1,0c0,0,0,0,0.1,0c0,0,0,0,0,0c0,0,0,0,0.1,0c0.1,0,0.1-0.1,0.2-0.1c0,0,0,0,0,0c0,0,0,0,0,0c0,0,0.1-0.1,0.1-0.1
	c0,0,0,0,0.1-0.1c0,0,0,0,0,0c0,0,0,0,0,0c0,0,0,0,0,0c0,0,0,0,0-0.1c0,0,0,0,0-0.1c0,0,0,0,0-0.1c0,0,0,0,0,0l0-4.1
	C170,43.9,170,44,170,44z M141.8,48.5C141.7,48.5,141.7,48.5,141.8,48.5l0.9-0.1c0.1,0,0.2,0,0.4,0c0,0,0,0,0,0
	c0.1,0,0.2,0.1,0.3,0.1c0.1,0.1,0.2,0.1,0.2,0.2c0.2,0.3,0.4,0.7,0.7,1c0.1,0.1,0.1,0.1,0.1,0.2c0,0,0,0,0,0L141.8,48.5z M164.2,50
	c0,0-0.1,0-0.1,0C164,50,164,50,164.2,50C164.1,49.9,164.1,49.9,164.2,50c-0.1-0.1-0.1-0.1,0-0.2c0.1-0.1,0.1-0.2,0.2-0.3
	c0,0,0-0.1,0.1-0.1c0.1-0.2,0.2-0.3,0.3-0.5c0,0,0-0.1,0.1-0.1c0,0,0,0,0-0.1c0-0.1,0.1-0.1,0.1-0.1c0,0,0,0,0,0
	c0,0,0.1-0.1,0.1-0.1c0,0,0.1,0,0.1,0c0.1,0,0.1,0,0.2-0.1c0,0,0,0,0,0c0.1,0,0.2,0,0.3,0h1c0,0,0,0-0.1,0.1L164.2,50z"/>
<path class="st1" d="M166.7,48.2c0.4,0.2,0.4,0.6,0,0.8l-2.5,1.5c-0.4,0.2-1,0.2-1.3,0l-2.4-1.4c-0.3-0.2-0.7-0.2-1.1-0.1
	c-0.5,0.2-1.1,0.3-1.7,0.4c-0.4,0.1-0.7,0.3-0.7,0.5l0,1.9c0,0.3-0.4,0.6-1,0.6l-3.6,0c-0.3,0-0.5-0.1-0.7-0.2
	c-0.2-0.1-0.3-0.2-0.3-0.4l0-1.9c0-0.2-0.1-0.3-0.3-0.4c-0.1-0.1-0.2-0.1-0.4-0.1c-0.6-0.1-1.1-0.2-1.7-0.4
	c-0.4-0.1-0.8-0.1-1.1,0.1l-2.4,1.4c-0.4,0.2-1,0.2-1.3,0l-2.6-1.5c-0.4-0.2-0.4-0.6,0-0.8l2.4-1.4c0.3-0.2,0.4-0.4,0.2-0.6
	c-0.3-0.3-0.5-0.6-0.7-1c0-0.1-0.1-0.2-0.2-0.2c-0.2-0.1-0.4-0.2-0.7-0.2l-3.3,0c-0.3,0-0.5-0.1-0.7-0.2c-0.2-0.1-0.3-0.2-0.3-0.4
	l0-2.1c0-0.3,0.4-0.6,1-0.6h3.3c0.4,0,0.8-0.2,0.9-0.4c0.2-0.3,0.4-0.7,0.7-1c0.2-0.2,0.1-0.5-0.2-0.6l-2.4-1.4
	c-0.4-0.2-0.4-0.6,0-0.8l2.5-1.5c0.4-0.2,1-0.2,1.3,0l2.4,1.4c0.3,0.2,0.7,0.2,1.1,0.1c0.5-0.2,1.1-0.3,1.7-0.4
	c0.4-0.1,0.7-0.3,0.7-0.5l0-1.9c0-0.3,0.4-0.6,1-0.6l3.6,0c0.3,0,0.5,0.1,0.7,0.2c0.2,0.1,0.3,0.2,0.3,0.4l0,1.9
	c0,0.2,0.1,0.3,0.3,0.4c0.1,0.1,0.2,0.1,0.4,0.1c0.6,0.1,1.1,0.2,1.7,0.4c0.4,0.1,0.8,0.1,1.1-0.1l2.4-1.4c0.4-0.2,1-0.2,1.3,0
	l2.6,1.5c0.4,0.2,0.4,0.6,0,0.8l-2.4,1.4c-0.3,0.2-0.4,0.4-0.2,0.6c0.3,0.3,0.5,0.6,0.7,1c0,0.1,0.1,0.2,0.2,0.2
	c0.2,0.1,0.4,0.2,0.7,0.2l3.3,0c0.3,0,0.5,0.1,0.7,0.2c0.2,0.1,0.3,0.2,0.3,0.4l0,2.1c0,0.3-0.4,0.6-1,0.6h-3.3
	c-0.4,0-0.8,0.2-0.9,0.4c-0.2,0.3-0.4,0.7-0.7,1c-0.2,0.2-0.1,0.5,0.2,0.6L166.7,48.2z M156.8,47c5-1.3,5.7-4.7,2.3-6.7
	c-0.6-0.4-1.4-0.7-2.4-0.9c-1.7-0.4-3.6-0.4-5.2,0c-5,1.3-5.7,4.7-2.3,6.7c0.6,0.4,1.4,0.7,2.4,0.9C153.3,47.5,155.2,47.5,156.8,47"
	/>
<path class="st3" d="M166.7,47.7c0.4,0.2,0.4,0.6,0,0.8l-2.5,1.5c-0.4,0.2-1,0.2-1.3,0l-2.4-1.4c-0.3-0.2-0.7-0.2-1.1-0.1
	c-0.5,0.2-1.1,0.3-1.7,0.4c-0.4,0.1-0.7,0.3-0.7,0.5l0,1.9c0,0.3-0.4,0.6-1,0.6l-3.6,0c-0.3,0-0.5-0.1-0.7-0.2
	c-0.2-0.1-0.3-0.2-0.3-0.4l0-1.9c0-0.2-0.1-0.3-0.3-0.4c-0.1-0.1-0.2-0.1-0.4-0.1c-0.6-0.1-1.1-0.2-1.7-0.4
	c-0.4-0.1-0.8-0.1-1.1,0.1l-2.4,1.4c-0.4,0.2-1,0.2-1.3,0l-2.6-1.5c-0.4-0.2-0.4-0.6,0-0.8l2.4-1.4c0.3-0.2,0.4-0.4,0.2-0.6
	c-0.3-0.3-0.5-0.6-0.7-1c0-0.1-0.1-0.2-0.2-0.2c-0.2-0.1-0.4-0.2-0.7-0.2l-3.3,0c-0.3,0-0.5-0.1-0.7-0.2c-0.2-0.1-0.3-0.2-0.3-0.4
	l0-2.1c0-0.3,0.4-0.6,1-0.6h3.3c0.4,0,0.8-0.2,0.9-0.4c0.2-0.3,0.4-0.7,0.7-1c0.2-0.2,0.1-0.5-0.2-0.6l-2.4-1.4
	c-0.4-0.2-0.4-0.6,0-0.8l2.5-1.5c0.4-0.2,1-0.2,1.3,0l2.4,1.4c0.3,0.2,0.7,0.2,1.1,0.1c0.5-0.2,1.1-0.3,1.7-0.4
	c0.4-0.1,0.7-0.3,0.7-0.5l0-1.9c0-0.3,0.4-0.6,1-0.6l3.6,0c0.3,0,0.5,0.1,0.7,0.2c0.2,0.1,0.3,0.2,0.3,0.4l0,1.9
	c0,0.2,0.1,0.3,0.3,0.4c0.1,0.1,0.2,0.1,0.4,0.1c0.6,0.1,1.1,0.2,1.7,0.4c0.4,0.1,0.8,0.1,1.1-0.1l2.4-1.4c0.4-0.2,1-0.2,1.3,0
	l2.6,1.5c0.4,0.2,0.4,0.6,0,0.8l-2.4,1.4c-0.3,0.2-0.4,0.4-0.2,0.6c0.3,0.3,0.5,0.6,0.7,1c0,0.1,0.1,0.2,0.2,0.2
	c0.2,0.1,0.4,0.2,0.7,0.2l3.3,0c0.3,0,0.5,0.1,0.7,0.2c0.2,0.1,0.3,0.2,0.3,0.4l0,2.1c0,0.3-0.4,0.6-1,0.6h-3.3
	c-0.4,0-0.8,0.2-0.9,0.4c-0.2,0.3-0.4,0.7-0.7,1c-0.2,0.2-0.1,0.5,0.2,0.6L166.7,47.7z M156.8,46.6c5-1.3,5.7-4.7,2.3-6.7
	c-0.6-0.4-1.4-0.7-2.4-0.9c-1.7-0.4-3.6-0.4-5.2,0c-5,1.3-5.7,4.7-2.3,6.7c0.6,0.4,1.4,0.7,2.4,0.9C153.3,47,155.2,47,156.8,46.6"/>
<path class="st2" d="M195.7,90.5l2.4,1.4c0.2,0.1,0.3,0.2,0.3,0.4l0-4.1c0-0.1-0.1-0.3-0.3-0.4l-2.4-1.4c-0.2-0.1-0.3-0.3-0.3-0.4
	l0,4.1C195.4,90.3,195.5,90.4,195.7,90.5z"/>
<path class="st2" d="M218,92.1c0-0.1,0.1-0.1,0.2-0.2l2.4-1.4c0,0,0,0,0,0c0,0,0.1-0.1,0.1-0.1c0,0,0,0,0.1-0.1c0,0,0,0,0,0
	c0,0,0,0,0,0c0,0,0,0,0,0c0,0,0,0,0-0.1c0,0,0,0,0-0.1c0,0,0,0,0-0.1c0,0,0,0,0,0l0-4.1c0,0.1,0,0.1-0.1,0.2c0,0,0,0,0,0
	c0,0.1-0.1,0.1-0.2,0.2l-2.4,1.4c0,0,0,0,0,0c0,0-0.1,0.1-0.1,0.1c0,0,0,0-0.1,0.1c0,0,0,0,0,0c0,0,0,0,0,0c0,0,0,0,0,0
	c0,0,0,0,0,0.1c0,0,0,0,0,0.1c0,0,0,0,0,0.1c0,0,0,0,0,0l0,4.1C218,92.2,218,92.1,218,92.1C218,92.1,218,92.1,218,92.1z"/>
<path class="st2" d="M201.2,94.8c0-0.1,0.1-0.3,0.1-0.4c0,0,0-0.1,0.1-0.1c0.1-0.2,0.2-0.3,0.3-0.5c0,0,0,0,0,0
	c0.1-0.2,0.3-0.3,0.5-0.5c0,0,0.1,0,0.1-0.1c0.1-0.1,0.3-0.2,0.5-0.4c0.1,0,0.1-0.1,0.2-0.1c0.1-0.1,0.3-0.2,0.4-0.2
	c0.1-0.1,0.3-0.1,0.4-0.2c0.1-0.1,0.3-0.1,0.4-0.2c0.2-0.1,0.3-0.1,0.5-0.2c0.3-0.1,0.5-0.2,0.9-0.3c0.4-0.1,0.8-0.2,1.1-0.2
	c0.1,0,0.1,0,0.2,0c0.4,0,0.8-0.1,1.2-0.1c0.1,0,0.1,0,0.2,0c0.4,0,0.8,0,1.2,0.1c0,0,0.1,0,0.1,0c0.4,0.1,0.8,0.1,1.2,0.2
	c0.2,0,0.3,0.1,0.5,0.1c0.3,0.1,0.6,0.2,0.9,0.3c0.1,0,0.2,0.1,0.3,0.1c0.1,0,0.2,0.1,0.3,0.1c0.2,0.1,0.3,0.2,0.5,0.3
	c1.4,0.8,2.1,1.9,2.1,2.9l0-4.1c0-1.1-0.7-2.1-2.1-2.9c-0.2-0.1-0.3-0.2-0.5-0.3c-0.1,0-0.2-0.1-0.2-0.1c-0.1,0-0.2-0.1-0.3-0.1
	c0,0,0,0,0,0c-0.3-0.1-0.6-0.2-0.9-0.3c0,0-0.1,0-0.1,0c-0.1,0-0.2-0.1-0.3-0.1c-0.1,0-0.3-0.1-0.4-0.1c-0.2,0-0.4-0.1-0.6-0.1
	c-0.1,0-0.1,0-0.2,0c0,0-0.1,0-0.1,0c-0.1,0-0.2,0-0.3,0c-0.2,0-0.4,0-0.6,0c-0.1,0-0.1,0-0.2,0c-0.1,0-0.1,0-0.2,0
	c-0.1,0-0.2,0-0.3,0c-0.2,0-0.5,0-0.7,0c0,0-0.1,0-0.1,0c-0.1,0-0.2,0-0.2,0c-0.2,0-0.3,0-0.5,0.1c-0.2,0-0.4,0.1-0.7,0.1
	c-0.1,0-0.1,0-0.2,0l0-2.9l0-1.9l0,4.1l0,0.8c-0.2,0-0.3,0.1-0.5,0.1c-0.1,0-0.1,0-0.2,0.1c-0.2,0.1-0.3,0.1-0.5,0.2
	c-0.1,0.1-0.3,0.1-0.4,0.2c-0.1,0.1-0.3,0.1-0.4,0.2c-0.1,0-0.2,0.1-0.3,0.1c-0.1,0-0.1,0.1-0.1,0.1c-0.1,0-0.1,0.1-0.2,0.1
	c-0.2,0.1-0.3,0.2-0.5,0.4c0,0-0.1,0-0.1,0.1c0,0,0,0,0,0c-0.2,0.2-0.3,0.3-0.4,0.5c0,0,0,0,0,0c0,0,0,0,0,0
	c-0.1,0.1-0.2,0.2-0.2,0.4c0,0,0,0.1,0,0.1c0,0,0,0.1-0.1,0.1c0,0.1-0.1,0.1-0.1,0.2c0,0.1,0,0.1-0.1,0.2c0,0,0,0.1,0,0.1
	c0,0,0,0,0,0.1c0,0.1,0,0.3,0,0.4c0,0,0,0,0,0.1l0,0l0,4.1c0-0.2,0-0.4,0.1-0.5C201.2,94.9,201.2,94.9,201.2,94.8z"/>
<path class="st2" d="M223.9,92.7C223.9,92.7,223.9,92.7,223.9,92.7c-0.1,0.1-0.1,0.1-0.2,0.2c0,0,0,0,0,0c-0.1,0-0.2,0.1-0.2,0.1
	c0,0,0,0,0,0c-0.1,0-0.2,0-0.3,0h-3.3c0,0,0,0-0.1,0c0,0-0.1,0-0.1,0c0,0-0.1,0-0.1,0c0,0,0,0,0,0c0,0,0,0,0,0c-0.1,0-0.1,0-0.1,0
	c0,0,0,0,0,0c0,0-0.1,0-0.1,0c0,0,0,0-0.1,0c0,0,0,0-0.1,0c0,0,0,0,0,0c0,0,0,0,0,0c0,0,0,0-0.1,0.1c0,0,0,0,0,0.1c0,0,0,0,0,0
	c0,0-0.1,0.1-0.1,0.1c-0.1,0.2-0.2,0.3-0.3,0.5c-0.1,0.1-0.2,0.2-0.3,0.3c0,0,0,0,0,0c0,0,0,0,0,0.1c0,0,0,0,0,0c0,0,0,0,0,0
	c0,0,0,0,0,0c0,0,0,0,0,0.1c0,0,0,0,0,0.1c0,0,0,0,0,0l0,4.1c-0.1,0-0.1,0.1-0.2,0.1c0,0,0,0,0,0c-0.1,0-0.2,0-0.3,0c0,0,0,0,0,0
	c-0.1,0-0.2,0-0.3,0c0,0,0,0,0,0c-0.1,0-0.2-0.1-0.3-0.1l-2.4-1.4c0,0-0.1,0-0.1-0.1c0,0-0.1,0-0.1,0c0,0,0,0,0,0c0,0,0,0,0,0
	c0,0-0.1,0-0.1,0c0,0-0.1,0-0.1,0c0,0,0,0-0.1,0c0,0,0,0,0,0c0,0,0,0,0,0c0,0-0.1,0-0.1,0c0,0-0.1,0-0.1,0c0,0-0.1,0-0.1,0
	c0,0,0,0,0,0c0,0,0,0,0,0c0,0-0.1,0-0.1,0c0,0-0.1,0-0.1,0c-0.5,0.2-1.1,0.3-1.7,0.4c-0.1,0-0.1,0-0.2,0c0,0,0,0,0,0
	c0,0-0.1,0-0.1,0c0,0,0,0-0.1,0c0,0,0,0-0.1,0c0,0,0,0,0,0c0,0,0,0,0,0c0,0,0,0-0.1,0.1c0,0,0,0,0,0.1c0,0,0,0,0,0l0,0
	c0,0,0,0,0,0.1c0,0,0,0,0,0.1c0,0,0,0,0,0.1c0,0,0,0,0,0l0,2c0,0.1,0,0.1-0.1,0.2c0,0,0,0,0,0c0,0.1-0.1,0.1-0.2,0.2c0,0,0,0,0,0
	c-0.1,0-0.2,0.1-0.3,0.1c0,0,0,0,0,0c-0.1,0-0.2,0-0.3,0h-3.6c-0.1,0-0.3,0-0.4,0c0,0,0,0,0,0c-0.1,0-0.2-0.1-0.3-0.1
	c-0.2-0.1-0.3-0.2-0.3-0.4l0-1.9c0-0.2-0.1-0.3-0.3-0.4c0,0-0.1,0-0.1-0.1c0,0-0.1,0-0.1,0c0,0-0.1,0-0.1,0c0,0,0,0,0,0
	c-0.6-0.1-1.1-0.2-1.7-0.4c0,0,0,0,0,0c0,0-0.1,0-0.1,0c0,0-0.1,0-0.1,0c0,0-0.1,0-0.1,0c0,0,0,0,0,0c0,0,0,0,0,0c0,0-0.1,0-0.1,0
	c0,0-0.1,0-0.1,0c0,0-0.1,0-0.1,0c0,0,0,0,0,0c0,0,0,0,0,0c0,0-0.1,0-0.1,0c0,0-0.1,0-0.1,0c0,0,0,0,0,0c0,0,0,0,0,0
	c-0.1,0-0.1,0.1-0.2,0.1l-2.4,1.4c-0.1,0-0.2,0.1-0.3,0.1c0,0,0,0,0,0c-0.1,0-0.2,0-0.3,0c0,0,0,0,0,0c-0.1,0-0.2,0-0.3,0
	c0,0,0,0,0,0c-0.1,0-0.2-0.1-0.3-0.1l0-4c0-0.1,0-0.2-0.1-0.2c-0.3-0.3-0.5-0.6-0.7-1c0-0.1-0.1-0.2-0.2-0.2c0,0-0.1,0-0.1-0.1
	c0,0-0.1,0-0.1,0c0,0,0,0,0,0c0,0,0,0,0,0c0,0,0,0,0,0c0,0-0.1,0-0.1,0c0,0-0.1,0-0.1,0c0,0-0.1,0-0.1,0c0,0,0,0,0,0h-3.3
	c-0.1,0-0.3,0-0.4,0c0,0,0,0,0,0c-0.1,0-0.2-0.1-0.3-0.1c-0.2-0.1-0.3-0.2-0.3-0.4l0-2.1l0,4.1l0,2.1c0,0.2,0.1,0.3,0.3,0.4
	c0,0,0.1,0,0.1,0.1c0,0,0.1,0,0.1,0c0,0,0,0,0,0c0,0,0,0,0,0c0,0,0,0,0,0c0,0,0.1,0,0.1,0c0,0,0.1,0,0.1,0c0,0,0.1,0,0.1,0
	c0,0,0,0,0,0h2.2l0,3.7c0,0.1,0.1,0.3,0.3,0.4l2.6,1.5c0,0,0.1,0,0.1,0.1c0,0,0.1,0,0.1,0c0,0,0,0,0.1,0c0,0,0,0,0,0c0,0,0,0,0,0
	c0,0,0.1,0,0.1,0c0,0,0.1,0,0.1,0c0,0,0.1,0,0.1,0c0,0,0,0,0,0c0,0,0,0,0,0c0,0,0,0,0.1,0c0,0,0.1,0,0.1,0c0,0,0.1,0,0.1,0
	c0,0,0,0,0.1,0c0,0,0,0,0,0c0,0,0.1,0,0.1,0c0.1,0,0.1-0.1,0.2-0.1l2.4-1.4c0.1,0,0.1-0.1,0.2-0.1c0,0,0,0,0,0c0.1,0,0.2,0,0.2,0
	c0,0,0,0,0,0c0.1,0,0.2,0,0.3,0c0,0,0,0,0,0c0.1,0,0.2,0,0.3,0.1c0,0,0.1,0,0.1,0c0.4,0.1,0.8,0.2,1.2,0.3c0.1,0,0.2,0,0.3,0.1
	c0.1,0,0.3,0.1,0.4,0.1c0.2,0.1,0.3,0.2,0.3,0.4l0,1.9c0,0.2,0.1,0.3,0.3,0.4c0,0,0.1,0,0.1,0.1c0,0,0.1,0,0.1,0v0l0,0v0
	c0,0,0,0,0,0c0,0,0,0,0,0c0,0,0,0,0,0c0,0,0.1,0,0.1,0c0,0,0.1,0,0.1,0c0,0,0.1,0,0.1,0c0,0,0,0,0,0h3.6c0,0,0,0,0.1,0
	c0,0,0.1,0,0.1,0c0,0,0.1,0,0.1,0c0,0,0,0,0.1,0c0,0,0,0,0,0c0,0,0,0,0.1,0c0.1,0,0.1-0.1,0.2-0.1c0,0,0,0,0,0c0,0,0,0,0,0
	c0,0,0.1-0.1,0.1-0.1c0,0,0,0,0.1-0.1c0,0,0,0,0,0c0,0,0,0,0,0c0,0,0,0,0,0c0,0,0,0,0-0.1c0,0,0,0,0-0.1s0,0,0-0.1c0,0,0,0,0,0l0-2
	c0,0,0-0.1,0-0.1c0,0,0,0,0,0c0-0.1,0.1-0.1,0.1-0.1c0,0,0,0,0,0c0,0,0.1-0.1,0.1-0.1c0,0,0.1,0,0.1,0c0.1,0,0.1,0,0.2-0.1
	c0.6-0.1,1.1-0.2,1.7-0.4c0.1,0,0.2,0,0.3-0.1c0,0,0,0,0,0c0.1,0,0.2,0,0.3,0c0,0,0,0,0,0c0.1,0,0.2,0,0.3,0.1c0,0,0,0,0,0
	c0.1,0,0.2,0.1,0.2,0.1l2.4,1.4c0,0,0.1,0,0.1,0.1c0,0,0.1,0,0.1,0c0,0,0,0,0.1,0c0,0,0,0,0,0c0,0,0,0,0,0c0,0,0.1,0,0.1,0
	c0,0,0.1,0,0.1,0c0,0,0.1,0,0.1,0c0,0,0,0,0,0c0,0,0,0,0,0c0,0,0,0,0.1,0c0,0,0.1,0,0.1,0c0,0,0.1,0,0.1,0c0,0,0,0,0.1,0
	c0,0,0,0,0,0c0,0,0.1,0,0.1,0c0.1,0,0.1-0.1,0.2-0.1l2.5-1.5c0,0,0,0,0,0c0,0,0.1-0.1,0.1-0.1c0,0,0,0,0.1-0.1c0,0,0,0,0,0
	c0,0,0,0,0,0c0,0,0,0,0,0c0,0,0,0,0-0.1c0,0,0,0,0-0.1c0,0,0,0,0-0.1c0,0,0,0,0,0l0-3.8h2.1c0,0,0,0,0.1,0c0,0,0.1,0,0.1,0
	c0,0,0.1,0,0.1,0c0,0,0,0,0.1,0c0,0,0,0,0,0c0,0,0,0,0.1,0c0.1,0,0.1-0.1,0.2-0.1c0,0,0,0,0,0c0,0,0,0,0,0c0,0,0.1-0.1,0.1-0.1
	c0,0,0,0,0.1-0.1c0,0,0,0,0,0c0,0,0,0,0,0c0,0,0,0,0,0c0,0,0,0,0-0.1c0,0,0,0,0-0.1c0,0,0,0,0-0.1c0,0,0,0,0,0l0-4.1
	C224,92.5,224,92.6,223.9,92.7z M195.7,97.1C195.7,97.1,195.7,97.1,195.7,97.1l0.9-0.1c0.1,0,0.2,0,0.4,0c0,0,0,0,0,0
	c0.1,0,0.2,0.1,0.3,0.1c0.1,0.1,0.2,0.1,0.2,0.2c0.2,0.3,0.4,0.7,0.7,1c0.1,0.1,0.1,0.1,0.1,0.2c0,0,0,0,0,0L195.7,97.1z
	 M218.1,98.6c0,0-0.1,0-0.1,0C218,98.6,218,98.6,218.1,98.6C218,98.6,218,98.6,218.1,98.6c-0.1-0.1-0.1-0.1,0-0.2
	c0.1-0.1,0.1-0.2,0.2-0.3c0,0,0-0.1,0.1-0.1c0.1-0.2,0.2-0.3,0.3-0.5c0,0,0-0.1,0.1-0.1c0,0,0,0,0-0.1c0-0.1,0.1-0.1,0.1-0.1
	c0,0,0,0,0,0c0,0,0.1-0.1,0.1-0.1c0,0,0.1,0,0.1,0c0.1,0,0.1,0,0.2-0.1c0,0,0,0,0,0c0.1,0,0.2,0,0.3,0h1c0,0,0,0-0.1,0.1L218.1,98.6
	z"/>
<path class="st1" d="M220.7,96.8c0.4,0.2,0.4,0.6,0,0.8l-2.5,1.5c-0.4,0.2-1,0.2-1.3,0l-2.4-1.4c-0.3-0.2-0.7-0.2-1.1-0.1
	c-0.5,0.2-1.1,0.3-1.7,0.4c-0.4,0.1-0.7,0.3-0.7,0.5l0,1.9c0,0.3-0.4,0.6-1,0.6l-3.6,0c-0.3,0-0.5-0.1-0.7-0.2
	c-0.2-0.1-0.3-0.2-0.3-0.4l0-1.9c0-0.2-0.1-0.3-0.3-0.4c-0.1-0.1-0.2-0.1-0.4-0.1c-0.6-0.1-1.1-0.2-1.7-0.4
	c-0.4-0.1-0.8-0.1-1.1,0.1l-2.4,1.4c-0.4,0.2-1,0.2-1.3,0l-2.6-1.5c-0.4-0.2-0.4-0.6,0-0.8l2.4-1.4c0.3-0.2,0.4-0.4,0.2-0.6
	c-0.3-0.3-0.5-0.6-0.7-1c0-0.1-0.1-0.2-0.2-0.2c-0.2-0.1-0.4-0.2-0.7-0.2l-3.3,0c-0.3,0-0.5-0.1-0.7-0.2c-0.2-0.1-0.3-0.2-0.3-0.4
	l0-2.1c0-0.3,0.4-0.6,1-0.6h3.3c0.4,0,0.8-0.2,0.9-0.4c0.2-0.3,0.4-0.7,0.7-1c0.2-0.2,0.1-0.5-0.2-0.6l-2.4-1.4
	c-0.4-0.2-0.4-0.6,0-0.8l2.5-1.5c0.4-0.2,1-0.2,1.3,0l2.4,1.4c0.3,0.2,0.7,0.2,1.1,0.1c0.5-0.2,1.1-0.3,1.7-0.4
	c0.4-0.1,0.7-0.3,0.7-0.5l0-1.9c0-0.3,0.4-0.6,1-0.6l3.6,0c0.3,0,0.5,0.1,0.7,0.2c0.2,0.1,0.3,0.2,0.3,0.4l0,1.9
	c0,0.2,0.1,0.3,0.3,0.4c0.1,0.1,0.2,0.1,0.4,0.1c0.6,0.1,1.1,0.2,1.7,0.4c0.4,0.1,0.8,0.1,1.1-0.1l2.4-1.4c0.4-0.2,1-0.2,1.3,0
	l2.6,1.5c0.4,0.2,0.4,0.6,0,0.8l-2.4,1.4c-0.3,0.2-0.4,0.4-0.2,0.6c0.3,0.3,0.5,0.6,0.7,1c0,0.1,0.1,0.2,0.2,0.2
	c0.2,0.1,0.4,0.2,0.7,0.2l3.3,0c0.3,0,0.5,0.1,0.7,0.2c0.2,0.1,0.3,0.2,0.3,0.4l0,2.1c0,0.3-0.4,0.6-1,0.6h-3.3
	c-0.4,0-0.8,0.2-0.9,0.4c-0.2,0.3-0.4,0.7-0.7,1c-0.2,0.2-0.1,0.5,0.2,0.6L220.7,96.8z M210.8,95.7c5-1.3,5.7-4.7,2.3-6.7
	c-0.6-0.4-1.4-0.7-2.4-0.9c-1.7-0.4-3.6-0.4-5.2,0c-5,1.3-5.7,4.7-2.3,6.7c0.6,0.4,1.4,0.7,2.4,0.9
	C207.2,96.1,209.2,96.1,210.8,95.7"/>
<path class="st3" d="M220.7,96.4c0.4,0.2,0.4,0.6,0,0.8l-2.5,1.5c-0.4,0.2-1,0.2-1.3,0l-2.4-1.4c-0.3-0.2-0.7-0.2-1.1-0.1
	c-0.5,0.2-1.1,0.3-1.7,0.4c-0.4,0.1-0.7,0.3-0.7,0.5l0,1.9c0,0.3-0.4,0.6-1,0.6l-3.6,0c-0.3,0-0.5-0.1-0.7-0.2
	c-0.2-0.1-0.3-0.2-0.3-0.4l0-1.9c0-0.2-0.1-0.3-0.3-0.4c-0.1-0.1-0.2-0.1-0.4-0.1c-0.6-0.1-1.1-0.2-1.7-0.4
	c-0.4-0.1-0.8-0.1-1.1,0.1l-2.4,1.4c-0.4,0.2-1,0.2-1.3,0l-2.6-1.5c-0.4-0.2-0.4-0.6,0-0.8l2.4-1.4c0.3-0.2,0.4-0.4,0.2-0.6
	c-0.3-0.3-0.5-0.6-0.7-1c0-0.1-0.1-0.2-0.2-0.2c-0.2-0.1-0.4-0.2-0.7-0.2l-3.3,0c-0.3,0-0.5-0.1-0.7-0.2c-0.2-0.1-0.3-0.2-0.3-0.4
	l0-2.1c0-0.3,0.4-0.6,1-0.6h3.3c0.4,0,0.8-0.2,0.9-0.4c0.2-0.3,0.4-0.7,0.7-1c0.2-0.2,0.1-0.5-0.2-0.6l-2.4-1.4
	c-0.4-0.2-0.4-0.6,0-0.8l2.5-1.5c0.4-0.2,1-0.2,1.3,0l2.4,1.4c0.3,0.2,0.7,0.2,1.1,0.1c0.5-0.2,1.1-0.3,1.7-0.4
	c0.4-0.1,0.7-0.3,0.7-0.5l0-1.9c0-0.3,0.4-0.6,1-0.6l3.6,0c0.3,0,0.5,0.1,0.7,0.2c0.2,0.1,0.3,0.2,0.3,0.4l0,1.9
	c0,0.2,0.1,0.3,0.3,0.4c0.1,0.1,0.2,0.1,0.4,0.1c0.6,0.1,1.1,0.2,1.7,0.4c0.4,0.1,0.8,0.1,1.1-0.1l2.4-1.4c0.4-0.2,1-0.2,1.3,0
	l2.6,1.5c0.4,0.2,0.4,0.6,0,0.8l-2.4,1.4c-0.3,0.2-0.4,0.4-0.2,0.6c0.3,0.3,0.5,0.6,0.7,1c0,0.1,0.1,0.2,0.2,0.2
	c0.2,0.1,0.4,0.2,0.7,0.2l3.3,0c0.3,0,0.5,0.1,0.7,0.2c0.2,0.1,0.3,0.2,0.3,0.4l0,2.1c0,0.3-0.4,0.6-1,0.6h-3.3
	c-0.4,0-0.8,0.2-0.9,0.4c-0.2,0.3-0.4,0.7-0.7,1c-0.2,0.2-0.1,0.5,0.2,0.6L220.7,96.4z M210.8,95.2c5-1.3,5.7-4.7,2.3-6.7
	c-0.6-0.4-1.4-0.7-2.4-0.9c-1.7-0.4-3.6-0.4-5.2,0c-5,1.3-5.7,4.7-2.3,6.7c0.6,0.4,1.4,0.7,2.4,0.9
	C207.2,95.6,209.2,95.6,210.8,95.2"/>
<linearGradient id="SVGID_2_" gradientUnits="userSpaceOnUse" x1="182.6905" y1="92.4231" x2="48.7835" y2="92.4231">
	<stop  offset="6.411980e-02" style="stop-color:#EAEAF9"/>
	<stop  offset="7.992705e-02" style="stop-color:#D2D5E0"/>
	<stop  offset="0.1062" style="stop-color:#AFB6BC"/>
	<stop  offset="0.1202" style="stop-color:#A2AAAE"/>
</linearGradient>
<path class="st7" d="M170.3,95.3c-0.5,1-1.4,1.7-2.5,1.9c-47,7.9-91.6-10.4-111.2-20.2c-1.6-0.8-2.5-2.3-2.7-3.8h-0.1v11.6
	c0,2.1,1.2,3.9,3,4.9c19.5,9.9,63.6,28,110.3,20.1c1.1-0.2,2.1-0.9,2.6-2c2.2-4.6,3.1-9.2,3-13.7c0,0,0.1-7.2,0.1-7.2
	C172.5,89.7,171.6,92.5,170.3,95.3z"/>
<path class="st1" d="M173,78.3c-0.2-1.2-0.4-2.5-0.7-3.7C167.4,55,145,38.3,132.9,30.6c-3.3-2.1-7.6-2.2-11-0.2L65.4,63.1l-9.1,5.3
	c-3.4,2-3.2,6.9,0.2,8.7c19.5,9.8,64.1,28.2,111.2,20.2c1.1-0.2,2-0.9,2.5-1.9c1.4-2.8,2.2-5.6,2.7-8.4c0.1-0.5,0.1-0.9,0.2-1.4
	C173.4,83.1,173.3,80.7,173,78.3z"/>
<path class="st8" d="M173,77c-0.2-1.2-0.4-2.5-0.7-3.7c-4.9-19.7-27.3-36.4-39.4-44.1c-3.3-2.1-7.6-2.2-11-0.2L65.4,61.7L56.3,67
	c-3.4,2-3.2,6.9,0.2,8.7c19.5,9.8,64.1,28.2,111.2,20.2c1.1-0.2,2-0.9,2.5-1.9c1.4-2.8,2.2-5.6,2.7-8.4c0.1-0.5,0.1-0.9,0.2-1.4
	C173.4,81.7,173.3,79.3,173,77z"/>
<linearGradient id="SVGID_3_" gradientUnits="userSpaceOnUse" x1="171.778" y1="74.3629" x2="59.0143" y2="74.3629">
	<stop  offset="6.411980e-02" style="stop-color:#EAEAF9"/>
	<stop  offset="7.992705e-02" style="stop-color:#D2D5E0"/>
	<stop  offset="0.1062" style="stop-color:#AFB6BC"/>
	<stop  offset="0.1202" style="stop-color:#A2AAAE"/>
</linearGradient>
<path class="st9" d="M161.3,76.8c-0.4,0.8-1.2,1.5-2.1,1.6c-39.6,6.7-77.2-8.8-93.6-17c-1.3-0.7-2.1-1.9-2.2-3.2h-0.1v9.8
	c0,1.7,1,3.3,2.5,4.1c16.5,8.3,53.5,23.6,92.9,16.9c0.9-0.2,1.8-0.8,2.2-1.6c1.9-3.9,2.6-7.7,2.5-11.5c0,0,0.1-6.1,0.1-6.1
	C163.2,72.1,162.5,74.4,161.3,76.8z"/>
<path class="st1" d="M163.6,62.5c-0.1-1-0.3-2.1-0.6-3.1c-4.1-16.6-23-30.6-33.2-37.1c-2.8-1.8-6.4-1.9-9.3-0.2L73,49.7l-7.7,4.4
	c-2.8,1.6-2.7,5.8,0.2,7.3c16.4,8.3,54,23.7,93.6,17c0.9-0.2,1.7-0.8,2.1-1.6c1.1-2.4,1.9-4.8,2.2-7.1c0.1-0.4,0.1-0.8,0.2-1.2
	C164,66.5,163.9,64.5,163.6,62.5z"/>
<path class="st8" d="M163.6,61.3c-0.1-1-0.3-2.1-0.6-3.1c-4.1-16.6-23-30.6-33.2-37.1c-2.8-1.8-6.4-1.9-9.3-0.2L73,48.5L65.4,53
	c-2.8,1.6-2.7,5.8,0.2,7.3c16.4,8.3,54,23.7,93.6,17c0.9-0.2,1.7-0.8,2.1-1.6c1.1-2.4,1.9-4.8,2.2-7.1c0.1-0.4,0.1-0.8,0.2-1.2
	C164,65.4,163.9,63.3,163.6,61.3z"/>
<linearGradient id="SVGID_4_" gradientUnits="userSpaceOnUse" x1="162.7986" y1="57.0697" x2="67.4328" y2="57.0697">
	<stop  offset="6.411980e-02" style="stop-color:#EAEAF9"/>
	<stop  offset="7.992705e-02" style="stop-color:#D2D5E0"/>
	<stop  offset="0.1062" style="stop-color:#AFB6BC"/>
	<stop  offset="0.1202" style="stop-color:#A2AAAE"/>
</linearGradient>
<path class="st10" d="M154,59.2c-0.3,0.7-1,1.2-1.8,1.4c-33.5,5.6-65.3-7.4-79.2-14.4c-1.1-0.6-1.8-1.6-1.9-2.7h0v8.3
	c0,1.5,0.8,2.8,2.1,3.5c13.9,7,45.3,19.9,78.6,14.3c0.8-0.1,1.5-0.7,1.8-1.4c1.6-3.3,2.2-6.5,2.1-9.7c0,0,0.1-5.1,0.1-5.1
	C155.5,55.1,154.9,57.1,154,59.2z"/>
<path class="st1" d="M155.9,47c-0.1-0.9-0.3-1.7-0.5-2.6c-3.5-14-19.5-25.9-28.1-31.4c-2.4-1.5-5.4-1.6-7.8-0.2L79.3,36.2l-6.5,3.8
	c-2.4,1.4-2.3,4.9,0.2,6.2c13.9,7,45.7,20.1,79.2,14.4c0.8-0.1,1.5-0.6,1.8-1.4c1-2,1.6-4,1.9-6c0.1-0.3,0.1-0.7,0.1-1
	C156.2,50.4,156.1,48.7,155.9,47z"/>
<path class="st8" d="M155.9,46.1c-0.1-0.9-0.3-1.7-0.5-2.6c-3.5-14-19.5-25.9-28.1-31.4c-2.4-1.5-5.4-1.6-7.8-0.2L79.3,35.2L72.8,39
	c-2.4,1.4-2.3,4.9,0.2,6.2c13.9,7,45.7,20.1,79.2,14.4c0.8-0.1,1.5-0.6,1.8-1.4c1-2,1.6-4,1.9-6c0.1-0.3,0.1-0.7,0.1-1
	C156.2,49.5,156.1,47.7,155.9,46.1z"/>
<path class="st1" d="M99.6,37.8L86.2,30c-1.4-0.8-2.1-2-2.1-3.3c0-1.8,1.4-3.6,3.7-5l7.8-4.5c3.9-2.3,9.5-2.7,12.6-0.9l13.4,7.8
	l-0.9,1.5l-13.4-7.8c-2.5-1.4-7.5-1-10.8,0.9l-7.8,4.5c-1.8,1-2.9,2.3-2.9,3.5c0,0.9,0.7,1.5,1.3,1.8l13.4,7.8L99.6,37.8z"/>
<path class="st3" d="M99.6,36.9l-13.4-7.8c-1.4-0.8-2.1-2-2.1-3.3c0-1.8,1.4-3.6,3.7-5l7.8-4.5c3.9-2.3,9.5-2.7,12.6-0.9l13.4,7.8
	l-0.9,1.5l-13.4-7.8c-2.5-1.4-7.5-1-10.8,0.9l-7.8,4.5c-1.8,1-2.9,2.3-2.9,3.5c0,0.9,0.7,1.5,1.3,1.8l13.4,7.8L99.6,36.9z"/>
<path class="st2" d="M95.7,30.9v12.2c0,0.6,0.3,1.2,0.9,1.5l20.7,12c1.9,1.1,4.2,1.1,6.1,0l20.7-12c0.6-0.3,0.9-1,0.8-1.6h0.1V30.9
	H95.7z"/>
<path class="st1" d="M117.3,44.3l-20.7-12c-1.2-0.7-1.2-2.4,0-3.1l20.9-12.1c1.7-1,3.8-1,5.6,0l21.1,12.2c1.1,0.7,1.1,2.3,0,2.9
	l-20.7,12C121.6,45.4,119.2,45.4,117.3,44.3z"/>
<path class="st3" d="M117.2,43.7L96.8,31.9c-1.2-0.7-1.2-2.3,0-3L117.3,17c1.7-1,3.8-1,5.5,0l20.7,12c1.1,0.6,1.1,2.3,0,2.9
	l-20.3,11.7C121.3,44.7,119,44.7,117.2,43.7z"/>
<path class="st11" d="M113.9,29.8c-2-1.2-2-3.1,0-4.2c2-1.2,5.3-1.2,7.3,0c1.3,0.8,1.8,1.8,1.3,2.8l6.8,3.9c1,0.6,1,1.6,0,2.2
	c-1,0.6-2.7,0.6-3.8,0l-6.7-3.9C117.1,30.8,115.3,30.5,113.9,29.8z"/>
<path class="st2" d="M29.9,17.5L60,0.1c0.6-0.3,1.1-0.4,1.6-0.1c0,0,0,0,0,0l2.9,1.7c0,0-1.3,0.5-2.1,0.7v21.9
	c0,1.8-1.1,3.9-2.4,4.6L31.2,45.5v2.6l-2.9-1.7l0,0c-0.5-0.3-0.8-1-0.8-1.9V22.1C27.4,20.3,28.5,18.2,29.9,17.5z"/>
<path class="st3" d="M32.8,48l30.1-17.4c1.3-0.8,2.4-2.8,2.4-4.6V3.6c0-1.8-1.1-2.6-2.4-1.8L32.8,19.2c-1.3,0.8-2.4,2.8-2.4,4.6
	v22.4C30.4,48,31.5,48.8,32.8,48z"/>
<path class="st1" d="M52.8,22.9c0,1.3,0.9,1.8,2,1.2c1.1-0.6,2-2.2,2-3.5c0-1.3-0.9-1.8-2-1.2C53.7,20.1,52.8,21.6,52.8,22.9z"/>
<path class="st1" d="M46.7,26.5c0,1.3,0.9,1.8,2,1.2c1.1-0.6,2-2.2,2-3.5c0-1.3-0.9-1.8-2-1.2C47.6,23.6,46.7,25.2,46.7,26.5z"/>
<path class="st1" d="M40.5,30c0,1.3,0.9,1.8,2,1.2c1.1-0.6,2-2.2,2-3.5c0-1.3-0.9-1.8-2-1.2C41.4,27.2,40.5,28.7,40.5,30z"/>
</svg>
