<?xml version="1.0" encoding="utf-8"?>
<!-- Generator: Adobe Illustrator 23.0.3, SVG Export Plug-In . SVG Version: 6.00 Build 0)  -->
<svg version="1.1" id="Warstwa_1" xmlns="http://www.w3.org/2000/svg" xmlns:xlink="http://www.w3.org/1999/xlink" x="0px" y="0px"
	 viewBox="0 0 224 144" style="enable-background:new 0 0 224 144;" xml:space="preserve">
<style type="text/css">
	.st0{fill:#CED5D8;}
	.st1{fill:#FFFFFF;}
	.st2{fill:#DA8D00;}
	.st3{fill:#F8C527;}
	.st4{fill:#D3D0CF;}
	.st5{fill:#F2F2F2;}
	.st6{fill:url(#SVGID_1_);}
	.st7{fill:url(#SVGID_2_);}
	.st8{fill:#DFE3E5;}
	.st9{fill:url(#SVGID_3_);}
	.st10{fill:#212D60;}
</style>
<ellipse class="st0" cx="114.5" cy="76.5" rx="108" ry="58.4"/>
<ellipse class="st1" cx="114.5" cy="73.6" rx="108" ry="58.4"/>
<polygon class="st2" points="54.7,94.8 42.8,101.6 30.6,94.4 30.6,91.3 30.7,91.3 30.7,91.1 25.3,91.1 25.3,88 20,88 20,84.9 
	14.7,84.9 14.7,81.8 9.4,81.8 9.4,78.7 3.7,78.7 2,77.6 0,69.6 0,66.4 1,69.4 9.6,68.3 "/>
<polygon class="st3" points="42.8,98.4 30.6,91.3 30.7,88 25.3,88 25.4,84.9 20,84.9 20.1,81.8 14.7,81.8 14.9,78.7 9.4,78.6 
	9.6,75.6 3.8,75.5 2,74.5 0,66.4 9.6,65.2 54.8,91.6 "/>
<path class="st1" d="M34.7,93.7c1.2-1.7,3.1-3.4,5.5-4.8c1.7-1,3.7-1.8,5.7-2.4l8.8,5.2l-12,6.8L34.7,93.7z"/>
<polygon class="st1" points="0.4,67.8 0,66.4 1.6,66.2 39.8,88.6 37.8,89.7 "/>
<polygon class="st4" points="83.7,104.6 83.8,100.2 82.4,103.2 "/>
<path class="st2" d="M76.4,94.2C66.7,88.5,51,88.4,41.2,94c-3.2,1.8-5.3,4-6.4,6.3l-0.8-0.9l-0.1,4.7l0,0c0,3.7,2.4,7.4,7.2,10.3
	c9.7,5.7,25.5,5.8,35.3,0.2C86.1,109,86.2,99.9,76.4,94.2z M71.4,106.3c2.5,1.5,2.5,3.9,0,5.3c-2.5,1.4-6.7,1.4-9.2-0.1
	c-2.5-1.5-2.5-3.9,0-5.3S68.8,104.9,71.4,106.3z"/>
<path class="st5" d="M76.6,89.8c-9.7-5.7-25.5-5.8-35.3-0.2c-9.8,5.6-9.8,14.7-0.1,20.4c9.7,5.7,25.5,5.8,35.3,0.2
	C86.2,104.6,86.3,95.5,76.6,89.8z M71.5,101.9c2.5,1.5,2.5,3.9,0,5.3c-2.5,1.4-6.7,1.4-9.2-0.1c-2.5-1.5-2.5-3.9,0-5.3
	C64.9,100.4,69,100.4,71.5,101.9z"/>
<path class="st2" d="M65.1,112.6c2.2,0.3,4.5,0,6.2-0.9c1.8-1,2.3-2.6,1.6-3.9l4.4-3.5c0,0,2.3-2.6,4.6-5.2
	c3.6,5.2,1.7,11.4-5.6,15.5c-3.2,1.8-6.8,2.9-10.9,3.5L65.1,112.6z"/>
<path class="st3" d="M76.6,89.8c-9.7-5.7-25.5-5.8-35.3-0.2c-9.8,5.6-9.8,14.7-0.1,20.4c6,3.5,14.3,4.9,22.1,4.1c2-0.2,4-0.5,5.8-1
	c2.7-0.7,5.2-1.6,7.4-2.9C86.2,104.6,86.3,95.5,76.6,89.8z M71.5,101.9c2.5,1.5,2.5,3.9,0,5.3c-2.5,1.4-6.7,1.4-9.2-0.1
	c-2.5-1.5-2.5-3.9,0-5.3C64.9,100.4,69,100.4,71.5,101.9z"/>
<path class="st1" d="M81.1,100c-0.5-2.8-2.6-5.6-6.3-7.8C66.1,87.2,52,87.1,43.3,92c-4.3,2.5-6.5,5.7-6.6,9
	c-0.6-3.7,1.5-7.5,6.5-10.3c8.7-4.9,22.8-4.8,31.4,0.2C79,93.4,81.1,96.7,81.1,100z"/>
<path class="st2" d="M180.1,50.5l3.7,2.1c0.3,0.2,0.4,0.4,0.4,0.6l0-6.3c0-0.2-0.1-0.4-0.4-0.6l-3.7-2.1c-0.3-0.2-0.4-0.4-0.4-0.6
	l0,6.3C179.6,50.1,179.8,50.3,180.1,50.5z"/>
<path class="st2" d="M214.8,52.9c0.1-0.1,0.2-0.2,0.3-0.3l3.7-2.1c0,0,0,0,0,0c0.1,0,0.1-0.1,0.2-0.1c0,0,0.1-0.1,0.1-0.1
	c0,0,0,0,0,0c0,0,0,0,0,0c0,0,0,0,0,0c0,0,0-0.1,0-0.1c0,0,0-0.1,0-0.1c0,0,0-0.1,0-0.1c0,0,0,0,0,0l0-6.3c0,0.1,0,0.2-0.1,0.3
	c0,0,0,0,0,0c-0.1,0.1-0.2,0.2-0.3,0.3l-3.7,2.1c0,0,0,0,0,0c-0.1,0-0.1,0.1-0.2,0.1c0,0-0.1,0.1-0.1,0.1c0,0,0,0,0,0c0,0,0,0,0,0
	c0,0,0,0,0,0c0,0,0,0.1,0,0.1c0,0,0,0.1,0,0.1c0,0,0,0.1,0,0.1c0,0,0,0,0,0l0,6.3C214.6,53.1,214.7,53,214.8,52.9
	C214.8,52.9,214.8,52.9,214.8,52.9z"/>
<path class="st2" d="M188.7,57.1c0.1-0.2,0.1-0.4,0.2-0.6c0-0.1,0.1-0.1,0.1-0.2c0.1-0.2,0.3-0.5,0.4-0.7c0,0,0,0,0-0.1
	c0.2-0.3,0.4-0.5,0.7-0.8c0,0,0.1-0.1,0.1-0.1c0.2-0.2,0.5-0.4,0.7-0.6c0.1-0.1,0.2-0.1,0.3-0.2c0.2-0.1,0.4-0.2,0.6-0.4
	c0.2-0.1,0.4-0.2,0.7-0.3c0.2-0.1,0.4-0.2,0.7-0.3c0.2-0.1,0.5-0.2,0.8-0.3c0.4-0.1,0.9-0.3,1.3-0.4c0.6-0.1,1.2-0.2,1.8-0.3
	c0.1,0,0.2,0,0.3,0c0.6-0.1,1.2-0.1,1.8-0.1c0.1,0,0.2,0,0.3,0c0.6,0,1.2,0,1.8,0.1c0.1,0,0.1,0,0.2,0c0.6,0.1,1.3,0.2,1.9,0.4
	c0.2,0.1,0.5,0.1,0.7,0.2c0.5,0.1,0.9,0.3,1.3,0.4c0.1,0.1,0.3,0.1,0.4,0.2c0.2,0.1,0.3,0.1,0.5,0.2c0.3,0.1,0.5,0.3,0.8,0.4
	c2.2,1.2,3.2,2.9,3.2,4.5l0-6.3c0-1.6-1.1-3.3-3.2-4.5c-0.2-0.1-0.5-0.3-0.8-0.4c-0.1-0.1-0.2-0.1-0.4-0.2c-0.2-0.1-0.3-0.1-0.5-0.2
	c0,0,0,0,0,0c-0.4-0.2-0.9-0.3-1.3-0.4c-0.1,0-0.1,0-0.2-0.1c-0.2,0-0.4-0.1-0.5-0.1c-0.2-0.1-0.4-0.1-0.7-0.2
	c-0.3-0.1-0.7-0.1-1-0.2c-0.1,0-0.2,0-0.2,0c-0.1,0-0.1,0-0.2,0c-0.2,0-0.3,0-0.5-0.1c-0.3,0-0.7,0-1-0.1c-0.1,0-0.2,0-0.3,0
	c-0.1,0-0.2,0-0.3,0c-0.2,0-0.3,0-0.5,0c-0.4,0-0.7,0-1.1,0.1c-0.1,0-0.1,0-0.2,0c-0.1,0-0.2,0-0.4,0c-0.2,0-0.5,0.1-0.7,0.1
	c-0.4,0.1-0.7,0.1-1,0.2c-0.1,0-0.2,0.1-0.3,0.1l0-4.5l0-3l0,6.3l0,1.2c-0.3,0.1-0.5,0.1-0.8,0.2c-0.1,0-0.2,0.1-0.3,0.1
	c-0.3,0.1-0.5,0.2-0.8,0.3c-0.2,0.1-0.5,0.2-0.7,0.3c-0.2,0.1-0.4,0.2-0.7,0.3c-0.1,0.1-0.3,0.1-0.4,0.2c-0.1,0-0.1,0.1-0.2,0.1
	c-0.1,0.1-0.2,0.1-0.3,0.2c-0.3,0.2-0.5,0.4-0.7,0.6c0,0-0.1,0.1-0.1,0.1c0,0,0,0,0,0c-0.3,0.2-0.5,0.5-0.7,0.7c0,0,0,0,0,0
	c0,0,0,0,0,0.1c-0.1,0.2-0.3,0.4-0.4,0.6c0,0,0,0.1-0.1,0.1c0,0.1-0.1,0.1-0.1,0.2c0,0.1-0.1,0.2-0.1,0.3c0,0.1-0.1,0.2-0.1,0.3
	c0,0.1,0,0.1-0.1,0.2c0,0,0,0.1,0,0.1c0,0.2-0.1,0.4-0.1,0.6c0,0,0,0.1,0,0.1l0,0l0,6.3c0-0.3,0-0.5,0.1-0.8
	C188.6,57.2,188.6,57.2,188.7,57.1z"/>
<path class="st2" d="M223.9,53.8C223.9,53.8,223.9,53.8,223.9,53.8c-0.1,0.1-0.2,0.2-0.3,0.3c0,0,0,0-0.1,0
	c-0.1,0.1-0.2,0.1-0.4,0.2c0,0,0,0-0.1,0c-0.2,0-0.3,0.1-0.5,0.1l-5.2,0c0,0-0.1,0-0.1,0c-0.1,0-0.1,0-0.2,0c-0.1,0-0.1,0-0.2,0
	c0,0,0,0,0,0c0,0,0,0,0,0c-0.1,0-0.2,0-0.2,0.1c0,0,0,0-0.1,0c-0.1,0-0.1,0-0.2,0.1c0,0-0.1,0-0.1,0c0,0-0.1,0-0.1,0.1
	c0,0,0,0-0.1,0c0,0,0,0,0,0c0,0-0.1,0.1-0.1,0.1c0,0,0,0.1-0.1,0.1c0,0,0,0,0,0c0,0.1-0.1,0.1-0.1,0.2c-0.2,0.3-0.3,0.5-0.5,0.8
	c-0.1,0.2-0.3,0.3-0.4,0.5c0,0,0,0,0,0c0,0,0,0.1-0.1,0.1c0,0,0,0,0,0.1c0,0,0,0,0,0c0,0,0,0,0,0c0,0,0,0.1,0,0.1c0,0,0,0.1,0,0.1
	c0,0,0,0,0,0l0,6.3c-0.1,0-0.2,0.1-0.3,0.1c0,0,0,0-0.1,0c-0.2,0-0.3,0.1-0.5,0.1c0,0,0,0,0,0c-0.2,0-0.4,0-0.5-0.1c0,0,0,0,0,0
	c-0.2,0-0.3-0.1-0.5-0.2l-3.7-2.1c-0.1,0-0.1-0.1-0.2-0.1c0,0-0.1,0-0.2-0.1c0,0,0,0,0,0c0,0,0,0,0,0c-0.1,0-0.1,0-0.2,0
	c0,0-0.1,0-0.1,0c0,0-0.1,0-0.1,0c0,0,0,0,0,0c0,0,0,0,0,0c0,0-0.1,0-0.1,0c0,0-0.1,0-0.2,0c0,0-0.1,0-0.1,0c0,0,0,0,0,0
	c0,0,0,0,0,0c-0.1,0-0.1,0-0.2,0c-0.1,0-0.2,0-0.2,0.1c-0.9,0.3-1.7,0.5-2.6,0.6c-0.1,0-0.2,0-0.3,0.1c0,0,0,0-0.1,0
	c-0.1,0-0.1,0-0.2,0.1c0,0-0.1,0-0.1,0c0,0-0.1,0-0.1,0.1c0,0,0,0-0.1,0c0,0,0,0,0,0c0,0-0.1,0.1-0.1,0.1c0,0,0,0.1-0.1,0.1
	c0,0,0,0,0,0c0,0,0,0,0,0c0,0,0,0.1,0,0.1c0,0,0,0.1,0,0.1c0,0,0,0.1,0,0.1c0,0,0,0,0,0l0,3.1c0,0.1,0,0.2-0.1,0.3c0,0,0,0,0,0
	c-0.1,0.1-0.2,0.2-0.3,0.3c0,0,0,0-0.1,0c-0.1,0.1-0.2,0.1-0.4,0.2c0,0,0,0-0.1,0c-0.2,0-0.3,0.1-0.5,0.1h-5.6c-0.2,0-0.4,0-0.6-0.1
	c0,0,0,0,0,0c-0.2,0-0.3-0.1-0.5-0.2c-0.3-0.2-0.4-0.4-0.4-0.6l0-3c0-0.2-0.2-0.4-0.4-0.6c-0.1,0-0.1-0.1-0.2-0.1
	c-0.1,0-0.1,0-0.2-0.1c0,0-0.1,0-0.2,0c0,0,0,0-0.1,0c-0.9-0.2-1.8-0.4-2.6-0.6c0,0,0,0,0,0c-0.1,0-0.1,0-0.2,0c0,0-0.1,0-0.1,0
	c0,0-0.1,0-0.1,0c0,0,0,0,0,0c0,0,0,0,0,0c0,0-0.1,0-0.1,0c-0.1,0-0.1,0-0.2,0c0,0-0.1,0-0.1,0c0,0,0,0,0,0c0,0,0,0,0,0
	c-0.1,0-0.1,0-0.2,0c-0.1,0-0.1,0-0.2,0c0,0,0,0-0.1,0c0,0,0,0,0,0c-0.1,0-0.2,0.1-0.3,0.1l-3.7,2.1c-0.1,0.1-0.3,0.1-0.5,0.2
	c0,0,0,0-0.1,0c-0.2,0-0.3,0.1-0.5,0.1c0,0,0,0,0,0c-0.2,0-0.4,0-0.5-0.1c0,0,0,0,0,0c-0.1,0-0.3-0.1-0.4-0.2l0-6.3
	c0-0.1-0.1-0.3-0.2-0.4c-0.4-0.5-0.8-1-1.1-1.5c-0.1-0.1-0.2-0.2-0.4-0.3c-0.1,0-0.1-0.1-0.2-0.1c-0.1,0-0.1,0-0.2-0.1
	c0,0,0,0-0.1,0c0,0,0,0,0,0c0,0,0,0-0.1,0c0,0-0.1,0-0.1,0c0,0-0.1,0-0.1,0c0,0-0.1,0-0.1,0c0,0,0,0-0.1,0h-5.2
	c-0.2,0-0.4,0-0.6-0.1c0,0,0,0,0,0c-0.2,0-0.3-0.1-0.5-0.2c-0.3-0.2-0.4-0.4-0.4-0.6l0-3.2l0,6.3l0,3.2c0,0.2,0.2,0.5,0.4,0.6
	c0.1,0,0.1,0.1,0.2,0.1c0.1,0,0.1,0,0.2,0.1c0,0,0,0,0.1,0c0,0,0,0,0,0c0,0,0,0,0.1,0c0,0,0.1,0,0.1,0c0,0,0.1,0,0.1,0
	c0,0,0.1,0,0.1,0c0,0,0,0,0.1,0h3.3l0,5.8c0,0.2,0.1,0.4,0.4,0.6l4,2.3c0.1,0,0.1,0.1,0.2,0.1c0.1,0,0.1,0,0.2,0.1c0,0,0.1,0,0.1,0
	c0,0,0,0,0,0c0,0,0,0,0,0c0,0,0.1,0,0.1,0c0,0,0.1,0,0.1,0c0,0,0.1,0,0.1,0c0,0,0,0,0.1,0c0,0,0,0,0,0c0,0,0.1,0,0.1,0
	c0.1,0,0.1,0,0.2,0c0.1,0,0.1,0,0.2,0c0,0,0.1,0,0.1,0c0,0,0,0,0.1,0c0,0,0.1,0,0.1,0c0.1,0,0.2-0.1,0.3-0.1l3.7-2.1
	c0.1-0.1,0.2-0.1,0.4-0.1c0,0,0,0,0.1,0c0.1,0,0.2-0.1,0.4-0.1c0,0,0,0,0,0c0.1,0,0.3,0,0.4,0c0,0,0,0,0,0c0.1,0,0.3,0,0.4,0.1
	c0.1,0,0.1,0,0.2,0.1c0.6,0.2,1.3,0.3,1.9,0.5c0.2,0,0.3,0.1,0.5,0.1c0.2,0,0.4,0.1,0.6,0.2c0.3,0.2,0.4,0.4,0.4,0.6l0,3
	c0,0.2,0.2,0.5,0.4,0.6c0.1,0,0.1,0.1,0.2,0.1c0.1,0,0.1,0,0.2,0.1v0l0,0v0c0,0,0,0,0.1,0c0,0,0,0,0,0c0,0,0,0,0.1,0
	c0,0,0.1,0,0.1,0c0,0,0.1,0,0.1,0c0,0,0.1,0,0.1,0c0,0,0,0,0.1,0h5.6c0,0,0.1,0,0.1,0c0.1,0,0.1,0,0.2,0c0.1,0,0.1,0,0.2,0
	c0,0,0.1,0,0.1,0c0,0,0,0,0.1,0c0,0,0.1,0,0.1,0c0.1,0,0.2-0.1,0.3-0.1c0,0,0,0,0.1,0c0,0,0,0,0,0c0.1,0,0.1-0.1,0.2-0.1
	c0,0,0.1-0.1,0.1-0.1c0,0,0,0,0,0c0,0,0,0,0,0c0,0,0,0,0-0.1c0,0,0-0.1,0-0.1c0,0,0-0.1,0-0.1c0,0,0-0.1,0-0.1c0,0,0,0,0,0l0-3.1
	c0-0.1,0-0.1,0-0.2c0,0,0,0,0,0c0-0.1,0.1-0.2,0.2-0.2c0,0,0,0,0.1,0c0.1,0,0.1-0.1,0.2-0.1c0.1,0,0.1,0,0.2-0.1
	c0.1,0,0.2-0.1,0.3-0.1c0.9-0.2,1.8-0.4,2.6-0.6c0.1,0,0.3-0.1,0.4-0.1c0,0,0,0,0,0c0.1,0,0.3,0,0.4,0c0,0,0,0,0,0
	c0.1,0,0.3,0,0.4,0.1c0,0,0,0,0,0c0.1,0,0.3,0.1,0.4,0.2l3.7,2.1c0.1,0,0.1,0.1,0.2,0.1c0.1,0,0.1,0,0.2,0.1c0,0,0.1,0,0.1,0
	c0,0,0,0,0,0c0,0,0,0,0,0c0,0,0.1,0,0.1,0c0,0,0.1,0,0.1,0c0,0,0.1,0,0.1,0c0,0,0,0,0.1,0c0,0,0,0,0,0c0,0,0.1,0,0.1,0
	c0.1,0,0.1,0,0.2,0c0.1,0,0.1,0,0.2,0c0,0,0.1,0,0.1,0c0,0,0,0,0.1,0c0,0,0.1,0,0.1,0c0.1,0,0.2-0.1,0.3-0.1l4-2.3c0,0,0,0,0,0
	c0.1,0,0.1-0.1,0.2-0.1c0,0,0.1-0.1,0.1-0.1c0,0,0,0,0,0c0,0,0,0,0,0c0,0,0,0,0,0c0,0,0-0.1,0-0.1c0,0,0-0.1,0-0.1c0,0,0-0.1,0-0.1
	c0,0,0,0,0,0l0-5.8l3.2,0c0,0,0.1,0,0.1,0c0.1,0,0.1,0,0.2,0c0.1,0,0.1,0,0.2,0c0,0,0.1,0,0.1,0c0,0,0,0,0.1,0c0,0,0.1,0,0.1,0
	c0.1,0,0.2-0.1,0.3-0.1c0,0,0,0,0.1,0c0,0,0,0,0,0c0.1,0,0.1-0.1,0.2-0.1c0,0,0.1-0.1,0.1-0.1c0,0,0,0,0,0c0,0,0,0,0,0
	c0,0,0,0,0-0.1c0,0,0-0.1,0-0.1c0,0,0-0.1,0-0.1c0,0,0-0.1,0-0.1c0,0,0,0,0,0l0-6.3C224,53.6,224,53.7,223.9,53.8z M180.2,60.7
	C180.1,60.7,180.1,60.7,180.2,60.7l1.4-0.1c0.2,0,0.4,0,0.6,0.1c0,0,0,0,0,0c0.2,0,0.3,0.1,0.5,0.2c0.2,0.1,0.3,0.2,0.4,0.3
	c0.3,0.5,0.7,1,1.1,1.5c0.1,0.1,0.1,0.2,0.1,0.3c0,0,0,0-0.1,0L180.2,60.7z M214.9,63c-0.1,0-0.1,0-0.2,0.1c0-0.1,0-0.1,0-0.2
	c0,0,0,0,0,0c0-0.1,0.1-0.1,0.1-0.2c0.1-0.1,0.2-0.3,0.3-0.4c0,0,0.1-0.1,0.1-0.1c0.2-0.3,0.4-0.5,0.5-0.8c0,0,0.1-0.1,0.1-0.1
	c0,0,0-0.1,0-0.1c0-0.1,0.1-0.2,0.2-0.2c0,0,0,0,0.1,0c0.1,0,0.1-0.1,0.2-0.1c0.1,0,0.1-0.1,0.2-0.1c0.1,0,0.2-0.1,0.3-0.1
	c0,0,0,0,0,0c0.1,0,0.3,0,0.5,0h1.6c0,0-0.1,0.1-0.1,0.1L214.9,63z"/>
<path class="st1" d="M218.8,60.3c0.6,0.3,0.6,0.9,0,1.2l-4,2.3c-0.6,0.3-1.5,0.3-2.1,0l-3.7-2.1c-0.4-0.3-1.1-0.3-1.7-0.2
	c-0.9,0.3-1.7,0.5-2.6,0.6c-0.6,0.1-1,0.4-1,0.8l0,3c0,0.5-0.7,0.9-1.5,0.9h-5.6c-0.4,0-0.8-0.1-1-0.3c-0.3-0.2-0.4-0.4-0.4-0.6l0-3
	c0-0.2-0.2-0.4-0.4-0.6c-0.2-0.1-0.4-0.2-0.6-0.2c-0.9-0.2-1.8-0.4-2.6-0.6c-0.6-0.2-1.3-0.1-1.7,0.2l-3.7,2.1
	c-0.6,0.3-1.5,0.3-2.1,0l-4-2.3c-0.6-0.3-0.6-0.9,0-1.2l3.7-2.1c0.4-0.3,0.6-0.7,0.3-1c-0.4-0.5-0.8-1-1.1-1.5
	c-0.1-0.1-0.2-0.2-0.4-0.3c-0.3-0.2-0.6-0.2-1-0.2h-5.2c-0.4,0-0.8-0.1-1-0.3c-0.3-0.2-0.4-0.4-0.4-0.6l0-3.2c0-0.5,0.7-0.9,1.5-0.9
	l5.2,0c0.6,0,1.2-0.2,1.4-0.6c0.3-0.5,0.6-1,1.1-1.5c0.3-0.3,0.2-0.7-0.3-1l-3.7-2.1c-0.6-0.3-0.6-0.9,0-1.2l4-2.3
	c0.6-0.3,1.5-0.3,2.1,0l3.7,2.1c0.4,0.3,1.1,0.3,1.7,0.2c0.8-0.2,1.7-0.5,2.6-0.6c0.6-0.1,1-0.4,1-0.8l0-3c0-0.5,0.7-0.9,1.5-0.9
	l5.6,0c0.4,0,0.8,0.1,1,0.3c0.3,0.2,0.4,0.4,0.4,0.6l0,3c0,0.2,0.2,0.4,0.4,0.6c0.2,0.1,0.4,0.2,0.6,0.2c0.9,0.2,1.8,0.4,2.6,0.6
	c0.6,0.2,1.3,0.1,1.7-0.2l3.7-2.1c0.6-0.3,1.5-0.3,2.1,0l4,2.3c0.6,0.3,0.6,0.9,0,1.2l-3.7,2.1c-0.4,0.3-0.6,0.7-0.3,1
	c0.4,0.5,0.8,1,1.1,1.5c0.1,0.1,0.2,0.2,0.4,0.3c0.3,0.2,0.6,0.2,1,0.2l5.2,0c0.4,0,0.8,0.1,1,0.3c0.3,0.2,0.4,0.4,0.4,0.6l0,3.2
	c0,0.5-0.7,0.9-1.5,0.9h-5.2c-0.6,0-1.2,0.2-1.4,0.6c-0.3,0.5-0.6,1-1.1,1.5c-0.3,0.3-0.2,0.7,0.3,1L218.8,60.3z M203.5,58.5
	c7.7-2,8.9-7.3,3.6-10.4c-1-0.6-2.2-1.1-3.7-1.4c-2.6-0.7-5.5-0.7-8.1,0c-7.7,2-8.9,7.3-3.6,10.4c1,0.6,2.2,1.1,3.7,1.4
	C198,59.2,201,59.2,203.5,58.5"/>
<path class="st3" d="M218.8,59.5c0.6,0.3,0.6,0.9,0,1.2l-4,2.3c-0.6,0.3-1.5,0.3-2.1,0l-3.7-2.1c-0.4-0.3-1.1-0.3-1.7-0.2
	c-0.9,0.3-1.7,0.5-2.6,0.6c-0.6,0.1-1,0.4-1,0.8l0,3c0,0.5-0.7,0.9-1.5,0.9h-5.6c-0.4,0-0.8-0.1-1-0.3c-0.3-0.2-0.4-0.4-0.4-0.6l0-3
	c0-0.2-0.2-0.4-0.4-0.6c-0.2-0.1-0.4-0.2-0.6-0.2c-0.9-0.2-1.8-0.4-2.6-0.6c-0.6-0.2-1.3-0.1-1.7,0.2l-3.7,2.1
	c-0.6,0.3-1.5,0.3-2.1,0l-4-2.3c-0.6-0.3-0.6-0.9,0-1.2l3.7-2.1c0.4-0.3,0.6-0.7,0.3-1c-0.4-0.5-0.8-1-1.1-1.5
	c-0.1-0.1-0.2-0.2-0.4-0.3c-0.3-0.2-0.6-0.2-1-0.2h-5.2c-0.4,0-0.8-0.1-1-0.3c-0.3-0.2-0.4-0.4-0.4-0.6l0-3.2c0-0.5,0.7-0.9,1.5-0.9
	l5.2,0c0.6,0,1.2-0.2,1.4-0.6c0.3-0.5,0.6-1,1.1-1.5c0.3-0.3,0.2-0.7-0.3-1l-3.7-2.1c-0.6-0.3-0.6-0.9,0-1.2l4-2.3
	c0.6-0.3,1.5-0.3,2.1,0l3.7,2.1c0.4,0.3,1.1,0.3,1.7,0.2c0.8-0.2,1.7-0.5,2.6-0.6c0.6-0.1,1-0.4,1-0.8l0-3c0-0.5,0.7-0.9,1.5-0.9
	l5.6,0c0.4,0,0.8,0.1,1,0.3c0.3,0.2,0.4,0.4,0.4,0.6l0,3c0,0.2,0.2,0.4,0.4,0.6c0.2,0.1,0.4,0.2,0.6,0.2c0.9,0.2,1.8,0.4,2.6,0.6
	c0.6,0.2,1.3,0.1,1.7-0.2l3.7-2.1c0.6-0.3,1.5-0.3,2.1,0l4,2.3c0.6,0.3,0.6,0.9,0,1.2l-3.7,2.1c-0.4,0.3-0.6,0.7-0.3,1
	c0.4,0.5,0.8,1,1.1,1.5c0.1,0.1,0.2,0.2,0.4,0.3c0.3,0.2,0.6,0.2,1,0.2l5.2,0c0.4,0,0.8,0.1,1,0.3c0.3,0.2,0.4,0.4,0.4,0.6l0,3.2
	c0,0.5-0.7,0.9-1.5,0.9h-5.2c-0.6,0-1.2,0.2-1.4,0.6c-0.3,0.5-0.6,1-1.1,1.5c-0.3,0.3-0.2,0.7,0.3,1L218.8,59.5z M203.5,57.7
	c7.7-2,8.9-7.3,3.6-10.4c-1-0.6-2.2-1.1-3.7-1.4c-2.6-0.7-5.5-0.7-8.1,0c-7.7,2-8.9,7.3-3.6,10.4c1,0.6,2.2,1.1,3.7,1.4
	C198,58.4,201,58.4,203.5,57.7"/>
<linearGradient id="SVGID_1_" gradientUnits="userSpaceOnUse" x1="144.3581" y1="26.4702" x2="144.3581" y2="48.1045">
	<stop  offset="6.411980e-02" style="stop-color:#EAEAF9"/>
	<stop  offset="7.992705e-02" style="stop-color:#D2D5E0"/>
	<stop  offset="0.1062" style="stop-color:#AFB6BC"/>
	<stop  offset="0.1202" style="stop-color:#A2AAAE"/>
</linearGradient>
<path class="st6" d="M143.2,31.5l2.4,1.4c0.2,0.1,0.3,0.2,0.3,0.4l0-4.1c0-0.1-0.1-0.3-0.3-0.4l-2.4-1.4c-0.2-0.1-0.3-0.3-0.3-0.4
	l0,4.1C142.9,31.3,143,31.4,143.2,31.5z"/>
<path class="st2" d="M165.8,33.1c0-0.1,0.1-0.1,0.2-0.2l2.4-1.4c0,0,0,0,0,0c0,0,0.1-0.1,0.1-0.1c0,0,0,0,0.1-0.1c0,0,0,0,0,0
	c0,0,0,0,0,0c0,0,0,0,0,0c0,0,0,0,0-0.1c0,0,0,0,0-0.1c0,0,0,0,0-0.1c0,0,0,0,0,0l0-4.1c0,0.1,0,0.1-0.1,0.2c0,0,0,0,0,0
	c0,0.1-0.1,0.1-0.2,0.2l-2.4,1.4c0,0,0,0,0,0c0,0-0.1,0.1-0.1,0.1c0,0,0,0-0.1,0.1c0,0,0,0,0,0c0,0,0,0,0,0c0,0,0,0,0,0
	c0,0,0,0,0,0.1c0,0,0,0,0,0.1c0,0,0,0,0,0.1c0,0,0,0,0,0l0,4.1C165.7,33.2,165.7,33.2,165.8,33.1C165.8,33.1,165.8,33.1,165.8,33.1z
	"/>
<path class="st2" d="M148.8,35.9c0-0.1,0.1-0.3,0.1-0.4c0,0,0-0.1,0.1-0.1c0.1-0.2,0.2-0.3,0.3-0.5c0,0,0,0,0,0
	c0.1-0.2,0.3-0.3,0.5-0.5c0,0,0.1,0,0.1-0.1c0.1-0.1,0.3-0.3,0.5-0.4c0.1,0,0.1-0.1,0.2-0.1c0.1-0.1,0.3-0.2,0.4-0.2
	c0.1-0.1,0.3-0.2,0.4-0.2c0.1-0.1,0.3-0.1,0.4-0.2c0.2-0.1,0.3-0.1,0.5-0.2c0.3-0.1,0.6-0.2,0.9-0.3c0.4-0.1,0.8-0.2,1.1-0.2
	c0.1,0,0.2,0,0.2,0c0.4,0,0.8-0.1,1.2-0.1c0.1,0,0.1,0,0.2,0c0.4,0,0.8,0,1.2,0.1c0,0,0.1,0,0.1,0c0.4,0.1,0.8,0.1,1.2,0.2
	c0.2,0,0.3,0.1,0.5,0.1c0.3,0.1,0.6,0.2,0.9,0.3c0.1,0,0.2,0.1,0.3,0.1c0.1,0,0.2,0.1,0.3,0.1c0.2,0.1,0.4,0.2,0.5,0.3
	c1.4,0.8,2.1,1.9,2.1,2.9l0-4.1c0-1.1-0.7-2.1-2.1-2.9c-0.2-0.1-0.3-0.2-0.5-0.3c-0.1,0-0.2-0.1-0.2-0.1c-0.1,0-0.2-0.1-0.3-0.1
	c0,0,0,0,0,0c-0.3-0.1-0.6-0.2-0.9-0.3c0,0-0.1,0-0.1,0c-0.1,0-0.2-0.1-0.3-0.1c-0.1,0-0.3-0.1-0.4-0.1c-0.2,0-0.4-0.1-0.6-0.1
	c-0.1,0-0.1,0-0.2,0c0,0-0.1,0-0.1,0c-0.1,0-0.2,0-0.3,0c-0.2,0-0.4,0-0.6,0c-0.1,0-0.1,0-0.2,0c-0.1,0-0.1,0-0.2,0
	c-0.1,0-0.2,0-0.3,0c-0.2,0-0.5,0-0.7,0c0,0-0.1,0-0.1,0c-0.1,0-0.2,0-0.2,0c-0.2,0-0.3,0-0.5,0.1c-0.2,0-0.5,0.1-0.7,0.1
	c-0.1,0-0.1,0-0.2,0l0-2.9l0-2l0,4.1l0,0.8c-0.2,0-0.3,0.1-0.5,0.1c-0.1,0-0.1,0-0.2,0.1c-0.2,0.1-0.3,0.1-0.5,0.2
	c-0.1,0.1-0.3,0.1-0.4,0.2c-0.2,0.1-0.3,0.1-0.4,0.2c-0.1,0-0.2,0.1-0.3,0.1c-0.1,0-0.1,0.1-0.1,0.1c-0.1,0-0.1,0.1-0.2,0.1
	c-0.2,0.1-0.3,0.2-0.5,0.4c0,0-0.1,0-0.1,0.1c0,0,0,0,0,0c-0.2,0.2-0.3,0.3-0.4,0.5c0,0,0,0,0,0c0,0,0,0,0,0
	c-0.1,0.1-0.2,0.2-0.3,0.4c0,0,0,0.1,0,0.1c0,0,0,0.1-0.1,0.1c0,0.1-0.1,0.1-0.1,0.2c0,0.1,0,0.1-0.1,0.2c0,0,0,0.1,0,0.1
	c0,0,0,0,0,0.1c0,0.1,0,0.3,0,0.4c0,0,0,0,0,0.1l0,0l0,4.1c0-0.2,0-0.4,0.1-0.5C148.7,35.9,148.7,35.9,148.8,35.9z"/>
<path class="st2" d="M171.7,33.7C171.7,33.7,171.7,33.7,171.7,33.7c-0.1,0.1-0.1,0.1-0.2,0.2c0,0,0,0,0,0c-0.1,0-0.2,0.1-0.3,0.1
	c0,0,0,0,0,0c-0.1,0-0.2,0-0.4,0h-3.4c0,0,0,0-0.1,0c0,0-0.1,0-0.1,0c0,0-0.1,0-0.1,0c0,0,0,0,0,0c0,0,0,0,0,0c-0.1,0-0.1,0-0.1,0
	c0,0,0,0,0,0c0,0-0.1,0-0.1,0c0,0,0,0-0.1,0c0,0,0,0-0.1,0c0,0,0,0,0,0c0,0,0,0,0,0c0,0,0,0-0.1,0.1c0,0,0,0,0,0.1c0,0,0,0,0,0
	c0,0-0.1,0.1-0.1,0.1c-0.1,0.2-0.2,0.3-0.3,0.5c-0.1,0.1-0.2,0.2-0.3,0.3c0,0,0,0,0,0c0,0,0,0,0,0.1c0,0,0,0,0,0c0,0,0,0,0,0
	c0,0,0,0,0,0c0,0,0,0,0,0.1c0,0,0,0,0,0.1c0,0,0,0,0,0l0,4.1c-0.1,0-0.1,0.1-0.2,0.1c0,0,0,0,0,0c-0.1,0-0.2,0-0.3,0c0,0,0,0,0,0
	c-0.1,0-0.2,0-0.4,0c0,0,0,0,0,0c-0.1,0-0.2-0.1-0.3-0.1l-2.4-1.4c0,0-0.1,0-0.1-0.1c0,0-0.1,0-0.1,0c0,0,0,0,0,0c0,0,0,0,0,0
	c0,0-0.1,0-0.1,0c0,0-0.1,0-0.1,0c0,0,0,0-0.1,0c0,0,0,0,0,0c0,0,0,0,0,0c0,0-0.1,0-0.1,0c0,0-0.1,0-0.1,0c0,0-0.1,0-0.1,0
	c0,0,0,0,0,0c0,0,0,0,0,0c0,0-0.1,0-0.1,0c0,0-0.1,0-0.1,0c-0.6,0.2-1.1,0.3-1.7,0.4c-0.1,0-0.1,0-0.2,0c0,0,0,0,0,0
	c0,0-0.1,0-0.1,0c0,0,0,0-0.1,0c0,0,0,0-0.1,0c0,0,0,0,0,0c0,0,0,0,0,0c0,0,0,0-0.1,0.1c0,0,0,0,0,0.1c0,0,0,0,0,0l0,0
	c0,0,0,0,0,0.1c0,0,0,0,0,0.1c0,0,0,0,0,0.1c0,0,0,0,0,0l0,2c0,0.1,0,0.1-0.1,0.2c0,0,0,0,0,0c0,0.1-0.1,0.1-0.2,0.2c0,0,0,0,0,0
	c-0.1,0-0.2,0.1-0.3,0.1c0,0,0,0,0,0c-0.1,0-0.2,0-0.4,0H154c-0.1,0-0.3,0-0.4,0c0,0,0,0,0,0c-0.1,0-0.2-0.1-0.3-0.1
	c-0.2-0.1-0.3-0.2-0.3-0.4l0-2c0-0.2-0.1-0.3-0.3-0.4c0,0-0.1,0-0.1-0.1c0,0-0.1,0-0.1,0c0,0-0.1,0-0.1,0c0,0,0,0,0,0
	c-0.6-0.1-1.2-0.2-1.7-0.4c0,0,0,0,0,0c0,0-0.1,0-0.1,0c0,0-0.1,0-0.1,0c0,0-0.1,0-0.1,0c0,0,0,0,0,0c0,0,0,0,0,0c0,0-0.1,0-0.1,0
	c0,0-0.1,0-0.1,0c0,0-0.1,0-0.1,0c0,0,0,0,0,0c0,0,0,0,0,0c0,0-0.1,0-0.1,0c0,0-0.1,0-0.1,0c0,0,0,0,0,0c0,0,0,0,0,0
	c-0.1,0-0.1,0.1-0.2,0.1l-2.4,1.4c-0.1,0.1-0.2,0.1-0.3,0.1c0,0,0,0,0,0c-0.1,0-0.2,0-0.3,0c0,0,0,0,0,0c-0.1,0-0.2,0-0.4,0
	c0,0,0,0,0,0c-0.1,0-0.2-0.1-0.3-0.1l0-4.1c0-0.1,0-0.2-0.1-0.3c-0.3-0.3-0.5-0.7-0.7-1c0-0.1-0.1-0.2-0.2-0.2c0,0-0.1,0-0.1-0.1
	c0,0-0.1,0-0.1,0c0,0,0,0,0,0c0,0,0,0,0,0c0,0,0,0,0,0c0,0-0.1,0-0.1,0c0,0-0.1,0-0.1,0c0,0-0.1,0-0.1,0c0,0,0,0,0,0h-3.4
	c-0.1,0-0.3,0-0.4,0c0,0,0,0,0,0c-0.1,0-0.2-0.1-0.3-0.1c-0.2-0.1-0.3-0.2-0.3-0.4l0-2.1l0,4.1l0,2.1c0,0.2,0.1,0.3,0.3,0.4
	c0,0,0.1,0,0.1,0.1c0,0,0.1,0,0.1,0c0,0,0,0,0,0c0,0,0,0,0,0c0,0,0,0,0,0c0,0,0.1,0,0.1,0c0,0,0.1,0,0.1,0c0,0,0.1,0,0.1,0
	c0,0,0,0,0,0h2.2l0,3.8c0,0.1,0.1,0.3,0.3,0.4l2.6,1.5c0,0,0.1,0,0.1,0.1c0,0,0.1,0,0.1,0c0,0,0,0,0.1,0c0,0,0,0,0,0c0,0,0,0,0,0
	c0,0,0.1,0,0.1,0c0,0,0.1,0,0.1,0c0,0,0.1,0,0.1,0c0,0,0,0,0,0c0,0,0,0,0,0c0,0,0,0,0.1,0c0,0,0.1,0,0.1,0c0,0,0.1,0,0.1,0
	c0,0,0,0,0.1,0c0,0,0,0,0,0c0,0,0.1,0,0.1,0c0.1,0,0.1-0.1,0.2-0.1l2.4-1.4c0.1,0,0.1-0.1,0.2-0.1c0,0,0,0,0,0c0.1,0,0.2,0,0.2,0
	c0,0,0,0,0,0c0.1,0,0.2,0,0.3,0c0,0,0,0,0,0c0.1,0,0.2,0,0.3,0.1c0,0,0.1,0,0.1,0c0.4,0.1,0.8,0.2,1.2,0.3c0.1,0,0.2,0,0.3,0.1
	c0.1,0,0.3,0.1,0.4,0.1c0.2,0.1,0.3,0.2,0.3,0.4l0,2c0,0.2,0.1,0.3,0.3,0.4c0,0,0.1,0,0.1,0.1c0,0,0.1,0,0.1,0v0l0,0v0c0,0,0,0,0,0
	c0,0,0,0,0,0c0,0,0,0,0,0c0,0,0.1,0,0.1,0c0,0,0.1,0,0.1,0c0,0,0.1,0,0.1,0c0,0,0,0,0,0h3.6c0,0,0,0,0.1,0c0,0,0.1,0,0.1,0
	c0,0,0.1,0,0.1,0c0,0,0,0,0.1,0c0,0,0,0,0,0c0,0,0,0,0.1,0c0.1,0,0.1-0.1,0.2-0.1c0,0,0,0,0,0c0,0,0,0,0,0c0,0,0.1-0.1,0.1-0.1
	c0,0,0,0,0.1-0.1c0,0,0,0,0,0c0,0,0,0,0,0c0,0,0,0,0,0c0,0,0,0,0-0.1c0,0,0,0,0-0.1s0,0,0-0.1c0,0,0,0,0,0l0-2c0,0,0-0.1,0-0.1
	c0,0,0,0,0,0c0-0.1,0.1-0.1,0.1-0.1c0,0,0,0,0,0c0,0,0.1-0.1,0.1-0.1c0,0,0.1,0,0.1,0c0.1,0,0.1-0.1,0.2-0.1
	c0.6-0.1,1.1-0.2,1.7-0.4c0.1,0,0.2,0,0.3-0.1c0,0,0,0,0,0c0.1,0,0.2,0,0.3,0c0,0,0,0,0,0c0.1,0,0.2,0,0.3,0.1c0,0,0,0,0,0
	c0.1,0,0.2,0.1,0.2,0.1l2.4,1.4c0,0,0.1,0,0.1,0.1c0,0,0.1,0,0.1,0c0,0,0,0,0.1,0c0,0,0,0,0,0c0,0,0,0,0,0c0,0,0.1,0,0.1,0
	c0,0,0.1,0,0.1,0c0,0,0.1,0,0.1,0c0,0,0,0,0,0c0,0,0,0,0,0c0,0,0,0,0.1,0c0,0,0.1,0,0.1,0c0,0,0.1,0,0.1,0c0,0,0,0,0.1,0
	c0,0,0,0,0,0c0,0,0.1,0,0.1,0c0.1,0,0.1-0.1,0.2-0.1l2.6-1.5c0,0,0,0,0,0c0,0,0.1-0.1,0.1-0.1c0,0,0,0,0.1-0.1c0,0,0,0,0,0
	c0,0,0,0,0,0c0,0,0,0,0,0c0,0,0,0,0-0.1c0,0,0,0,0-0.1c0,0,0,0,0-0.1c0,0,0,0,0,0l0-3.8h2.1c0,0,0,0,0.1,0c0,0,0.1,0,0.1,0
	c0,0,0.1,0,0.1,0c0,0,0,0,0.1,0c0,0,0,0,0,0c0,0,0,0,0.1,0c0.1,0,0.1-0.1,0.2-0.1c0,0,0,0,0,0c0,0,0,0,0,0c0,0,0.1-0.1,0.1-0.1
	c0,0,0,0,0.1-0.1c0,0,0,0,0,0c0,0,0,0,0,0c0,0,0,0,0,0c0,0,0,0,0-0.1c0,0,0,0,0-0.1c0,0,0,0,0-0.1c0,0,0,0,0,0l0-4.1
	C171.8,33.5,171.7,33.6,171.7,33.7z M143.2,38.2C143.2,38.2,143.2,38.2,143.2,38.2l0.9-0.1c0.1,0,0.3,0,0.4,0c0,0,0,0,0,0
	c0.1,0,0.2,0.1,0.3,0.1c0.1,0.1,0.2,0.1,0.2,0.2c0.2,0.3,0.4,0.7,0.7,1c0.1,0.1,0.1,0.1,0.1,0.2c0,0,0,0,0,0L143.2,38.2z
	 M165.8,39.7c0,0-0.1,0-0.1,0C165.7,39.7,165.7,39.7,165.8,39.7C165.7,39.6,165.7,39.6,165.8,39.7c-0.1-0.1-0.1-0.1,0-0.2
	c0.1-0.1,0.1-0.2,0.2-0.3c0,0,0-0.1,0.1-0.1c0.1-0.2,0.2-0.3,0.3-0.5c0,0,0-0.1,0.1-0.1c0,0,0,0,0-0.1c0-0.1,0.1-0.1,0.1-0.1
	c0,0,0,0,0,0c0,0,0.1-0.1,0.1-0.1c0,0,0.1,0,0.1,0c0.1,0,0.1,0,0.2-0.1c0,0,0,0,0,0c0.1,0,0.2,0,0.3,0h1c0,0,0,0-0.1,0.1L165.8,39.7
	z"/>
<path class="st1" d="M168.4,37.9c0.4,0.2,0.4,0.6,0,0.8l-2.6,1.5c-0.4,0.2-1,0.2-1.4,0l-2.4-1.4c-0.3-0.2-0.7-0.2-1.1-0.1
	c-0.6,0.2-1.1,0.3-1.7,0.4c-0.4,0.1-0.7,0.3-0.7,0.5l0,2c0,0.3-0.4,0.6-1,0.6l-3.6,0c-0.3,0-0.5-0.1-0.7-0.2
	c-0.2-0.1-0.3-0.2-0.3-0.4l0-2c0-0.2-0.1-0.3-0.3-0.4c-0.1-0.1-0.2-0.1-0.4-0.1c-0.6-0.1-1.2-0.2-1.7-0.4c-0.4-0.1-0.8-0.1-1.1,0.1
	l-2.4,1.4c-0.4,0.2-1,0.2-1.4,0l-2.6-1.5c-0.4-0.2-0.4-0.6,0-0.8l2.4-1.4c0.3-0.2,0.4-0.4,0.2-0.6c-0.3-0.3-0.5-0.7-0.7-1
	c0-0.1-0.1-0.2-0.2-0.2c-0.2-0.1-0.4-0.2-0.7-0.2l-3.4,0c-0.3,0-0.5-0.1-0.7-0.2c-0.2-0.1-0.3-0.2-0.3-0.4l0-2.1
	c0-0.3,0.4-0.6,1-0.6h3.4c0.4,0,0.8-0.2,0.9-0.4c0.2-0.3,0.4-0.7,0.7-1c0.2-0.2,0.1-0.5-0.2-0.6l-2.4-1.4c-0.4-0.2-0.4-0.6,0-0.8
	l2.6-1.5c0.4-0.2,1-0.2,1.4,0l2.4,1.4c0.3,0.2,0.7,0.2,1.1,0.1c0.5-0.2,1.1-0.3,1.7-0.4c0.4-0.1,0.7-0.3,0.7-0.5l0-2
	c0-0.3,0.4-0.6,1-0.6l3.6,0c0.3,0,0.5,0.1,0.7,0.2c0.2,0.1,0.3,0.2,0.3,0.4l0,2c0,0.2,0.1,0.3,0.3,0.4c0.1,0.1,0.2,0.1,0.4,0.1
	c0.6,0.1,1.1,0.2,1.7,0.4c0.4,0.1,0.8,0.1,1.1-0.1l2.4-1.4c0.4-0.2,1-0.2,1.4,0l2.6,1.5c0.4,0.2,0.4,0.6,0,0.8l-2.4,1.4
	c-0.3,0.2-0.4,0.4-0.2,0.6c0.3,0.3,0.5,0.6,0.7,1c0,0.1,0.1,0.2,0.2,0.2c0.2,0.1,0.4,0.2,0.7,0.2l3.4,0c0.3,0,0.5,0.1,0.7,0.2
	c0.2,0.1,0.3,0.2,0.3,0.4l0,2.1c0,0.3-0.4,0.6-1,0.6h-3.4c-0.4,0-0.8,0.2-0.9,0.4c-0.2,0.3-0.4,0.7-0.7,1c-0.2,0.2-0.1,0.5,0.2,0.6
	L168.4,37.9z M158.4,36.7c5-1.3,5.8-4.8,2.4-6.8c-0.7-0.4-1.5-0.7-2.4-0.9c-1.7-0.4-3.6-0.4-5.3,0c-5,1.3-5.8,4.8-2.4,6.8
	c0.6,0.4,1.4,0.7,2.4,0.9C154.8,37.1,156.8,37.1,158.4,36.7"/>
<path class="st3" d="M168.4,37.4c0.4,0.2,0.4,0.6,0,0.8l-2.6,1.5c-0.4,0.2-1,0.2-1.4,0l-2.4-1.4c-0.3-0.2-0.7-0.2-1.1-0.1
	c-0.6,0.2-1.1,0.3-1.7,0.4c-0.4,0.1-0.7,0.3-0.7,0.5l0,2c0,0.3-0.4,0.6-1,0.6l-3.6,0c-0.3,0-0.5-0.1-0.7-0.2
	c-0.2-0.1-0.3-0.2-0.3-0.4l0-2c0-0.2-0.1-0.3-0.3-0.4c-0.1-0.1-0.2-0.1-0.4-0.1c-0.6-0.1-1.2-0.2-1.7-0.4c-0.4-0.1-0.8-0.1-1.1,0.1
	l-2.4,1.4c-0.4,0.2-1,0.2-1.4,0l-2.6-1.5c-0.4-0.2-0.4-0.6,0-0.8l2.4-1.4c0.3-0.2,0.4-0.4,0.2-0.6c-0.3-0.3-0.5-0.7-0.7-1
	c0-0.1-0.1-0.2-0.2-0.2c-0.2-0.1-0.4-0.2-0.7-0.2l-3.4,0c-0.3,0-0.5-0.1-0.7-0.2c-0.2-0.1-0.3-0.2-0.3-0.4l0-2.1
	c0-0.3,0.4-0.6,1-0.6h3.4c0.4,0,0.8-0.2,0.9-0.4c0.2-0.3,0.4-0.7,0.7-1c0.2-0.2,0.1-0.5-0.2-0.6l-2.4-1.4c-0.4-0.2-0.4-0.6,0-0.8
	l2.6-1.5c0.4-0.2,1-0.2,1.4,0l2.4,1.4c0.3,0.2,0.7,0.2,1.1,0.1c0.5-0.2,1.1-0.3,1.7-0.4c0.4-0.1,0.7-0.3,0.7-0.5l0-2
	c0-0.3,0.4-0.6,1-0.6l3.6,0c0.3,0,0.5,0.1,0.7,0.2c0.2,0.1,0.3,0.2,0.3,0.4l0,2c0,0.2,0.1,0.3,0.3,0.4c0.1,0.1,0.2,0.1,0.4,0.1
	c0.6,0.1,1.1,0.2,1.7,0.4c0.4,0.1,0.8,0.1,1.1-0.1l2.4-1.4c0.4-0.2,1-0.2,1.4,0l2.6,1.5c0.4,0.2,0.4,0.6,0,0.8l-2.4,1.4
	c-0.3,0.2-0.4,0.4-0.2,0.6c0.3,0.3,0.5,0.6,0.7,1c0,0.1,0.1,0.2,0.2,0.2c0.2,0.1,0.4,0.2,0.7,0.2l3.4,0c0.3,0,0.5,0.1,0.7,0.2
	c0.2,0.1,0.3,0.2,0.3,0.4l0,2.1c0,0.3-0.4,0.6-1,0.6h-3.4c-0.4,0-0.8,0.2-0.9,0.4c-0.2,0.3-0.4,0.7-0.7,1c-0.2,0.2-0.1,0.5,0.2,0.6
	L168.4,37.4z M158.4,36.3c5-1.3,5.8-4.8,2.4-6.8c-0.7-0.4-1.5-0.7-2.4-0.9c-1.7-0.4-3.6-0.4-5.3,0c-5,1.3-5.8,4.8-2.4,6.8
	c0.6,0.4,1.4,0.7,2.4,0.9C154.8,36.7,156.8,36.7,158.4,36.3"/>
<linearGradient id="SVGID_2_" gradientUnits="userSpaceOnUse" x1="184.5618" y1="82.5616" x2="49.2832" y2="82.5616">
	<stop  offset="6.411980e-02" style="stop-color:#EAEAF9"/>
	<stop  offset="7.992705e-02" style="stop-color:#D2D5E0"/>
	<stop  offset="0.1062" style="stop-color:#AFB6BC"/>
	<stop  offset="0.1202" style="stop-color:#A2AAAE"/>
</linearGradient>
<path class="st7" d="M172,85.5c-0.5,1-1.4,1.7-2.6,1.9C122,95.4,76.9,76.9,57.2,67c-1.6-0.8-2.5-2.3-2.7-3.9h-0.1v11.7
	c0,2.1,1.2,4,3,4.9c19.7,10,64.2,28.3,111.5,20.3c1.1-0.2,2.1-0.9,2.6-2c2.2-4.7,3.1-9.3,3-13.8c0,0,0.1-7.3,0.1-7.3
	C174.2,79.8,173.4,82.7,172,85.5z"/>
<path class="st1" d="M174.8,68.3c-0.2-1.2-0.4-2.5-0.7-3.7c-5-19.9-27.6-36.7-39.8-44.5c-3.4-2.2-7.7-2.2-11.1-0.2l-57,33.1
	l-9.2,5.3c-3.4,2-3.3,7,0.2,8.7c19.7,9.9,64.8,28.5,112.3,20.4c1.1-0.2,2.1-0.9,2.6-1.9c1.4-2.9,2.2-5.7,2.7-8.5
	c0.1-0.5,0.1-0.9,0.2-1.4C175.2,73.1,175.1,70.7,174.8,68.3z"/>
<path class="st8" d="M174.8,66.9c-0.2-1.2-0.4-2.5-0.7-3.7c-5-19.9-27.6-36.7-39.8-44.5c-3.4-2.2-7.7-2.2-11.1-0.2l-57,33.1
	l-9.2,5.3c-3.4,2-3.3,7,0.2,8.7c19.7,9.9,64.8,28.5,112.3,20.4c1.1-0.2,2.1-0.9,2.6-1.9c1.4-2.9,2.2-5.7,2.7-8.5
	c0.1-0.5,0.1-0.9,0.2-1.4C175.2,71.8,175.1,69.3,174.8,66.9z"/>
<linearGradient id="SVGID_3_" gradientUnits="userSpaceOnUse" x1="173.5376" y1="64.3164" x2="59.6188" y2="64.3164">
	<stop  offset="6.411980e-02" style="stop-color:#EAEAF9"/>
	<stop  offset="7.992705e-02" style="stop-color:#D2D5E0"/>
	<stop  offset="0.1062" style="stop-color:#AFB6BC"/>
	<stop  offset="0.1202" style="stop-color:#A2AAAE"/>
</linearGradient>
<path class="st9" d="M163,66.8c-0.4,0.9-1.2,1.5-2.2,1.6c-40,6.7-78-8.9-94.6-17.2c-1.4-0.7-2.1-1.9-2.3-3.3h-0.1v9.9
	c0,1.7,1,3.3,2.5,4.1c16.6,8.4,54.1,23.8,93.9,17.1c1-0.2,1.8-0.8,2.2-1.7c1.9-3.9,2.6-7.8,2.6-11.6c0,0,0.1-6.1,0.1-6.1
	C164.9,62,164.1,64.4,163,66.8z"/>
<path class="st1" d="M165.3,52.3c-0.1-1-0.3-2.1-0.6-3.1c-4.2-16.7-23.3-30.9-33.6-37.5c-2.8-1.8-6.5-1.9-9.4-0.2l-48,27.8L66,43.8
	c-2.9,1.7-2.8,5.9,0.2,7.4c16.6,8.4,54.6,24,94.6,17.2c0.9-0.2,1.7-0.8,2.2-1.6c1.2-2.4,1.9-4.8,2.3-7.2c0.1-0.4,0.1-0.8,0.2-1.2
	C165.6,56.4,165.6,54.3,165.3,52.3z"/>
<path class="st8" d="M165.3,51.2c-0.1-1-0.3-2.1-0.6-3.1c-4.2-16.7-23.3-30.9-33.6-37.5c-2.8-1.8-6.5-1.9-9.4-0.2l-48,27.8L66,42.7
	c-2.9,1.7-2.8,5.9,0.2,7.4c16.6,8.4,54.6,24,94.6,17.2c0.9-0.2,1.7-0.8,2.2-1.6c1.2-2.4,1.9-4.8,2.3-7.2c0.1-0.4,0.1-0.8,0.2-1.2
	C165.6,55.2,165.6,53.2,165.3,51.2z"/>
<path class="st1" d="M106.8,41.5l-13.5-7.8c-1.4-0.8-2.1-2-2.1-3.3c0-1.8,1.4-3.6,3.8-5l7.9-4.6c3.9-2.3,9.6-2.7,12.7-0.9l13.5,7.8
	l-0.9,1.5l-13.5-7.8c-2.5-1.5-7.5-1-10.9,0.9l-7.9,4.6c-1.8,1-2.9,2.4-2.9,3.5c0,0.9,0.7,1.5,1.3,1.8l13.5,7.8L106.8,41.5z"/>
<path class="st3" d="M106.8,40.5l-13.5-7.8c-1.4-0.8-2.1-2-2.1-3.3c0-1.8,1.4-3.6,3.8-5l7.9-4.6c3.9-2.3,9.6-2.7,12.7-0.9l13.5,7.8
	l-0.9,1.5l-13.5-7.8c-2.5-1.5-7.5-1-10.9,0.9l-7.9,4.6c-1.8,1-2.9,2.4-2.9,3.5c0,0.9,0.7,1.5,1.3,1.8l13.5,7.8L106.8,40.5z"/>
<path class="st2" d="M102.8,34.5v12.3c0,0.6,0.3,1.2,0.9,1.5l21,12.1c1.9,1.1,4.3,1.1,6.2,0l20.9-12.1c0.6-0.3,0.9-1,0.9-1.6h0.1
	V34.5H102.8z"/>
<path class="st1" d="M124.7,48.1l-21-12.1c-1.2-0.7-1.2-2.4,0-3.1l21.1-12.2c1.7-1,3.9-1,5.6,0L151.8,33c1.1,0.7,1.1,2.3,0,3
	l-20.9,12.1C129,49.2,126.6,49.2,124.7,48.1z"/>
<path class="st3" d="M124.5,47.4L104,35.5c-1.2-0.7-1.2-2.4,0-3l20.7-12c1.7-1,3.8-1,5.5,0l20.9,12.1c1.1,0.6,1.1,2.3,0,2.9
	l-20.5,11.9C128.7,48.5,126.4,48.5,124.5,47.4z"/>
<path class="st10" d="M121.2,33.4c-2-1.2-2-3.1,0-4.3c2.1-1.2,5.4-1.2,7.4,0c1.3,0.8,1.8,1.8,1.4,2.8l6.9,4c1,0.6,1,1.6,0,2.2
	c-1.1,0.6-2.8,0.6-3.8,0l-6.8-3.9C124.5,34.4,122.6,34.1,121.2,33.4z"/>
</svg>
