<?xml version="1.0" encoding="utf-8"?>
<!-- Generator: Adobe Illustrator 23.0.3, SVG Export Plug-In . SVG Version: 6.00 Build 0)  -->
<svg version="1.1" id="Warstwa_1" xmlns="http://www.w3.org/2000/svg" xmlns:xlink="http://www.w3.org/1999/xlink" x="0px" y="0px"
	 viewBox="0 0 224 144" style="enable-background:new 0 0 224 144;" xml:space="preserve">
<style type="text/css">
	.st0{fill:#CED5D8;}
	.st1{fill:#FFFFFF;}
	.st2{fill:#A2AAAE;}
	.st3{fill:#DFE3E5;}
	.st4{fill:#F8C527;}
	.st5{fill:#DA8D00;}
	.st6{fill:#212D60;}
</style>
<g>
	<ellipse class="st0" cx="112" cy="73.5" rx="111.9" ry="60.5"/>
	<ellipse class="st1" cx="112" cy="70.5" rx="111.9" ry="60.5"/>
	<path class="st2" d="M161.7,80.5c-0.5,1-1.4,1.7-2.5,1.8C113.7,90,70.5,72.3,51.6,62.8c-1.6-0.8-2.4-2.2-2.6-3.7H49v11.2
		c0,2,1.1,3.8,2.9,4.7c18.9,9.6,61.6,27.1,106.8,19.5c1.1-0.2,2-0.9,2.5-1.9c2.1-4.5,3-8.9,2.9-13.2c0,0,0.1-7,0.1-7
		C163.9,75.1,163,77.8,161.7,80.5z"/>
	<path class="st1" d="M164.4,64c-0.2-1.2-0.4-2.4-0.7-3.5c-4.8-19.1-26.5-35.2-38.2-42.7c-3.2-2.1-7.3-2.1-10.7-0.2L60.2,49.3
		l-8.8,5.1c-3.3,1.9-3.1,6.7,0.2,8.4c18.9,9.5,62.1,27.3,107.6,19.6c1.1-0.2,2-0.9,2.5-1.8c1.3-2.7,2.1-5.5,2.6-8.2
		c0.1-0.5,0.1-0.9,0.2-1.4C164.7,68.6,164.7,66.3,164.4,64z"/>
	<path class="st3" d="M164.4,62.7c-0.2-1.2-0.4-2.4-0.7-3.5c-4.8-19.1-26.5-35.2-38.2-42.7c-3.2-2.1-7.3-2.1-10.7-0.2L60.2,48
		l-8.8,5.1c-3.3,1.9-3.1,6.7,0.2,8.4c18.9,9.5,62.1,27.3,107.6,19.6c1.1-0.2,2-0.9,2.5-1.8c1.3-2.7,2.1-5.5,2.6-8.2
		c0.1-0.5,0.1-0.9,0.2-1.4C164.7,67.3,164.7,65,164.4,62.7z"/>
	<path class="st1" d="M99.2,52.9l-13-7.5c-1.3-0.8-2-1.9-2-3.2c0-1.7,1.3-3.5,3.6-4.8l7.6-4.4c3.8-2.2,9.2-2.6,12.2-0.9l13,7.5
		l-0.8,1.4l-13-7.5c-2.4-1.4-7.2-1-10.5,0.9l-7.6,4.4c-1.7,1-2.8,2.3-2.8,3.4c0,0.8,0.7,1.4,1.2,1.7l13,7.5L99.2,52.9z"/>
	<path class="st4" d="M99.2,52l-13-7.5c-1.3-0.8-2-1.9-2-3.2c0-1.7,1.3-3.5,3.6-4.8l7.6-4.4c3.8-2.2,9.2-2.6,12.2-0.9l13,7.5
		l-0.8,1.4l-13-7.5c-2.4-1.4-7.2-1-10.5,0.9L88.6,38c-1.7,1-2.8,2.3-2.8,3.4c0,0.8,0.7,1.4,1.2,1.7l13,7.5L99.2,52z"/>
	<path class="st5" d="M95.4,46.3v11.8c0,0.6,0.3,1.2,0.9,1.5l20.1,11.6c1.8,1.1,4.1,1.1,5.9,0l20-11.6c0.6-0.3,0.8-0.9,0.8-1.5h0.1
		V46.3H95.4z"/>
	<path class="st1" d="M116.3,59.2L96.3,47.6c-1.1-0.7-1.1-2.3,0-3L116.5,33c1.7-1,3.7-1,5.4,0l20.4,11.8c1.1,0.6,1.1,2.2,0,2.9
		l-20,11.6C120.4,60.3,118.2,60.3,116.3,59.2z"/>
	<path class="st4" d="M116.2,58.6L96.5,47.2c-1.1-0.6-1.1-2.3,0-2.9l19.8-11.5c1.6-0.9,3.7-0.9,5.3,0l20.1,11.6
		c1.1,0.6,1.1,2.2,0,2.8L122,58.6C120.2,59.7,118,59.7,116.2,58.6z"/>
	<path class="st6" d="M113,45.1c-2-1.1-1.9-3,0-4.1c2-1.1,5.1-1.1,7.1,0c1.3,0.7,1.7,1.8,1.3,2.7l6.6,3.8c1,0.6,1,1.5,0,2.1
		c-1,0.6-2.6,0.6-3.6,0l-6.5-3.8C116.2,46.1,114.3,45.9,113,45.1z"/>
</g>
</svg>
