<?xml version="1.0" encoding="UTF-8" standalone="no"?><!DOCTYPE svg PUBLIC "-//W3C//DTD SVG 1.1//EN" "http://www.w3.org/Graphics/SVG/1.1/DTD/svg11.dtd"><svg width="100%" height="100%" viewBox="0 0 24 24" version="1.1" xmlns="http://www.w3.org/2000/svg" xmlns:xlink="http://www.w3.org/1999/xlink" xml:space="preserve" xmlns:serif="http://www.serif.com/" style="fill-rule:evenodd;clip-rule:evenodd;stroke-linejoin:round;stroke-miterlimit:2;"><path d="M19.168,23.87c-0.28,0 -0.564,-0.097 -0.843,-0.287l-6.365,-4.362l-0.134,0.008l-6.348,4.353c-0.645,0.44 -1.376,0.345 -1.759,-0.162c-0.172,-0.228 -0.341,-0.626 -0.171,-1.228l1.92,-6.806c0.014,-0.07 -0.03,-0.241 -0.076,-0.297l-4.946,-5.041c-0.412,-0.421 -0.553,-0.958 -0.377,-1.44c0.176,-0.481 0.63,-0.8 1.215,-0.854l6.547,-0.614c0.062,-0.011 0.197,-0.111 0.231,-0.173l2.629,-6.073c0.24,-0.554 0.692,-0.884 1.21,-0.884c0.519,0 0.972,0.332 1.209,0.888l2.633,6.075c0.031,0.057 0.167,0.156 0.235,0.168l6.541,0.611c0.587,0.057 1.04,0.377 1.215,0.858c0.174,0.482 0.033,1.018 -0.379,1.438l-4.947,5.044c-0.044,0.053 -0.088,0.224 -0.074,0.296l1.92,6.804c0.17,0.602 0.001,1 -0.171,1.228c-0.216,0.286 -0.55,0.45 -0.915,0.45Zm-7.268,-6.641c0.434,0 0.854,0.126 1.182,0.352l4.722,3.235l-1.38,-4.889c-0.213,-0.739 0.027,-1.679 0.57,-2.231l4.011,-4.088l-5.218,-0.487c-0.776,-0.074 -1.56,-0.645 -1.867,-1.36l-2.02,-4.663l-2.02,4.666c-0.309,0.714 -1.093,1.283 -1.864,1.356l-5.217,0.489l4.01,4.088c0.542,0.551 0.781,1.491 0.568,2.234l-1.379,4.885l4.722,-3.236c0.326,-0.225 0.746,-0.351 1.18,-0.351Z" style="fill:#e99222;"/></svg>