<?xml version="1.0" encoding="UTF-8" standalone="no"?><!DOCTYPE svg PUBLIC "-//W3C//DTD SVG 1.1//EN" "http://www.w3.org/Graphics/SVG/1.1/DTD/svg11.dtd"><svg width="100%" height="100%" viewBox="0 0 197 160" version="1.1" xmlns="http://www.w3.org/2000/svg" xmlns:xlink="http://www.w3.org/1999/xlink" xml:space="preserve" xmlns:serif="http://www.serif.com/" style="fill-rule:evenodd;clip-rule:evenodd;stroke-linejoin:round;stroke-miterlimit:2;"><path d="M36.279,66.426c0,41.519 25.949,76.973 62.512,91.041c36.564,-14.068 62.513,-49.522 62.513,-91.041l0,-37.508l-125.025,0l0,37.508Z" style="fill:url(#_Linear1);"/><path d="M38.279,66.426l-4,0c0.002,42.37 26.48,78.552 63.794,92.908l0.718,0.276l0.718,-0.276c37.315,-14.356 63.793,-50.538 63.795,-92.908l0,-39.508l-129.025,0l0,39.508l4,0l0,-35.508l121.025,0l0,35.508c0.003,40.667 -25.419,75.393 -61.231,89.174l0.718,1.867l0.718,-1.867c-35.811,-13.781 -61.233,-48.507 -61.23,-89.174Z" style="fill:#03405e;fill-rule:nonzero;"/><path d="M193.831,112.655l-24.395,0l0,-38.329l24.395,0l-6.098,19.165l6.098,19.164Z" style="fill:url(#_Linear2);"/><path d="M193.831,112.655l0,-2l-22.395,0l0,-34.329l19.66,0l-5.462,17.164l6.291,19.771l1.906,-0.606l0,-2l0,2l1.906,-0.607l-5.906,-18.557l6.735,-21.165l-29.13,0l0,42.329l29.131,0l-0.83,-2.607l-1.906,0.607Z" style="fill:#03405e;fill-rule:nonzero;"/><path d="M27.13,112.655l-24.395,0l6.099,-19.164l-6.099,-19.165l24.395,0l0,38.329Z" style="fill:url(#_Linear3);"/><path d="M27.13,112.655l0,-2l-21.66,0l5.463,-17.165l-5.463,-17.164l19.66,0l0,36.329l2,0l0,-2l0,2l2,0l0,-40.329l-29.13,0l6.735,21.164l-6.735,21.165l29.13,0l0,-2l-2,0Z" style="fill:#03405e;fill-rule:nonzero;"/><rect x="21.031" y="63.449" width="155.52" height="38.328" style="fill:url(#_Linear4);"/><path d="M176.551,101.777l0,-2l-153.52,0l0,-34.328l151.52,0l0,36.328l2,0l0,-2l0,2l2,0l0,-40.328l-159.52,0l0,42.328l159.52,0l0,-2l-2,0Z" style="fill:#03405e;fill-rule:nonzero;"/><path d="M50.569,76.029l-2.396,5.501l-0.079,0l-2.436,-5.461l-2.397,1.375l3.693,4.794l0,0.078l-5.776,-0.746l0,2.672l5.816,-0.747l0,0.079l-3.733,4.794l2.24,1.414l2.554,-5.54l0.078,0l2.358,5.501l2.475,-1.415l-3.772,-4.715l0,-0.079l5.934,0.708l0,-2.672l-5.934,0.786l0,-0.079l3.733,-4.912l-2.358,-1.336Z" style="fill:#03405e;fill-rule:nonzero;"/><path d="M66.876,76.029l-2.397,5.501l-0.078,0l-2.436,-5.461l-2.397,1.375l3.693,4.794l0,0.078l-5.776,-0.746l0,2.672l5.816,-0.747l0,0.079l-3.733,4.794l2.239,1.414l2.555,-5.54l0.078,0l2.358,5.501l2.475,-1.415l-3.772,-4.715l0,-0.079l5.933,0.708l0,-2.672l-5.933,0.786l0,-0.079l3.733,-4.912l-2.358,-1.336Z" style="fill:#03405e;fill-rule:nonzero;"/><path d="M83.183,76.029l-2.397,5.501l-0.078,0l-2.437,-5.461l-2.396,1.375l3.693,4.794l0,0.078l-5.776,-0.746l0,2.672l5.815,-0.747l0,0.079l-3.732,4.794l2.239,1.414l2.554,-5.54l0.079,0l2.358,5.501l2.475,-1.415l-3.772,-4.715l0,-0.079l5.933,0.708l0,-2.672l-5.933,0.786l0,-0.079l3.733,-4.912l-2.358,-1.336Z" style="fill:#03405e;fill-rule:nonzero;"/><path d="M99.49,76.029l-2.397,5.501l-0.078,0l-2.437,-5.461l-2.397,1.375l3.694,4.794l0,0.078l-5.776,-0.746l0,2.672l5.815,-0.747l0,0.079l-3.733,4.794l2.24,1.414l2.554,-5.54l0.079,0l2.357,5.501l2.476,-1.415l-3.772,-4.715l0,-0.079l5.933,0.708l0,-2.672l-5.933,0.786l0,-0.079l3.733,-4.912l-2.358,-1.336Z" style="fill:#03405e;fill-rule:nonzero;"/><path d="M115.797,76.029l-2.397,5.501l-0.079,0l-2.436,-5.461l-2.397,1.375l3.694,4.794l0,0.078l-5.776,-0.746l0,2.672l5.815,-0.747l0,0.079l-3.733,4.794l2.24,1.414l2.554,-5.54l0.079,0l2.357,5.501l2.476,-1.415l-3.772,-4.715l0,-0.079l5.933,0.708l0,-2.672l-5.933,0.786l0,-0.079l3.732,-4.912l-2.357,-1.336Z" style="fill:#03405e;fill-rule:nonzero;"/><path d="M132.104,76.029l-2.397,5.501l-0.079,0l-2.436,-5.461l-2.397,1.375l3.694,4.794l0,0.078l-5.776,-0.746l0,2.672l5.815,-0.747l0,0.079l-3.733,4.794l2.24,1.414l2.554,-5.54l0.078,0l2.358,5.501l2.476,-1.415l-3.773,-4.715l0,-0.079l5.934,0.708l0,-2.672l-5.934,0.786l0,-0.079l3.733,-4.912l-2.357,-1.336Z" style="fill:#03405e;fill-rule:nonzero;"/><rect x="141.933" y="89.859" width="16.814" height="1.681" style="fill:#03405e;fill-rule:nonzero;"/><path d="M58.664,1.101l-3.566,0l-2.178,9.335c-0.144,0.551 -0.288,1.293 -0.455,2.202c-0.168,0.91 -0.311,1.652 -0.383,2.274c-0.096,-0.646 -0.216,-1.388 -0.383,-2.274c-0.144,-0.886 -0.287,-1.532 -0.407,-1.963l-2.489,-9.574l-3.423,0l-2.49,9.574c-0.143,0.503 -0.311,1.245 -0.479,2.179c-0.167,0.909 -0.263,1.603 -0.311,2.058c-0.167,-1.269 -0.455,-2.753 -0.838,-4.476l-2.178,-9.335l-3.566,0l4.356,17.09l4.117,0l2.298,-8.952c0.12,-0.407 0.263,-1.053 0.431,-1.987c0.192,-0.933 0.311,-1.627 0.359,-2.034c0.024,0.335 0.144,1.005 0.359,2.01c0.216,1.006 0.359,1.676 0.431,1.987l2.322,8.976l4.117,0l4.356,-17.09Z" style="fill:#03405e;fill-rule:nonzero;"/><path d="M64.002,8.713c0.431,-0.647 1.101,-0.958 2.059,-0.958c0.957,0 1.652,0.335 2.059,0.981c0.43,0.647 0.646,1.604 0.646,2.897c0,1.292 -0.216,2.274 -0.623,2.944c-0.43,0.646 -1.101,0.981 -2.058,0.981c-0.958,0 -1.652,-0.335 -2.083,-0.981c-0.407,-0.67 -0.622,-1.652 -0.622,-2.944c0,-1.293 0.215,-2.274 0.622,-2.92Zm7.636,-0.671c-0.526,-1.005 -1.244,-1.795 -2.202,-2.346c-0.957,-0.55 -2.082,-0.813 -3.327,-0.813c-2.011,0 -3.591,0.598 -4.692,1.771c-1.125,1.197 -1.675,2.848 -1.675,4.979c0,1.388 0.263,2.585 0.766,3.614c0.526,1.03 1.244,1.819 2.202,2.37c0.957,0.551 2.082,0.814 3.327,0.814c2.011,0 3.567,-0.599 4.692,-1.795c1.125,-1.197 1.675,-2.873 1.675,-5.003c0,-1.365 -0.263,-2.561 -0.766,-3.591Z" style="fill:#03405e;fill-rule:nonzero;"/><path d="M80.399,5.553c-0.694,0.455 -1.245,1.029 -1.652,1.771l-0.167,0l-0.527,-2.202l-2.705,0l0,13.069l3.567,0l0,-6.654c0,-1.053 0.311,-1.867 0.957,-2.442c0.623,-0.598 1.509,-0.885 2.657,-0.885c0.407,0 0.766,0.048 1.054,0.12l0.263,-3.352c-0.311,-0.071 -0.718,-0.095 -1.197,-0.095c-0.814,0 -1.556,0.215 -2.25,0.67Z" style="fill:#03405e;fill-rule:nonzero;"/><path d="M94.067,16.492l0.144,0l0.694,1.699l2.729,0l0,-18.191l-3.567,0l0,4.188c0,0.766 0.096,1.628 0.263,2.61l-0.119,0c-0.862,-1.269 -2.107,-1.915 -3.758,-1.915c-1.556,0 -2.801,0.598 -3.687,1.795c-0.885,1.197 -1.34,2.872 -1.34,5.003c0,2.106 0.431,3.758 1.316,4.955c0.886,1.196 2.083,1.795 3.615,1.795c1.651,0 2.896,-0.646 3.71,-1.939Zm-4.356,-1.867c-0.455,-0.646 -0.671,-1.604 -0.671,-2.896c0,-1.293 0.216,-2.274 0.647,-2.945c0.454,-0.67 1.077,-1.005 1.867,-1.005c0.981,0 1.675,0.311 2.106,0.91c0.431,0.598 0.646,1.603 0.646,3.016l0,0.383c-0.024,1.268 -0.263,2.178 -0.694,2.704c-0.431,0.527 -1.101,0.79 -2.01,0.79c-0.814,0 -1.461,-0.311 -1.891,-0.957Z" style="fill:#03405e;fill-rule:nonzero;"/><path d="M105.269,4.069l1.652,0c0.981,0 1.724,0.191 2.178,0.598c0.479,0.407 0.694,1.053 0.694,1.891c0,0.838 -0.263,1.484 -0.813,1.915c-0.575,0.455 -1.389,0.67 -2.514,0.67l-1.197,0l0,-5.074Zm6.559,-1.628c-1.077,-0.886 -2.633,-1.34 -4.715,-1.34l-5.458,0l0,17.09l3.614,0l0,-6.079l1.556,0c2.131,0 3.758,-0.479 4.907,-1.461c1.149,-0.981 1.724,-2.369 1.724,-4.212c0,-1.772 -0.527,-3.112 -1.628,-3.998Z" style="fill:#03405e;fill-rule:nonzero;"/><path d="M121.451,5.553c-0.694,0.455 -1.245,1.029 -1.652,1.771l-0.167,0l-0.527,-2.202l-2.705,0l0,13.069l3.567,0l0,-6.654c0,-1.053 0.311,-1.867 0.957,-2.442c0.622,-0.598 1.508,-0.885 2.657,-0.885c0.407,0 0.766,0.048 1.053,0.12l0.264,-3.352c-0.312,-0.071 -0.718,-0.095 -1.197,-0.095c-0.814,0 -1.556,0.215 -2.25,0.67Z" style="fill:#03405e;fill-rule:nonzero;"/><path d="M134.493,8.138c0.431,0.479 0.671,1.149 0.671,2.035l-5.003,0c0.072,-0.886 0.311,-1.556 0.742,-2.035c0.431,-0.479 1.029,-0.718 1.771,-0.718c0.766,0 1.365,0.239 1.819,0.718Zm1.293,10.053c0.694,-0.143 1.364,-0.383 1.987,-0.694l0,-2.752c-0.766,0.359 -1.484,0.622 -2.202,0.789c-0.695,0.168 -1.437,0.24 -2.226,0.24c-1.006,0 -1.796,-0.287 -2.37,-0.862c-0.551,-0.574 -0.862,-1.364 -0.886,-2.37l8.426,0l0,-1.723c0,-1.867 -0.503,-3.303 -1.532,-4.357c-1.029,-1.053 -2.49,-1.579 -4.333,-1.579c-1.915,0 -3.447,0.598 -4.524,1.795c-1.101,1.197 -1.651,2.896 -1.651,5.074c0,2.131 0.598,3.782 1.771,4.931c1.197,1.173 2.825,1.748 4.931,1.748c1.029,0 1.891,-0.072 2.609,-0.24Z" style="fill:#03405e;fill-rule:nonzero;"/><path d="M150.192,12.638c-0.239,-0.455 -0.574,-0.885 -1.053,-1.245c-0.479,-0.359 -1.221,-0.742 -2.25,-1.149c-1.149,-0.454 -1.891,-0.813 -2.226,-1.053c-0.336,-0.215 -0.503,-0.502 -0.503,-0.814c0,-0.574 0.527,-0.861 1.58,-0.861c0.598,0 1.173,0.095 1.747,0.263c0.551,0.192 1.173,0.407 1.819,0.694l1.077,-2.561c-1.484,-0.694 -3.016,-1.029 -4.595,-1.029c-1.652,0 -2.921,0.311 -3.83,0.957c-0.886,0.622 -1.341,1.532 -1.341,2.681c0,0.67 0.096,1.245 0.311,1.723c0.216,0.455 0.575,0.862 1.03,1.221c0.478,0.359 1.221,0.742 2.226,1.173c0.694,0.287 1.269,0.551 1.675,0.79c0.431,0.216 0.719,0.407 0.886,0.575c0.168,0.191 0.263,0.407 0.263,0.694c0,0.742 -0.646,1.125 -1.938,1.125c-0.623,0 -1.365,-0.096 -2.203,-0.311c-0.814,-0.216 -1.556,-0.479 -2.226,-0.79l0,2.944c0.575,0.263 1.197,0.455 1.867,0.574c0.671,0.12 1.484,0.192 2.442,0.192c1.867,0 3.255,-0.359 4.189,-1.053c0.909,-0.695 1.388,-1.724 1.388,-3.064c0,-0.647 -0.12,-1.197 -0.335,-1.676Z" style="fill:#03405e;fill-rule:nonzero;"/><path d="M162.09,12.638c-0.239,-0.455 -0.574,-0.885 -1.053,-1.245c-0.479,-0.359 -1.221,-0.742 -2.25,-1.148c-1.149,-0.455 -1.891,-0.814 -2.226,-1.054c-0.335,-0.215 -0.503,-0.502 -0.503,-0.814c0,-0.574 0.527,-0.861 1.58,-0.861c0.599,0 1.173,0.095 1.748,0.263c0.55,0.192 1.172,0.407 1.819,0.694l1.077,-2.561c-1.484,-0.694 -3.016,-1.029 -4.596,-1.029c-1.652,0 -2.92,0.311 -3.83,0.957c-0.886,0.623 -1.34,1.532 -1.34,2.681c0,0.67 0.095,1.245 0.311,1.724c0.215,0.454 0.574,0.861 1.029,1.22c0.479,0.359 1.221,0.742 2.226,1.173c0.694,0.287 1.269,0.551 1.676,0.79c0.431,0.216 0.718,0.407 0.886,0.575c0.167,0.191 0.263,0.407 0.263,0.694c0,0.742 -0.646,1.125 -1.939,1.125c-0.622,0 -1.364,-0.096 -2.202,-0.311c-0.814,-0.216 -1.556,-0.479 -2.226,-0.79l0,2.944c0.574,0.263 1.196,0.455 1.867,0.574c0.67,0.12 1.484,0.192 2.441,0.192c1.867,0 3.256,-0.359 4.189,-1.053c0.91,-0.694 1.389,-1.724 1.389,-3.064c0,-0.647 -0.12,-1.197 -0.336,-1.676Z" style="fill:#03405e;fill-rule:nonzero;"/><defs><linearGradient id="_Linear1" x1="0" y1="0" x2="1" y2="0" gradientUnits="userSpaceOnUse" gradientTransform="matrix(125.026,0,0,125.026,36.2788,93.192)"><stop offset="0" style="stop-color:#e5f2f8;stop-opacity:1"/><stop offset="1" style="stop-color:#fff;stop-opacity:1"/></linearGradient><linearGradient id="_Linear2" x1="0" y1="0" x2="1" y2="0" gradientUnits="userSpaceOnUse" gradientTransform="matrix(24.3952,0,0,24.3952,169.436,93.49)"><stop offset="0" style="stop-color:#e5f2f8;stop-opacity:1"/><stop offset="1" style="stop-color:#fff;stop-opacity:1"/></linearGradient><linearGradient id="_Linear3" x1="0" y1="0" x2="1" y2="0" gradientUnits="userSpaceOnUse" gradientTransform="matrix(24.3952,0,0,24.3952,2.73533,93.49)"><stop offset="0" style="stop-color:#e5f2f8;stop-opacity:1"/><stop offset="1" style="stop-color:#fff;stop-opacity:1"/></linearGradient><linearGradient id="_Linear4" x1="0" y1="0" x2="1" y2="0" gradientUnits="userSpaceOnUse" gradientTransform="matrix(155.52,0,0,155.52,21.0318,82.613)"><stop offset="0" style="stop-color:#e5f2f8;stop-opacity:1"/><stop offset="1" style="stop-color:#fff;stop-opacity:1"/></linearGradient></defs></svg>