<?xml version="1.0" encoding="UTF-8" standalone="no"?><!DOCTYPE svg PUBLIC "-//W3C//DTD SVG 1.1//EN" "http://www.w3.org/Graphics/SVG/1.1/DTD/svg11.dtd"><svg width="100%" height="100%" viewBox="0 0 24 24" version="1.1" xmlns="http://www.w3.org/2000/svg" xmlns:xlink="http://www.w3.org/1999/xlink" xml:space="preserve" xmlns:serif="http://www.serif.com/" style="fill-rule:evenodd;clip-rule:evenodd;stroke-linejoin:round;stroke-miterlimit:2;"><path d="M23.908,8.289l-3.014,10c-0.127,0.422 -0.515,0.711 -0.955,0.711l-9.343,0c-0.124,0 -0.242,-0.028 -0.354,-0.072c-0.04,-0.015 -0.072,-0.038 -0.109,-0.057c-0.069,-0.037 -0.133,-0.078 -0.191,-0.129c-0.035,-0.031 -0.064,-0.064 -0.094,-0.099c-0.048,-0.055 -0.087,-0.115 -0.123,-0.182c-0.022,-0.043 -0.043,-0.084 -0.06,-0.13c-0.008,-0.024 -0.024,-0.043 -0.031,-0.068l-4.089,-15.07c-0.17,-0.625 -0.912,-1.193 -1.557,-1.193l-2.994,0c-0.552,0 -0.998,-0.447 -0.998,-1c0,-0.553 0.446,-1 0.998,-1l2.994,0c1.548,0 3.077,1.172 3.483,2.669l1.175,4.331l1.916,0l4.698,-4.707c0.39,-0.391 1.021,-0.391 1.411,0l4.699,4.707l1.583,0c0.315,0 0.613,0.149 0.801,0.403c0.188,0.255 0.245,0.583 0.154,0.886Zm-7.942,-3.875l-2.581,2.586l5.162,0l-2.581,-2.586Zm5.642,4.586l-12.419,0l2.171,8l7.838,0l2.41,-8Zm-9.634,11c1.101,0 1.995,0.898 1.995,2c0,1.102 -0.894,2 -1.995,2c-1.101,0 -1.997,-0.898 -1.997,-2c0,-1.102 0.896,-2 1.997,-2Zm6.986,0c1.101,0 1.996,0.898 1.996,2c0,1.102 -0.895,2 -1.996,2c-1.1,0 -1.996,-0.898 -1.996,-2c0,-1.102 0.896,-2 1.996,-2Z" style="fill:#e99222;"/></svg>