<?xml version="1.0" encoding="UTF-8" standalone="no"?><!DOCTYPE svg PUBLIC "-//W3C//DTD SVG 1.1//EN" "http://www.w3.org/Graphics/SVG/1.1/DTD/svg11.dtd"><svg width="100%" height="100%" viewBox="0 0 161 188" version="1.1" xmlns="http://www.w3.org/2000/svg" xmlns:xlink="http://www.w3.org/1999/xlink" xml:space="preserve" xmlns:serif="http://www.serif.com/" style="fill-rule:evenodd;clip-rule:evenodd;stroke-linejoin:round;stroke-miterlimit:2;"><path d="M123.168,89.837l-9.689,77.725l-0.311,0.275c0,9.976 -17.237,18.062 -38.5,18.062c-21.262,0 -38.5,-8.086 -38.5,-18.062l-0.31,-0.275l-9.69,-77.725l97,0Z" style="fill:url(#_Linear1);"/><path d="M121.184,89.589l-9.69,77.725l1.985,0.248l-1.327,-1.497l-0.311,0.276l-0.673,0.596l0,0.9c-0.001,0.958 -0.203,1.892 -0.615,2.841c-0.718,1.654 -2.12,3.353 -4.181,4.942c-3.083,2.387 -7.608,4.488 -13.061,5.955c-5.454,1.472 -11.833,2.325 -18.643,2.324c-10.375,0.006 -19.758,-1.99 -26.374,-5.101c-3.308,-1.549 -5.912,-3.376 -7.615,-5.27c-0.853,-0.946 -1.483,-1.904 -1.895,-2.85c-0.413,-0.949 -0.615,-1.883 -0.616,-2.841l0,-0.9l-0.419,-0.371l-9.596,-76.977l-3.969,0.495l9.782,78.473l0.875,0.776l1.327,-1.496l-2,0c-0.001,1.536 0.336,3.037 0.949,4.44c1.077,2.46 2.962,4.622 5.403,6.509c3.669,2.827 8.631,5.074 14.464,6.651c5.833,1.573 12.541,2.462 19.684,2.462c10.888,-0.005 20.755,-2.053 28.073,-5.479c3.659,-1.72 6.693,-3.785 8.887,-6.213c1.095,-1.215 1.978,-2.525 2.591,-3.93c0.614,-1.403 0.95,-2.904 0.949,-4.44l-2,0l1.327,1.496l0.311,-0.275l0.564,-0.501l9.783,-78.473l-3.969,-0.494l0,-0.001Z" style="fill:#03405e;fill-rule:nonzero;"/><path d="M123.168,89.837c0,12.567 -21.713,22.754 -48.5,22.754c-26.786,0 -48.5,-10.187 -48.5,-22.754c0,-12.566 21.714,-22.754 48.5,-22.754c26.787,0 48.5,10.188 48.5,22.754Z" style="fill:url(#_Linear2);"/><path d="M125.168,89.837l-4,0c-0.001,1.282 -0.273,2.532 -0.818,3.786c-0.951,2.189 -2.78,4.389 -5.425,6.43c-3.961,3.064 -9.717,5.73 -16.636,7.592c-6.92,1.868 -14.998,2.946 -23.621,2.946c-13.137,0.005 -25.02,-2.516 -33.445,-6.475c-4.213,-1.974 -7.549,-4.306 -9.758,-6.761c-1.106,-1.227 -1.932,-2.48 -2.478,-3.732c-0.546,-1.254 -0.818,-2.504 -0.819,-3.786c0.001,-1.282 0.273,-2.532 0.819,-3.786c0.951,-2.189 2.78,-4.389 5.425,-6.43c3.96,-3.064 9.717,-5.73 16.636,-7.592c6.919,-1.868 14.998,-2.947 23.62,-2.946c13.137,-0.005 25.02,2.515 33.446,6.475c4.213,1.974 7.549,4.306 9.758,6.761c1.106,1.227 1.932,2.48 2.478,3.732c0.545,1.254 0.817,2.504 0.818,3.786l4,0c0.001,-1.86 -0.405,-3.677 -1.152,-5.385c-1.31,-2.996 -3.622,-5.658 -6.647,-7.997c-4.546,-3.504 -10.739,-6.315 -18.038,-8.288c-7.299,-1.969 -15.707,-3.083 -24.663,-3.084c-13.649,0.005 -26.016,2.578 -35.144,6.854c-4.564,2.144 -8.33,4.715 -11.03,7.704c-1.348,1.495 -2.427,3.1 -3.174,4.811c-0.746,1.708 -1.153,3.525 -1.152,5.385c-0.001,1.86 0.406,3.677 1.152,5.385c1.311,2.996 3.622,5.659 6.647,7.997c4.546,3.504 10.74,6.315 18.039,8.288c7.299,1.968 15.706,3.083 24.662,3.084c13.649,-0.006 26.016,-2.578 35.145,-6.854c4.563,-2.144 8.33,-4.715 11.029,-7.704c1.348,-1.495 2.428,-3.1 3.174,-4.811c0.747,-1.708 1.153,-3.525 1.152,-5.385Z" style="fill:#03405e;fill-rule:nonzero;"/><path d="M103.152,167.92l6,-47c0.14,-1.095 -0.635,-2.097 -1.73,-2.237c-1.096,-0.14 -2.098,0.635 -2.238,1.731l-6,47c-0.139,1.095 0.635,2.097 1.731,2.237c1.096,0.14 2.097,-0.635 2.237,-1.731Z" style="fill:#03405e;fill-rule:nonzero;"/><path d="M135.503,68.195c-0.486,0.297 -1.055,0.461 -1.827,0.464c-1.127,0.006 -2.665,-0.406 -4.421,-1.312c-2.639,-1.35 -5.737,-3.767 -8.857,-7.014c-3.124,-3.245 -6.286,-7.316 -9.155,-11.963c-2.9,-4.694 -5.14,-9.391 -6.643,-13.673c-1.507,-4.279 -2.264,-8.154 -2.26,-11.11c-0.002,-1.609 0.224,-2.934 0.6,-3.89c0.381,-0.963 0.859,-1.533 1.441,-1.897l-2.101,-3.403c-1.443,0.887 -2.46,2.274 -3.067,3.848c-0.614,1.582 -0.871,3.375 -0.873,5.342c0.005,3.611 0.877,7.843 2.486,12.435c1.612,4.588 3.972,9.524 7.014,14.45c4.017,6.5 8.574,11.948 13.024,15.836c2.227,1.944 4.429,3.5 6.564,4.597c2.136,1.092 4.214,1.748 6.248,1.754c1.376,0.003 2.745,-0.327 3.929,-1.061l-2.102,-3.403Z" style="fill:#03405e;fill-rule:nonzero;"/><path d="M147.518,60.775c-0.486,0.297 -1.055,0.461 -1.828,0.464c-1.126,0.006 -2.664,-0.405 -4.421,-1.312c-2.639,-1.35 -5.736,-3.767 -8.856,-7.013c-3.125,-3.246 -6.286,-7.317 -9.155,-11.964c-2.9,-4.694 -5.14,-9.391 -6.644,-13.674c-1.506,-4.278 -2.264,-8.153 -2.259,-11.109c-0.002,-1.609 0.224,-2.934 0.599,-3.89c0.382,-0.963 0.86,-1.533 1.442,-1.897l-2.102,-3.403c-1.442,0.887 -2.459,2.274 -3.067,3.848c-0.613,1.582 -0.87,3.375 -0.872,5.342c0.004,3.611 0.877,7.843 2.486,12.435c1.611,4.588 3.972,9.524 7.013,14.45c4.017,6.5 8.575,11.948 13.024,15.836c2.228,1.944 4.429,3.5 6.564,4.597c2.136,1.092 4.215,1.748 6.248,1.754c1.377,0.003 2.746,-0.327 3.93,-1.061l-2.102,-3.403Z" style="fill:#03405e;fill-rule:nonzero;"/><path d="M158.816,53.798c-0.486,0.297 -1.056,0.461 -1.828,0.464c-1.126,0.006 -2.665,-0.406 -4.421,-1.312c-2.639,-1.35 -5.737,-3.767 -8.857,-7.013c-3.124,-3.246 -6.285,-7.317 -9.154,-11.964c-2.9,-4.695 -5.141,-9.392 -6.644,-13.674c-1.507,-4.279 -2.264,-8.154 -2.26,-11.11c-0.002,-1.608 0.224,-2.934 0.599,-3.889c0.381,-0.964 0.86,-1.533 1.442,-1.897l-2.102,-3.403c-1.442,0.887 -2.459,2.273 -3.067,3.847c-0.613,1.582 -0.87,3.375 -0.872,5.342c0.004,3.611 0.877,7.843 2.486,12.435c1.612,4.588 3.973,9.525 7.014,14.451c4.017,6.5 8.574,11.948 13.024,15.836c2.228,1.944 4.429,3.5 6.564,4.597c2.136,1.092 4.214,1.748 6.248,1.754c1.377,0.003 2.746,-0.327 3.929,-1.061l-2.101,-3.403Z" style="fill:#03405e;fill-rule:nonzero;"/><path d="M140.118,28.334l1.969,3.191c3.493,5.655 1.741,13.072 -3.916,16.564l-16.818,10.387c-5.656,3.493 -13.072,1.74 -16.565,-3.916l-1.97,-3.19c-3.493,-5.656 -1.739,-13.072 3.916,-16.565l16.819,-10.387c5.655,-3.493 13.071,-1.739 16.565,3.916Z" style="fill:url(#_Linear3);"/><path d="M140.118,28.334l-1.702,1.051l1.969,3.191c1.019,1.649 1.499,3.462 1.5,5.262c-0.003,3.37 -1.689,6.651 -4.765,8.55l-16.818,10.386c-1.65,1.018 -3.462,1.498 -5.263,1.499c-3.37,-0.003 -6.651,-1.688 -8.55,-4.764l-1.969,-3.19c-1.018,-1.65 -1.499,-3.462 -1.5,-5.262c0.003,-3.37 1.689,-6.651 4.765,-8.55l16.819,-10.387c1.649,-1.018 3.462,-1.498 5.262,-1.499c3.37,0.003 6.651,1.689 8.55,4.764l1.702,-1.051l1.701,-1.051c-2.653,-4.294 -7.254,-6.665 -11.953,-6.662c-2.515,-0.001 -5.072,0.679 -7.364,2.096l-16.819,10.386c-4.294,2.653 -6.666,7.255 -6.663,11.954c-0.001,2.515 0.68,5.072 2.096,7.364l1.97,3.19c2.652,4.294 7.254,6.665 11.953,6.662c2.516,0.001 5.072,-0.679 7.365,-2.095l16.818,-10.387c4.294,-2.652 6.666,-7.254 6.663,-11.953c0.001,-2.515 -0.68,-5.072 -2.096,-7.364l-1.97,-3.19l-1.701,1.05Z" style="fill:#03405e;fill-rule:nonzero;"/><path d="M29.423,23.944c0.314,0.078 0.626,0.247 1.008,0.668c0.567,0.621 1.172,1.828 1.576,3.493c0.41,1.662 0.641,3.76 0.64,6.132c0,3.34 -0.451,7.224 -1.409,11.275c-1.305,5.53 -3.326,10.365 -5.479,13.694c-1.071,1.664 -2.177,2.945 -3.162,3.743c-0.491,0.4 -0.947,0.679 -1.336,0.846c-0.391,0.169 -0.705,0.228 -0.96,0.228c-0.122,0 -0.234,-0.014 -0.344,-0.04l-0.921,3.893c0.417,0.099 0.843,0.147 1.265,0.147c0.887,0 1.747,-0.21 2.548,-0.557c1.403,-0.612 2.656,-1.621 3.842,-2.905c1.773,-1.93 3.401,-4.516 4.842,-7.596c1.438,-3.078 2.679,-6.65 3.597,-10.533c1.024,-4.333 1.516,-8.499 1.517,-12.195c-0.005,-3.504 -0.431,-6.58 -1.36,-9.054c-0.469,-1.236 -1.067,-2.331 -1.873,-3.236c-0.799,-0.901 -1.849,-1.61 -3.071,-1.895l-0.92,3.892Z" style="fill:#03405e;fill-rule:nonzero;"/><path d="M19.611,21.625c0.314,0.077 0.627,0.247 1.009,0.667c0.567,0.621 1.172,1.828 1.576,3.493c0.41,1.662 0.641,3.76 0.64,6.132c0,3.34 -0.452,7.224 -1.41,11.275c-1.304,5.531 -3.325,10.366 -5.478,13.694c-1.071,1.664 -2.178,2.945 -3.162,3.743c-0.491,0.4 -0.947,0.679 -1.336,0.846c-0.391,0.169 -0.705,0.228 -0.959,0.228c-0.123,0 -0.234,-0.014 -0.345,-0.04l-0.92,3.893c0.417,0.099 0.843,0.147 1.265,0.147c0.886,0 1.746,-0.21 2.547,-0.557c1.403,-0.612 2.656,-1.621 3.842,-2.904c1.773,-1.931 3.4,-4.517 4.842,-7.596c1.438,-3.079 2.678,-6.651 3.597,-10.534c1.023,-4.333 1.516,-8.499 1.517,-12.195c-0.005,-3.504 -0.431,-6.58 -1.36,-9.054c-0.469,-1.236 -1.068,-2.331 -1.873,-3.236c-0.799,-0.901 -1.85,-1.61 -3.071,-1.895l-0.92,3.893l-0.001,0Z" style="fill:#03405e;fill-rule:nonzero;"/><path d="M10.386,19.443c0.313,0.078 0.626,0.247 1.008,0.668c0.567,0.621 1.173,1.828 1.576,3.494c0.41,1.662 0.641,3.76 0.64,6.132c0.001,3.34 -0.451,7.224 -1.41,11.274c-1.304,5.531 -3.325,10.366 -5.477,13.694c-1.072,1.664 -2.178,2.945 -3.162,3.743c-0.491,0.4 -0.948,0.679 -1.336,0.846c-0.391,0.169 -0.705,0.228 -0.96,0.228c-0.122,0 -0.234,-0.014 -0.344,-0.04l-0.921,3.893c0.417,0.099 0.843,0.147 1.265,0.147c0.887,0 1.747,-0.21 2.547,-0.557c1.404,-0.612 2.656,-1.621 3.843,-2.905c1.772,-1.93 3.4,-4.516 4.841,-7.595c1.438,-3.079 2.679,-6.651 3.597,-10.534c1.024,-4.332 1.516,-8.498 1.517,-12.194c-0.005,-3.504 -0.431,-6.581 -1.36,-9.054c-0.469,-1.236 -1.067,-2.332 -1.873,-3.237c-0.799,-0.901 -1.849,-1.61 -3.071,-1.895l-0.92,3.892Z" style="fill:#03405e;fill-rule:nonzero;"/><path d="M7.227,40.655l0.367,-1.552c1.16,-4.91 6.081,-7.949 10.99,-6.788l12.682,2.998c4.909,1.161 7.947,6.082 6.787,10.991l-0.367,1.552c-1.16,4.909 -6.081,7.948 -10.99,6.787l-12.682,-2.998c-4.909,-1.161 -7.948,-6.081 -6.787,-10.99Z" style="fill:url(#_Linear4);"/><path d="M7.227,40.655l1.946,0.46l0.367,-1.552c0.391,-1.648 1.311,-3.011 2.546,-3.978c1.236,-0.965 2.778,-1.518 4.389,-1.517c0.543,0 1.094,0.062 1.649,0.193l12.682,2.998c1.647,0.391 3.01,1.311 3.977,2.546c0.965,1.236 1.517,2.778 1.517,4.39c0,0.542 -0.062,1.094 -0.193,1.649l-0.367,1.552c-0.391,1.648 -1.311,3.01 -2.546,3.977c-1.236,0.965 -2.778,1.518 -4.389,1.517c-0.542,0 -1.094,-0.062 -1.649,-0.193l-12.682,-2.998c-1.647,-0.391 -3.01,-1.311 -3.977,-2.546c-0.965,-1.236 -1.518,-2.778 -1.517,-4.388c0,-0.543 0.062,-1.095 0.193,-1.649l-1.946,-0.461l-1.946,-0.461c-0.204,0.859 -0.301,1.721 -0.301,2.571c0,2.527 0.864,4.929 2.365,6.85c1.499,1.922 3.654,3.373 6.209,3.976l12.682,2.998c0.858,0.203 1.72,0.301 2.569,0.301c2.527,0 4.929,-0.864 6.851,-2.365c1.922,-1.499 3.374,-3.654 3.976,-6.209l0.367,-1.552c0.203,-0.858 0.301,-1.72 0.301,-2.569c0,-2.528 -0.864,-4.93 -2.365,-6.852c-1.499,-1.922 -3.654,-3.373 -6.209,-3.976l-12.682,-2.998c-0.858,-0.203 -1.72,-0.301 -2.569,-0.301c-2.527,0 -4.929,0.864 -6.851,2.365c-1.922,1.5 -3.373,3.655 -3.976,6.21l-0.367,1.551l1.946,0.461Z" style="fill:#03405e;fill-rule:nonzero;"/><path d="M61.061,86.11c0.252,0.063 0.509,0.197 0.844,0.565c0.496,0.541 1.046,1.629 1.413,3.144c0.373,1.513 0.585,3.431 0.584,5.602c0,0.651 -0.019,1.325 -0.057,2.019l3.994,0.217c0.042,-0.763 0.062,-1.509 0.062,-2.236c-0.004,-3.237 -0.396,-6.082 -1.26,-8.384c-0.437,-1.15 -0.995,-2.175 -1.753,-3.027c-0.752,-0.848 -1.747,-1.521 -2.907,-1.792l-0.92,3.892Z" style="fill:#03405e;fill-rule:nonzero;"/><path d="M52.037,83.977c0.252,0.063 0.51,0.197 0.845,0.565c0.495,0.541 1.046,1.629 1.412,3.144c0.374,1.512 0.585,3.43 0.584,5.601c0,0.584 -0.015,1.186 -0.045,1.803l3.995,0.197c0.033,-0.681 0.05,-1.348 0.05,-2c-0.004,-3.236 -0.397,-6.081 -1.261,-8.383c-0.436,-1.151 -0.995,-2.176 -1.753,-3.027c-0.751,-0.848 -1.747,-1.522 -2.906,-1.793l-0.921,3.893Z" style="fill:#03405e;fill-rule:nonzero;"/><path d="M43.552,81.971c0.252,0.063 0.51,0.197 0.845,0.565c0.496,0.541 1.046,1.628 1.412,3.143c0.374,1.512 0.585,3.43 0.584,5.6c0,0.818 -0.029,1.672 -0.089,2.556l3.991,0.271c0.065,-0.97 0.098,-1.913 0.098,-2.827c-0.004,-3.236 -0.397,-6.08 -1.261,-8.382c-0.436,-1.15 -0.995,-2.175 -1.753,-3.027c-0.751,-0.847 -1.747,-1.521 -2.907,-1.791l-0.92,3.892Z" style="fill:#03405e;fill-rule:nonzero;"/><path d="M42.948,104.894c-0.224,-0.695 -0.343,-1.428 -0.343,-2.177c0,-0.542 0.062,-1.094 0.193,-1.648c0.391,-1.648 1.311,-3.01 2.547,-3.977c1.235,-0.966 2.777,-1.518 4.388,-1.518c0.542,0 1.094,0.062 1.649,0.194l10.236,2.42c1.648,0.39 3.01,1.31 3.977,2.546c0.966,1.235 1.518,2.777 1.518,4.388c0,0.543 -0.063,1.094 -0.194,1.65c-0.308,1.301 -0.945,2.421 -1.809,3.314c-0.768,0.793 -0.748,2.059 0.046,2.828c0.794,0.768 2.06,0.748 2.828,-0.046c1.348,-1.39 2.353,-3.161 2.828,-5.176c0.203,-0.858 0.301,-1.72 0.301,-2.57c-0.001,-2.527 -0.864,-4.929 -2.365,-6.851c-1.5,-1.922 -3.655,-3.373 -6.209,-3.976l-10.237,-2.42c-0.858,-0.203 -1.72,-0.301 -2.569,-0.301c-2.527,0.001 -4.929,0.864 -6.851,2.365c-1.922,1.5 -3.373,3.655 -3.976,6.21c-0.203,0.858 -0.301,1.72 -0.301,2.568c0,1.174 0.187,2.322 0.537,3.406c0.34,1.052 1.467,1.628 2.518,1.289c1.051,-0.339 1.628,-1.467 1.289,-2.518l-0.001,0Z" style="fill:#03405e;fill-rule:nonzero;"/><defs><linearGradient id="_Linear1" x1="0" y1="0" x2="1" y2="0" gradientUnits="userSpaceOnUse" gradientTransform="matrix(97,0,0,97,26.168,137.868)"><stop offset="0" style="stop-color:#e5f2f8;stop-opacity:1"/><stop offset="1" style="stop-color:#fff;stop-opacity:1"/></linearGradient><linearGradient id="_Linear2" x1="0" y1="0" x2="1" y2="0" gradientUnits="userSpaceOnUse" gradientTransform="matrix(97,0,0,97,26.168,89.837)"><stop offset="0" style="stop-color:#e5f2f8;stop-opacity:1"/><stop offset="1" style="stop-color:#fff;stop-opacity:1"/></linearGradient><linearGradient id="_Linear3" x1="0" y1="0" x2="1" y2="0" gradientUnits="userSpaceOnUse" gradientTransform="matrix(-14.6186,-23.671,23.671,-14.6186,129.762,53.283)"><stop offset="0" style="stop-color:#e7f4f9;stop-opacity:1"/><stop offset="1" style="stop-color:#fff;stop-opacity:1"/></linearGradient><linearGradient id="_Linear4" x1="0" y1="0" x2="1" y2="0" gradientUnits="userSpaceOnUse" gradientTransform="matrix(-4.56997,19.3299,-19.3299,-4.56997,24.925,33.814)"><stop offset="0" style="stop-color:#e7f4f9;stop-opacity:1"/><stop offset="1" style="stop-color:#fff;stop-opacity:1"/></linearGradient></defs></svg>