<?xml version="1.0" encoding="UTF-8" standalone="no"?><!DOCTYPE svg PUBLIC "-//W3C//DTD SVG 1.1//EN" "http://www.w3.org/Graphics/SVG/1.1/DTD/svg11.dtd"><svg width="100%" height="100%" viewBox="0 0 192 183" version="1.1" xmlns="http://www.w3.org/2000/svg" xmlns:xlink="http://www.w3.org/1999/xlink" xml:space="preserve" xmlns:serif="http://www.serif.com/" style="fill-rule:evenodd;clip-rule:evenodd;stroke-linejoin:round;stroke-miterlimit:2;"><path d="M182.732,114l-173.464,0c-4.014,0 -7.268,-3.254 -7.268,-7.268l0,-97.464c0,-4.014 3.254,-7.268 7.268,-7.268l173.464,0c4.015,0 7.268,3.254 7.268,7.268l0,97.464c0,4.014 -3.253,7.268 -7.268,7.268Z" style="fill:url(#_Linear1);"/><path d="M182.732,116l0,-4l-173.464,0c-1.461,-0.001 -2.766,-0.586 -3.725,-1.543c-0.956,-0.96 -1.542,-2.264 -1.543,-3.725l0,-97.464c0.001,-1.461 0.587,-2.766 1.543,-3.725c0.959,-0.957 2.264,-1.542 3.725,-1.543l173.464,0c1.462,0.001 2.766,0.586 3.726,1.543c0.956,0.959 1.541,2.264 1.542,3.725l0,97.464c-0.001,1.461 -0.586,2.765 -1.542,3.725c-0.96,0.956 -2.264,1.542 -3.726,1.543l0,4c5.12,-0.001 9.267,-4.148 9.268,-9.268l0,-97.464c-0.001,-5.12 -4.148,-9.267 -9.268,-9.268l-173.464,0c-5.119,0.001 -9.267,4.148 -9.268,9.268l0,97.464c0.001,5.119 4.149,9.267 9.268,9.268l173.464,0Z" style="fill:#03405e;fill-rule:nonzero;"/><path d="M77.076,125.956c0,14.647 -8.069,27.401 -20,34.083c0,3.844 3.117,6.961 6.961,6.961l63.926,0c3.845,0 6.961,-3.117 6.961,-6.961c-11.93,-6.682 -20,-19.436 -20,-34.083l-37.848,0Z" style="fill:url(#_Linear2);"/><path d="M75.076,125.956c0.001,13.898 -7.654,25.993 -18.977,32.338l-1.023,0.573l0,1.172c0.002,4.949 4.011,8.959 8.961,8.961l63.926,0c4.95,-0.001 8.96,-4.012 8.961,-8.961l0,-1.172l-1.022,-0.573c-11.324,-6.345 -18.979,-18.44 -18.978,-32.338l-4,0c0.001,15.395 8.485,28.81 21.023,35.828l0.977,-1.745l-2,0c-0.001,1.376 -0.552,2.604 -1.453,3.508c-0.904,0.901 -2.132,1.452 -3.508,1.453l-63.926,0c-1.376,-0.001 -2.604,-0.552 -3.508,-1.453c-0.901,-0.904 -1.452,-2.132 -1.453,-3.508l-2,0l0.977,1.745c12.538,-7.018 21.022,-20.433 21.023,-35.828l-4,0Z" style="fill:#03405e;fill-rule:nonzero;"/><path d="M22.5,182.5l147,0c1.105,0 2,-0.895 2,-2c0,-1.105 -0.895,-2 -2,-2l-147,0c-1.105,0 -2,0.895 -2,2c0,1.105 0.895,2 2,2Z" style="fill:#03405e;fill-rule:nonzero;"/><path d="M166.042,28.193l-0.517,-1.932l-25.456,6.822l21.084,21.084l7.718,-28.802l-3.346,0.896l0.517,1.932l-1.931,-0.517l-5.028,18.764l-11.287,-11.287l18.764,-5.028l-0.518,-1.932l-1.931,-0.517l1.931,0.517Z" style="fill:#03405e;fill-rule:nonzero;"/><path d="M24.114,93.105l30.602,-22.733l24.414,11.754l34.168,-27.873l16.256,9.934l23.654,-19.869c0.845,-0.71 0.955,-1.972 0.245,-2.817c-0.711,-0.846 -1.972,-0.956 -2.818,-0.245l-21.451,18.018l-16.219,-9.912l-34.392,28.057l-24.301,-11.7l-32.544,24.175c-0.886,0.659 -1.071,1.912 -0.413,2.799c0.659,0.886 1.912,1.071 2.799,0.413l0,-0.001Z" style="fill:#03405e;fill-rule:nonzero;"/><path d="M56.921,35.5l-4,0c-0.001,3.872 -1.564,7.36 -4.101,9.9c-2.539,2.536 -6.027,4.099 -9.899,4.1c-3.872,-0.001 -7.36,-1.564 -9.9,-4.1c-2.536,-2.54 -4.099,-6.028 -4.1,-9.9c0.001,-3.873 1.564,-7.36 4.1,-9.9c2.54,-2.536 6.028,-4.099 9.9,-4.1c3.872,0.001 7.36,1.564 9.899,4.1c2.537,2.54 4.1,6.027 4.101,9.9l4,0c-0.001,-9.942 -8.058,-17.999 -18,-18c-9.942,0.001 -17.999,8.058 -18,18c0.001,9.942 8.058,17.999 18,18c9.942,-0.001 17.999,-8.058 18,-18Z" style="fill:#03405e;fill-rule:nonzero;"/><path d="M171.921,91.5l0,-25c0,-1.105 -0.895,-2 -2,-2c-1.104,0 -2,0.895 -2,2l0,25c0,1.105 0.896,2 2,2c1.105,0 2,-0.895 2,-2Z" style="fill:#03405e;fill-rule:nonzero;"/><path d="M163.921,91.5l0,-16c0,-1.105 -0.895,-2 -2,-2c-1.104,0 -2,0.895 -2,2l0,16c0,1.105 0.896,2 2,2c1.105,0 2,-0.895 2,-2Z" style="fill:#03405e;fill-rule:nonzero;"/><path d="M155.921,91.5l0,-18c0,-1.105 -0.895,-2 -2,-2c-1.104,0 -2,0.895 -2,2l0,18c0,1.105 0.896,2 2,2c1.105,0 2,-0.895 2,-2Z" style="fill:#03405e;fill-rule:nonzero;"/><path d="M147.921,91.5l0,-10c0,-1.105 -0.895,-2 -2,-2c-1.104,0 -2,0.895 -2,2l0,10c0,1.105 0.896,2 2,2c1.105,0 2,-0.895 2,-2Z" style="fill:#03405e;fill-rule:nonzero;"/><path d="M30.132,22.394l14,28c0.494,0.988 1.695,1.389 2.683,0.895c0.988,-0.494 1.389,-1.695 0.895,-2.683l-14,-28c-0.494,-0.988 -1.696,-1.389 -2.683,-0.895c-0.988,0.494 -1.389,1.695 -0.895,2.683Z" style="fill:#03405e;fill-rule:nonzero;"/><path d="M29.335,47.914l11,-11c0.781,-0.781 0.781,-2.047 0,-2.828c-0.781,-0.781 -2.047,-0.781 -2.828,0l-11,11c-0.781,0.781 -0.781,2.047 0,2.828c0.781,0.781 2.047,0.781 2.828,0Z" style="fill:#03405e;fill-rule:nonzero;"/><defs><linearGradient id="_Linear1" x1="0" y1="0" x2="1" y2="0" gradientUnits="userSpaceOnUse" gradientTransform="matrix(188,0,0,188,2.00042,58)"><stop offset="0" style="stop-color:#e5f2f8;stop-opacity:1"/><stop offset="1" style="stop-color:#fff;stop-opacity:1"/></linearGradient><linearGradient id="_Linear2" x1="0" y1="0" x2="1" y2="0" gradientUnits="userSpaceOnUse" gradientTransform="matrix(77.8478,0,0,77.8478,57.0765,146.478)"><stop offset="0" style="stop-color:#e7f4f9;stop-opacity:1"/><stop offset="1" style="stop-color:#fff;stop-opacity:1"/></linearGradient></defs></svg>