<?xml version="1.0" encoding="UTF-8" standalone="no"?><!DOCTYPE svg PUBLIC "-//W3C//DTD SVG 1.1//EN" "http://www.w3.org/Graphics/SVG/1.1/DTD/svg11.dtd"><svg width="100%" height="100%" viewBox="0 0 191 183" version="1.1" xmlns="http://www.w3.org/2000/svg" xmlns:xlink="http://www.w3.org/1999/xlink" xml:space="preserve" xmlns:serif="http://www.serif.com/" style="fill-rule:evenodd;clip-rule:evenodd;stroke-linejoin:round;stroke-miterlimit:2;"><path d="M20,182.08l147,0c1.105,0 2,-0.895 2,-2c0,-1.105 -0.895,-2 -2,-2l-147,0c-1.104,0 -2,0.895 -2,2c0,1.105 0.896,2 2,2Z" style="fill:#03405e;fill-rule:nonzero;"/><path d="M181.733,113.404l-172.465,0c-4.014,0 -7.268,-3.254 -7.268,-7.267l0,-96.869c0,-4.014 3.254,-7.268 7.268,-7.268l172.465,0c4.013,0 7.267,3.254 7.267,7.268l0,96.869c0,4.013 -3.254,7.267 -7.267,7.267Z" style="fill:url(#_Linear1);"/><path d="M181.733,115.404l0,-4l-172.465,0c-1.461,-0.001 -2.765,-0.586 -3.725,-1.543c-0.956,-0.959 -1.542,-2.264 -1.543,-3.724l0,-96.869c0.001,-1.461 0.587,-2.765 1.543,-3.725c0.96,-0.956 2.264,-1.542 3.725,-1.543l172.465,0c1.461,0.001 2.765,0.587 3.725,1.543c0.956,0.96 1.541,2.264 1.542,3.725l0,96.869c-0.001,1.46 -0.586,2.765 -1.542,3.724c-0.96,0.957 -2.264,1.542 -3.725,1.543l0,4c5.119,-0.001 9.266,-4.148 9.267,-9.267l0,-96.869c-0.001,-5.119 -4.148,-9.266 -9.267,-9.268l-172.465,0c-5.119,0.002 -9.266,4.149 -9.268,9.268l0,96.869c0.002,5.119 4.149,9.266 9.268,9.267l172.465,0Z" style="fill:#03405e;fill-rule:nonzero;"/><path d="M76.677,125.298c0,14.568 -8.026,27.256 -19.893,33.9c0,3.824 3.1,6.925 6.924,6.925l63.585,0c3.825,0 6.924,-3.101 6.924,-6.925c-11.867,-6.644 -19.893,-19.332 -19.893,-33.9l-37.647,0Z" style="fill:url(#_Linear2);"/><path d="M74.677,125.298c0.001,13.82 -7.611,25.847 -18.871,32.155l-1.022,0.573l0,1.172c0.001,4.93 3.994,8.924 8.924,8.925l63.585,0c4.93,-0.001 8.923,-3.996 8.924,-8.925l0,-1.172l-1.023,-0.573c-11.259,-6.308 -18.871,-18.335 -18.87,-32.155l-4,0c0,15.316 8.441,28.664 20.916,35.645l0.977,-1.745l-2,0c-0.001,1.366 -0.548,2.585 -1.442,3.483c-0.897,0.894 -2.116,1.441 -3.482,1.442l-63.585,0c-1.366,-0.001 -2.585,-0.548 -3.482,-1.443c-0.894,-0.897 -1.441,-2.116 -1.442,-3.482l-2,0l0.977,1.745c12.474,-6.981 20.915,-20.329 20.916,-35.645l-4,0Z" style="fill:#03405e;fill-rule:nonzero;"/><path d="M157,49.08l0,-1l-121,0l0,-32l120,0l0,33l1,0l0,-1l0,1l1,0l0,-35l-124,0l0,36l124,0l0,-1l-1,0Z" style="fill:#03405e;fill-rule:nonzero;"/><path d="M69,80.08l0,-1l-33,0l0,-22l32,0l0,23l1,0l0,-1l0,1l1,0l0,-25l-36,0l0,26l36,0l0,-1l-1,0Z" style="fill:#03405e;fill-rule:nonzero;"/><rect x="79" y="56.08" width="34" height="24" style="fill:#03405e;fill-rule:nonzero;"/><path d="M157,80.08l0,-1l-33,0l0,-22l32,0l0,23l1,0l0,-1l0,1l1,0l0,-25l-36,0l0,26l36,0l0,-1l-1,0Z" style="fill:#03405e;fill-rule:nonzero;"/><path d="M34,90.08l35,0l0,-2l-35,0" style="fill:#03405e;fill-rule:nonzero;"/><path d="M34,95.08l35,0l0,-2l-35,0" style="fill:#03405e;fill-rule:nonzero;"/><path d="M34,100.08l25,0l0,-2l-25,0" style="fill:#03405e;fill-rule:nonzero;"/><path d="M79,90.08l35,0l0,-2l-35,0" style="fill:#03405e;fill-rule:nonzero;"/><path d="M79,95.08l35,0l0,-2l-35,0" style="fill:#03405e;fill-rule:nonzero;"/><path d="M79,100.08l25,0l0,-2l-25,0" style="fill:#03405e;fill-rule:nonzero;"/><path d="M123,90.08l35,0l0,-2l-35,0" style="fill:#03405e;fill-rule:nonzero;"/><path d="M123,95.08l35,0l0,-2l-35,0" style="fill:#03405e;fill-rule:nonzero;"/><path d="M123,100.08l25,0l0,-2l-25,0" style="fill:#03405e;fill-rule:nonzero;"/><path d="M150.729,70.142c1.946,0 3.771,0.751 5.142,2.122l23.905,23.904c3.247,3.248 4.862,7.508 4.862,11.768c0,4.261 -1.624,8.531 -4.871,11.779c-4.27,4.146 -14.345,13.838 -15.873,14.571c-2.191,1.073 -4.679,1.658 -7.167,1.676l-0.148,0c-2.847,-0.027 -8.085,-1.336 -8.312,-1.397l-42.073,-12.083c-1.851,-0.498 -3.423,-1.703 -4.392,-3.379c-0.977,-1.685 -1.231,-3.64 -0.724,-5.517c0.323,-1.223 0.978,-2.349 1.877,-3.257c1.833,-1.833 4.531,-2.558 7.028,-1.886l16.719,4.479l-29.038,-29.029c-1.371,-1.371 -2.122,-3.196 -2.122,-5.143c0,-1.938 0.751,-3.771 2.122,-5.142c1.379,-1.371 3.204,-2.121 5.143,-2.121c1.946,0 3.771,0.75 5.142,2.121l10.529,10.529c0.218,-1.545 0.926,-2.968 2.052,-4.086c1.37,-1.379 3.195,-2.13 5.142,-2.13c1.929,-0.008 3.763,0.742 5.142,2.13l0.192,0.193c0.218,-1.494 0.9,-2.934 2.052,-4.086c1.371,-1.371 3.195,-2.122 5.143,-2.122c1.928,-0.009 3.753,0.742 5.132,2.122l0.202,0.2c0.218,-1.501 0.899,-2.933 2.051,-4.086c1.371,-1.379 3.204,-2.13 5.143,-2.13Z" style="fill:#fff;fill-rule:nonzero;"/><path d="M153.802,74.342l23.904,23.904c5.343,5.343 5.343,14.048 0.009,19.382c-6.531,6.33 -14.056,13.41 -15.104,14.021c-1.773,0.873 -3.781,1.345 -5.788,1.379l-0.131,0c-2.026,0.009 -6.251,-0.933 -7.657,-1.292l-42.064,-12.083c-1.118,-0.297 -2.052,-1.012 -2.628,-2.016c-0.585,-1.004 -0.733,-2.174 -0.436,-3.292c0.2,-0.742 0.576,-1.388 1.126,-1.938c1.091,-1.1 2.697,-1.528 4.191,-1.135l22,5.902c0.647,0.175 1.318,-0.105 1.65,-0.681c0.332,-0.576 0.237,-1.301 -0.226,-1.772l-32.906,-32.906c-1.642,-1.633 -1.642,-4.496 0,-6.129c0.812,-0.821 1.903,-1.266 3.065,-1.266c1.161,0 2.252,0.445 3.064,1.266l25.494,25.493c0.288,0.28 0.663,0.428 1.038,0.428c0.376,0 0.751,-0.148 1.039,-0.428c0.567,-0.576 0.567,-1.501 0,-2.078l-10.843,-10.843c-0.821,-0.812 -1.267,-1.903 -1.267,-3.064c0,-1.161 0.446,-2.253 1.276,-3.073c0.811,-0.821 1.902,-1.267 3.072,-1.267c1.153,-0.008 2.235,0.446 3.057,1.267l12.58,12.571c0.279,0.289 0.655,0.437 1.03,0.437c0.376,0 0.751,-0.148 1.039,-0.437c0.576,-0.567 0.576,-1.492 0,-2.069l-8.259,-8.259c-1.632,-1.633 -1.632,-4.496 0,-6.129c0.821,-0.821 1.912,-1.274 3.074,-1.274c1.152,0 2.243,0.445 3.064,1.274l9.987,9.988c0.288,0.288 0.664,0.428 1.039,0.428c0.375,0 0.751,-0.14 1.039,-0.428c0.568,-0.576 0.568,-1.501 0,-2.069l-5.674,-5.675l0,-0.008c-1.686,-1.685 -1.686,-4.436 0,-6.129c0.82,-0.821 1.912,-1.275 3.073,-1.275c1.161,0 2.252,0.454 3.073,1.275Zm-8.216,-2.07c-1.152,1.153 -1.833,2.585 -2.051,4.086l-0.202,-0.2c-1.379,-1.38 -3.204,-2.131 -5.132,-2.122c-1.948,0 -3.772,0.751 -5.143,2.122c-1.152,1.152 -1.834,2.592 -2.052,4.086l-0.192,-0.193c-1.379,-1.388 -3.213,-2.138 -5.142,-2.13c-1.947,0 -3.772,0.751 -5.142,2.13c-1.126,1.118 -1.834,2.541 -2.052,4.086l-10.529,-10.529c-1.371,-1.371 -3.196,-2.121 -5.142,-2.121c-1.939,0 -3.764,0.75 -5.143,2.121c-1.371,1.371 -2.122,3.204 -2.122,5.142c0,1.947 0.751,3.772 2.122,5.143l29.038,29.029l-16.719,-4.479c-2.497,-0.672 -5.195,0.053 -7.028,1.886c-0.899,0.908 -1.554,2.034 -1.877,3.257c-0.507,1.877 -0.253,3.832 0.724,5.517c0.969,1.676 2.541,2.881 4.392,3.379l42.073,12.083c0.227,0.061 5.465,1.37 8.312,1.397l0.148,0c2.488,-0.018 4.976,-0.603 7.167,-1.676c1.528,-0.733 11.603,-10.425 15.873,-14.571c3.247,-3.248 4.871,-7.518 4.871,-11.779c0,-4.26 -1.615,-8.52 -4.862,-11.768l-23.905,-23.904c-1.371,-1.371 -3.196,-2.122 -5.142,-2.122c-1.939,0 -3.772,0.751 -5.143,2.13Z" style="fill:#03405e;fill-rule:nonzero;"/><defs><linearGradient id="_Linear1" x1="0" y1="0" x2="1" y2="0" gradientUnits="userSpaceOnUse" gradientTransform="matrix(187,0,0,187,2.00001,57.703)"><stop offset="0" style="stop-color:#e5f2f8;stop-opacity:1"/><stop offset="1" style="stop-color:#fff;stop-opacity:1"/></linearGradient><linearGradient id="_Linear2" x1="0" y1="0" x2="1" y2="0" gradientUnits="userSpaceOnUse" gradientTransform="matrix(77.4338,0,0,77.4338,56.783,145.71)"><stop offset="0" style="stop-color:#e7f4f9;stop-opacity:1"/><stop offset="1" style="stop-color:#fff;stop-opacity:1"/></linearGradient></defs></svg>