<?xml version="1.0" encoding="UTF-8" standalone="no"?><!DOCTYPE svg PUBLIC "-//W3C//DTD SVG 1.1//EN" "http://www.w3.org/Graphics/SVG/1.1/DTD/svg11.dtd"><svg width="100%" height="100%" viewBox="0 0 24 21" version="1.1" xmlns="http://www.w3.org/2000/svg" xmlns:xlink="http://www.w3.org/1999/xlink" xml:space="preserve" xmlns:serif="http://www.serif.com/" style="fill-rule:evenodd;clip-rule:evenodd;stroke-linejoin:round;stroke-miterlimit:2;"><path d="M23.391,9.755l-9.894,7.978c-0.179,0.144 -0.398,0.219 -0.619,0.219c-0.146,0 -0.292,-0.033 -0.428,-0.098c-0.343,-0.166 -0.561,-0.516 -0.561,-0.899l0,-4.051c-3.721,0.144 -6.471,1.1 -8.157,2.868c-1.804,1.891 -1.742,4.038 -1.739,4.129c0.022,0.546 -0.398,1.012 -0.94,1.038c-0.016,0.001 -0.033,0.001 -0.05,0.001c-0.52,0 -0.955,-0.406 -0.986,-0.935c-0.276,-4.716 0.855,-8.434 3.359,-11.052c2.866,-2.995 6.708,-3.682 8.513,-3.834l0,-4.12c0,-0.384 0.218,-0.733 0.561,-0.899c0.34,-0.165 0.749,-0.121 1.047,0.12l9.894,7.978c0.235,0.189 0.371,0.476 0.371,0.779c0,0.303 -0.136,0.589 -0.371,0.778Zm-9.523,-6.681l0,3.001c0,0.004 -0.002,0.007 -0.002,0.011c0,0.004 0.002,0.008 0.002,0.012c-0.002,0.075 -0.03,0.141 -0.047,0.21c-0.013,0.055 -0.014,0.113 -0.036,0.163c-0.028,0.066 -0.076,0.118 -0.117,0.175c-0.033,0.046 -0.056,0.099 -0.095,0.138c-0.052,0.052 -0.118,0.083 -0.18,0.122c-0.045,0.029 -0.083,0.068 -0.133,0.089c-0.118,0.05 -0.247,0.078 -0.382,0.078c-0.008,0 0.024,0.001 -0.044,-0.001c-0.375,0 -4.988,0.07 -8.046,3.278c-0.979,1.028 -1.706,2.276 -2.179,3.736c2.236,-2.128 5.687,-3.206 10.269,-3.206c0.547,0 0.99,0.447 0.99,0.997l0,3.003l7.321,-5.903l-7.321,-5.903Z" style="fill:#e99222;"/></svg>