<?xml version="1.0" encoding="utf-8"?>
<!-- Generator: Adobe Illustrator 23.0.3, SVG Export Plug-In . SVG Version: 6.00 Build 0)  -->
<svg version="1.1" id="Warstwa_1" xmlns="http://www.w3.org/2000/svg" xmlns:xlink="http://www.w3.org/1999/xlink" x="0px" y="0px"
	 viewBox="0 0 11.5 11.3" style="enable-background:new 0 0 11.5 11.3;" xml:space="preserve">
<style type="text/css">
	.st0{fill:#E2632B;}
</style>
<path class="st0" d="M7.9,5.7l3-3c0.6-0.6,0.6-1.5,0-2.1c-0.6-0.6-1.5-0.6-2.1,0l-3,3l-3-3c-0.6-0.6-1.5-0.6-2.1,0
	C0,1.1,0,2.1,0.6,2.6l3,3l-3,3C0,9.3,0,10.2,0.6,10.8c0.3,0.3,0.7,0.4,1.1,0.4s0.8-0.1,1.1-0.4l3-3l3,3c0.3,0.3,0.7,0.4,1.1,0.4
	s0.8-0.1,1.1-0.4c0.6-0.6,0.6-1.5,0-2.1L7.9,5.7z"/>
</svg>
